<svg version="1.1" id="Layer_1" xmlns="http://www.w3.org/2000/svg" xmlns:xlink="http://www.w3.org/1999/xlink" x="0px" y="0px"
	 width="100%" viewBox="0 0 512 512" enable-background="new 0 0 512 512" xml:space="preserve">
<path fill="#000000" opacity="1.000000" stroke="none" 
	d="
M346.000000,513.000000 
	C230.694687,513.000000 115.889366,513.000000 1.042022,513.000000 
	C1.042022,342.402985 1.042022,171.805969 1.042022,1.104477 
	C171.555328,1.104477 342.110718,1.104477 512.833069,1.104477 
	C512.833069,171.666534 512.833069,342.333252 512.833069,513.000000 
	C457.472565,513.000000 401.986298,513.000000 346.000000,513.000000 
M191.497375,201.999146 
	C166.387985,201.336639 141.281555,200.487335 116.167976,200.087906 
	C102.989380,199.878296 93.825378,208.148315 92.147835,220.769424 
	C90.555450,232.749908 98.198639,243.426498 110.699402,246.609238 
	C127.371864,250.854080 144.280380,253.088760 161.521225,253.033264 
	C196.851318,252.919525 232.182678,252.886002 267.512054,253.081650 
	C276.129181,253.129364 284.739899,254.202393 293.354919,254.784042 
	C304.294556,255.522690 315.232239,256.759796 326.176849,256.829712 
	C338.407166,256.907928 347.596283,247.944672 348.875519,235.851944 
	C349.870758,226.443924 344.326599,213.115601 330.747101,210.851807 
	C325.862854,210.037582 320.818115,210.215424 315.853210,209.850662 
	C298.629364,208.585236 281.420715,207.046661 264.178650,206.135971 
	C259.148865,205.870285 257.219788,203.815948 257.111084,199.340485 
	C256.965485,193.344315 257.323975,187.323914 256.937622,181.348068 
	C256.157135,169.275238 255.604355,157.139557 253.847244,145.193115 
	C252.426987,135.536804 248.817368,126.214897 247.186417,116.574219 
	C244.840485,102.707497 244.810791,88.570564 241.396301,74.735344 
	C237.763840,60.017025 233.799438,45.342800 234.615234,29.673592 
	C235.203903,18.366571 226.773575,10.522907 215.235565,8.315027 
	C205.622833,6.475564 194.635880,12.314673 189.811401,21.258835 
	C185.000565,30.177715 179.472000,38.710327 174.686935,47.642025 
	C165.586716,64.628265 156.733795,81.748138 147.898666,98.874680 
	C144.211792,106.021530 140.881378,112.606911 131.537994,114.679749 
	C121.584877,116.887848 115.545738,127.266006 116.052193,137.689270 
	C116.554123,148.019791 123.358398,156.638138 133.308304,159.002258 
	C151.801453,163.396225 165.499298,154.671265 176.436691,141.391296 
	C182.670471,133.822342 186.769272,124.496002 191.842163,115.968567 
	C192.429337,114.981522 193.097992,114.042923 194.178146,112.397408 
	C197.875137,123.266373 201.883606,132.810120 201.190735,143.743759 
	C200.754395,150.629288 201.861877,157.671341 202.801407,164.571762 
	C204.257004,175.262329 206.113510,185.899826 207.900146,196.542999 
	C208.511124,200.182739 207.894333,202.355377 203.490570,202.039932 
	C199.843246,201.778671 196.161758,201.994568 191.497375,201.999146 
M206.666916,414.218658 
	C209.346207,417.168884 211.825989,420.335358 214.743759,423.027100 
	C222.238693,429.941498 230.799271,435.387390 240.306168,438.975067 
	C249.724686,442.529358 259.264740,438.540894 259.022552,427.750916 
	C258.858795,420.455231 255.374451,415.827850 247.299362,412.937561 
	C239.423141,410.118378 232.593521,405.354797 228.213379,398.494995 
	C223.258759,390.735474 218.925735,382.312500 215.949417,373.620850 
	C211.815720,361.549377 209.115524,348.979919 205.963745,336.582428 
	C204.451660,330.634521 202.831009,324.648468 202.119171,318.578827 
	C201.131393,310.156189 197.298706,306.788025 187.466125,307.017487 
	C180.129272,307.188690 175.513626,311.465820 176.149643,319.152069 
	C177.336105,333.490448 177.623947,347.996552 181.891617,361.941406 
	C182.086258,362.577423 181.916565,363.324951 181.916565,364.233521 
	C178.586578,362.131622 175.858124,359.196381 172.733475,358.685822 
	C165.907440,357.570496 158.792435,356.823975 151.956985,357.517822 
	C143.282150,358.398376 135.462311,365.490356 135.189133,371.634125 
	C134.916718,377.761200 135.417084,383.922333 135.567596,390.068817 
	C135.595688,391.215912 135.571609,392.364258 135.571609,393.512054 
	C135.095428,393.610779 134.619263,393.709534 134.143082,393.808289 
	C129.620377,387.457184 122.781738,382.467468 123.871017,372.951782 
	C124.274750,369.424896 124.025177,365.474579 122.816406,362.178345 
	C119.428146,352.938873 111.547028,348.062561 101.595230,347.954620 
	C99.392426,347.930725 96.258087,348.039368 95.151649,346.732819 
	C88.427567,338.792786 79.503922,338.765961 70.452515,339.218506 
	C63.179226,339.582214 55.888790,340.119781 48.686676,341.146393 
	C45.624149,341.582977 42.484341,343.038116 39.872952,344.772919 
	C33.241802,349.178070 32.050949,356.227753 31.329571,363.551331 
	C30.401405,372.974274 30.981369,382.191223 34.738625,390.913239 
	C38.698502,400.105621 47.203667,405.424042 53.963963,412.205292 
	C54.933903,413.178223 56.587425,413.708954 58.009266,413.955048 
	C71.989403,416.374481 85.533180,416.430817 97.086906,406.310883 
	C98.956207,404.673584 100.856186,402.998932 102.987808,401.766907 
	C103.919891,401.228149 106.079865,401.235229 106.644455,401.889679 
	C111.077576,407.028748 115.439255,412.251862 119.468231,417.710876 
	C123.605164,423.316132 128.801407,426.495605 135.707474,424.752625 
	C139.029572,423.914154 141.941254,421.449585 145.344498,419.550812 
	C145.753067,420.120056 146.399918,421.035889 147.061615,421.940887 
	C152.845428,429.851440 165.924133,437.248901 176.828430,430.607941 
	C185.156464,425.535980 193.279236,420.127625 201.581192,415.011475 
	C202.871780,414.216187 204.632492,414.183746 206.666916,414.218658 
M402.782867,444.828125 
	C400.682861,443.817780 398.638794,442.663086 396.472565,441.823669 
	C389.473480,439.111633 382.006866,441.469910 379.073730,447.204010 
	C375.958618,453.293854 378.048492,461.121094 384.278015,465.111542 
	C390.776611,469.274261 397.804749,471.565887 405.736877,472.183350 
	C417.684784,473.113373 428.740417,469.231506 440.160461,467.368317 
	C446.543396,466.326904 453.037354,465.149902 459.030334,462.855896 
	C462.363708,461.579926 466.631287,458.259613 467.245697,455.209564 
	C469.061493,446.195679 469.136963,437.052277 461.360229,429.765259 
	C450.090912,419.205627 439.118500,408.328094 428.067993,397.536438 
	C424.213348,393.772125 422.214264,389.042603 420.419006,383.510620 
	C422.888214,383.281921 424.367096,382.919098 425.800171,383.051422 
	C431.912933,383.616028 437.998444,384.635803 444.119720,384.908295 
	C452.201630,385.268127 456.733246,381.085693 456.973358,373.755951 
	C457.260529,364.990479 452.906006,359.390320 445.046722,359.044617 
	C433.420807,358.533112 421.775391,358.464630 410.149231,357.957184 
	C404.286072,357.701263 400.486969,360.531586 398.388275,365.472107 
	C393.709381,376.486877 393.157166,387.761292 397.997009,398.889984 
	C403.719299,412.047546 414.042633,421.549866 424.256409,431.099121 
	C427.723053,434.340210 431.161102,437.611786 434.980499,441.217010 
	C428.089722,442.942688 421.913330,444.956177 415.577515,445.903809 
	C411.681122,446.486511 407.541107,445.439972 402.782867,444.828125 
M234.714417,347.843567 
	C232.926575,350.201172 229.492157,352.667175 229.638962,354.897430 
	C230.240265,364.031952 231.023376,373.357452 233.545319,382.091248 
	C235.224457,387.906250 242.183884,389.813202 247.696030,391.164825 
	C265.534210,395.538849 282.766693,393.614960 298.466461,383.580536 
	C302.838654,380.786102 307.626038,377.358093 310.009705,373.007965 
	C314.691345,364.464081 314.711578,354.943146 309.880341,346.208008 
	C305.388824,338.087158 300.470978,330.160522 295.198303,322.522919 
	C287.002380,310.650909 272.874237,308.937714 260.865936,310.366150 
	C259.509918,310.527435 258.195374,311.641113 257.006622,312.511261 
	C245.137100,321.200043 237.014618,332.253784 234.714417,347.843567 
M390.575104,386.909973 
	C387.643372,380.368713 383.773743,375.059143 376.585815,372.210632 
	C368.086914,368.842590 359.458466,368.532288 350.662811,369.219452 
	C347.891479,369.436005 346.583954,369.137756 345.652985,366.159576 
	C344.244781,361.654510 341.226929,358.412598 336.008453,358.042084 
	C325.319946,357.283203 320.852631,361.265350 321.054230,372.106201 
	C321.277954,384.137939 320.739594,395.864319 316.385620,407.423523 
	C314.046326,413.634064 313.565918,420.710480 313.196228,427.448303 
	C312.858826,433.597290 317.749634,437.766022 324.061127,437.976349 
	C333.080566,438.276947 337.365631,434.922028 339.086700,428.363953 
	C341.511871,419.122803 344.666077,410.029816 348.207275,401.152161 
	C349.216431,398.622375 352.366150,396.470703 355.035248,395.188599 
	C359.197784,393.189178 363.627472,394.782074 366.265503,397.983185 
	C370.160828,402.709900 373.243958,408.330841 370.673309,414.871094 
	C368.479675,420.452118 367.758636,425.794800 371.534485,430.905853 
	C375.640198,436.463379 381.733337,435.696655 387.106628,434.505432 
	C392.500641,433.309601 395.973663,428.641296 396.489838,423.268646 
	C397.670410,410.980316 398.223938,398.595428 390.575104,386.909973 
z"/>
<path fill="#481F0A" opacity="1.000000" stroke="none" 
	d="
M191.996399,201.999100 
	C196.161758,201.994568 199.843246,201.778671 203.490570,202.039932 
	C207.894333,202.355377 208.511124,200.182739 207.900146,196.542999 
	C206.113510,185.899826 204.257004,175.262329 202.801407,164.571762 
	C201.861877,157.671341 200.754395,150.629288 201.190735,143.743759 
	C201.883606,132.810120 197.875137,123.266373 194.178146,112.397408 
	C193.097992,114.042923 192.429337,114.981522 191.842163,115.968567 
	C186.769272,124.496002 182.670471,133.822342 176.436691,141.391296 
	C165.499298,154.671265 151.801453,163.396225 133.308304,159.002258 
	C123.358398,156.638138 116.554123,148.019791 116.052193,137.689270 
	C115.545738,127.266006 121.584877,116.887848 131.537994,114.679749 
	C140.881378,112.606911 144.211792,106.021530 147.898666,98.874680 
	C156.733795,81.748138 165.586716,64.628265 174.686935,47.642025 
	C179.472000,38.710327 185.000565,30.177715 189.811401,21.258835 
	C194.635880,12.314673 205.622833,6.475564 215.235565,8.315027 
	C226.773575,10.522907 235.203903,18.366571 234.615234,29.673592 
	C233.799438,45.342800 237.763840,60.017025 241.396301,74.735344 
	C244.810791,88.570564 244.840485,102.707497 247.186417,116.574219 
	C248.817368,126.214897 252.426987,135.536804 253.847244,145.193115 
	C255.604355,157.139557 256.157135,169.275238 256.937622,181.348068 
	C257.323975,187.323914 256.965485,193.344315 257.111084,199.340485 
	C257.219788,203.815948 259.148865,205.870285 264.178650,206.135971 
	C281.420715,207.046661 298.629364,208.585236 315.853210,209.850662 
	C320.818115,210.215424 325.862854,210.037582 330.747101,210.851807 
	C344.326599,213.115601 349.870758,226.443924 348.875519,235.851944 
	C347.596283,247.944672 338.407166,256.907928 326.176849,256.829712 
	C315.232239,256.759796 304.294556,255.522690 293.354919,254.784042 
	C284.739899,254.202393 276.129181,253.129364 267.512054,253.081650 
	C232.182678,252.886002 196.851318,252.919525 161.521225,253.033264 
	C144.280380,253.088760 127.371864,250.854080 110.699402,246.609238 
	C98.198639,243.426498 90.555450,232.749908 92.147835,220.769424 
	C93.825378,208.148315 102.989380,199.878296 116.167976,200.087906 
	C141.281555,200.487335 166.387985,201.336639 191.996399,201.999100 
z"/>
<path fill="#481F0A" opacity="1.000000" stroke="none" 
	d="
M206.421356,414.008606 
	C204.632492,414.183746 202.871780,414.216187 201.581192,415.011475 
	C193.279236,420.127625 185.156464,425.535980 176.828430,430.607941 
	C165.924133,437.248901 152.845428,429.851440 147.061615,421.940887 
	C146.399918,421.035889 145.753067,420.120056 145.344498,419.550812 
	C141.941254,421.449585 139.029572,423.914154 135.707474,424.752625 
	C128.801407,426.495605 123.605164,423.316132 119.468231,417.710876 
	C115.439255,412.251862 111.077576,407.028748 106.644455,401.889679 
	C106.079865,401.235229 103.919891,401.228149 102.987808,401.766907 
	C100.856186,402.998932 98.956207,404.673584 97.086906,406.310883 
	C85.533180,416.430817 71.989403,416.374481 58.009266,413.955048 
	C56.587425,413.708954 54.933903,413.178223 53.963963,412.205292 
	C47.203667,405.424042 38.698502,400.105621 34.738625,390.913239 
	C30.981369,382.191223 30.401405,372.974274 31.329571,363.551331 
	C32.050949,356.227753 33.241802,349.178070 39.872952,344.772919 
	C42.484341,343.038116 45.624149,341.582977 48.686676,341.146393 
	C55.888790,340.119781 63.179226,339.582214 70.452515,339.218506 
	C79.503922,338.765961 88.427567,338.792786 95.151649,346.732819 
	C96.258087,348.039368 99.392426,347.930725 101.595230,347.954620 
	C111.547028,348.062561 119.428146,352.938873 122.816406,362.178345 
	C124.025177,365.474579 124.274750,369.424896 123.871017,372.951782 
	C122.781738,382.467468 129.620377,387.457184 134.143082,393.808289 
	C134.619263,393.709534 135.095428,393.610779 135.571609,393.512054 
	C135.571609,392.364258 135.595688,391.215912 135.567596,390.068817 
	C135.417084,383.922333 134.916718,377.761200 135.189133,371.634125 
	C135.462311,365.490356 143.282150,358.398376 151.956985,357.517822 
	C158.792435,356.823975 165.907440,357.570496 172.733475,358.685822 
	C175.858124,359.196381 178.586578,362.131622 181.916565,364.233521 
	C181.916565,363.324951 182.086258,362.577423 181.891617,361.941406 
	C177.623947,347.996552 177.336105,333.490448 176.149643,319.152069 
	C175.513626,311.465820 180.129272,307.188690 187.466125,307.017487 
	C197.298706,306.788025 201.131393,310.156189 202.119171,318.578827 
	C202.831009,324.648468 204.451660,330.634521 205.963745,336.582428 
	C209.115524,348.979919 211.815720,361.549377 215.949417,373.620850 
	C218.925735,382.312500 223.258759,390.735474 228.213379,398.494995 
	C232.593521,405.354797 239.423141,410.118378 247.299362,412.937561 
	C255.374451,415.827850 258.858795,420.455231 259.022552,427.750916 
	C259.264740,438.540894 249.724686,442.529358 240.306168,438.975067 
	C230.799271,435.387390 222.238693,429.941498 214.743759,423.027100 
	C211.825989,420.335358 209.346207,417.168884 206.421356,414.008606 
M91.665817,373.670715 
	C89.301529,364.344208 90.045067,366.142883 81.928413,366.016327 
	C75.475998,365.915680 69.019791,365.948761 62.566746,366.034058 
	C57.469490,366.101379 56.086868,367.804840 56.928928,372.872772 
	C58.160828,380.286957 62.598122,385.966156 68.785393,389.276245 
	C73.820366,391.969849 78.047592,387.160278 82.129471,384.474213 
	C84.754379,382.746918 87.294456,380.820557 89.571526,378.665344 
	C90.661255,377.633972 91.051750,375.863800 91.665817,373.670715 
M174.564240,395.194427 
	C170.529694,391.331635 166.495163,387.468811 161.521286,382.706665 
	C161.549927,391.154022 163.133347,397.594666 166.895187,403.413879 
	C167.390869,404.180695 169.066483,405.082794 169.573792,404.801361 
	C173.479568,402.634613 177.231827,400.191101 181.031693,397.833435 
	C180.830795,397.405609 180.629898,396.977753 180.428986,396.549927 
	C178.690964,396.212646 176.952942,395.875366 174.564240,395.194427 
z"/>
<path fill="#481F0A" opacity="1.000000" stroke="none" 
	d="
M403.146667,444.976562 
	C407.541107,445.439972 411.681122,446.486511 415.577515,445.903809 
	C421.913330,444.956177 428.089722,442.942688 434.980499,441.217010 
	C431.161102,437.611786 427.723053,434.340210 424.256409,431.099121 
	C414.042633,421.549866 403.719299,412.047546 397.997009,398.889984 
	C393.157166,387.761292 393.709381,376.486877 398.388275,365.472107 
	C400.486969,360.531586 404.286072,357.701263 410.149231,357.957184 
	C421.775391,358.464630 433.420807,358.533112 445.046722,359.044617 
	C452.906006,359.390320 457.260529,364.990479 456.973358,373.755951 
	C456.733246,381.085693 452.201630,385.268127 444.119720,384.908295 
	C437.998444,384.635803 431.912933,383.616028 425.800171,383.051422 
	C424.367096,382.919098 422.888214,383.281921 420.419006,383.510620 
	C422.214264,389.042603 424.213348,393.772125 428.067993,397.536438 
	C439.118500,408.328094 450.090912,419.205627 461.360229,429.765259 
	C469.136963,437.052277 469.061493,446.195679 467.245697,455.209564 
	C466.631287,458.259613 462.363708,461.579926 459.030334,462.855896 
	C453.037354,465.149902 446.543396,466.326904 440.160461,467.368317 
	C428.740417,469.231506 417.684784,473.113373 405.736877,472.183350 
	C397.804749,471.565887 390.776611,469.274261 384.278015,465.111542 
	C378.048492,461.121094 375.958618,453.293854 379.073730,447.204010 
	C382.006866,441.469910 389.473480,439.111633 396.472565,441.823669 
	C398.638794,442.663086 400.682861,443.817780 403.146667,444.976562 
z"/>
<path fill="#481F0A" opacity="1.000000" stroke="none" 
	d="
M234.981995,347.559509 
	C237.014618,332.253784 245.137100,321.200043 257.006622,312.511261 
	C258.195374,311.641113 259.509918,310.527435 260.865936,310.366150 
	C272.874237,308.937714 287.002380,310.650909 295.198303,322.522919 
	C300.470978,330.160522 305.388824,338.087158 309.880341,346.208008 
	C314.711578,354.943146 314.691345,364.464081 310.009705,373.007965 
	C307.626038,377.358093 302.838654,380.786102 298.466461,383.580536 
	C282.766693,393.614960 265.534210,395.538849 247.696030,391.164825 
	C242.183884,389.813202 235.224457,387.906250 233.545319,382.091248 
	C231.023376,373.357452 230.240265,364.031952 229.638962,354.897430 
	C229.492157,352.667175 232.926575,350.201172 234.981995,347.559509 
M262.980469,354.365204 
	C261.393219,358.351929 259.806000,362.338654 258.202362,366.366577 
	C264.936249,369.272186 279.322021,366.528351 285.262421,360.569397 
	C285.903473,359.926300 286.384491,358.248535 286.004028,357.597809 
	C282.243286,351.165466 278.538513,344.671722 274.280762,338.570221 
	C271.981262,335.274933 269.051422,336.078857 266.438141,339.066711 
	C262.697998,343.342865 262.270203,348.251312 262.980469,354.365204 
z"/>
<path fill="#481F0A" opacity="1.000000" stroke="none" 
	d="
M390.788330,387.212219 
	C398.223938,398.595428 397.670410,410.980316 396.489838,423.268646 
	C395.973663,428.641296 392.500641,433.309601 387.106628,434.505432 
	C381.733337,435.696655 375.640198,436.463379 371.534485,430.905853 
	C367.758636,425.794800 368.479675,420.452118 370.673309,414.871094 
	C373.243958,408.330841 370.160828,402.709900 366.265503,397.983185 
	C363.627472,394.782074 359.197784,393.189178 355.035248,395.188599 
	C352.366150,396.470703 349.216431,398.622375 348.207275,401.152161 
	C344.666077,410.029816 341.511871,419.122803 339.086700,428.363953 
	C337.365631,434.922028 333.080566,438.276947 324.061127,437.976349 
	C317.749634,437.766022 312.858826,433.597290 313.196228,427.448303 
	C313.565918,420.710480 314.046326,413.634064 316.385620,407.423523 
	C320.739594,395.864319 321.277954,384.137939 321.054230,372.106201 
	C320.852631,361.265350 325.319946,357.283203 336.008453,358.042084 
	C341.226929,358.412598 344.244781,361.654510 345.652985,366.159576 
	C346.583954,369.137756 347.891479,369.436005 350.662811,369.219452 
	C359.458466,368.532288 368.086914,368.842590 376.585815,372.210632 
	C383.773743,375.059143 387.643372,380.368713 390.788330,387.212219 
z"/>
<path fill="#000000" opacity="1.000000" stroke="none" 
	d="
M91.712372,374.049469 
	C91.051750,375.863800 90.661255,377.633972 89.571526,378.665344 
	C87.294456,380.820557 84.754379,382.746918 82.129471,384.474213 
	C78.047592,387.160278 73.820366,391.969849 68.785393,389.276245 
	C62.598122,385.966156 58.160828,380.286957 56.928928,372.872772 
	C56.086868,367.804840 57.469490,366.101379 62.566746,366.034058 
	C69.019791,365.948761 75.475998,365.915680 81.928413,366.016327 
	C90.045067,366.142883 89.301529,364.344208 91.712372,374.049469 
z"/>
<path fill="#000000" opacity="1.000000" stroke="none" 
	d="
M174.889587,395.366272 
	C176.952942,395.875366 178.690964,396.212646 180.428986,396.549927 
	C180.629898,396.977753 180.830795,397.405609 181.031693,397.833435 
	C177.231827,400.191101 173.479568,402.634613 169.573792,404.801361 
	C169.066483,405.082794 167.390869,404.180695 166.895187,403.413879 
	C163.133347,397.594666 161.549927,391.154022 161.521286,382.706665 
	C166.495163,387.468811 170.529694,391.331635 174.889587,395.366272 
z"/>
<path fill="#000000" opacity="1.000000" stroke="none" 
	d="
M262.983093,353.937408 
	C262.270203,348.251312 262.697998,343.342865 266.438141,339.066711 
	C269.051422,336.078857 271.981262,335.274933 274.280762,338.570221 
	C278.538513,344.671722 282.243286,351.165466 286.004028,357.597809 
	C286.384491,358.248535 285.903473,359.926300 285.262421,360.569397 
	C279.322021,366.528351 264.936249,369.272186 258.202362,366.366577 
	C259.806000,362.338654 261.393219,358.351929 262.983093,353.937408 
z"/>
</svg>