<svg version="1.1" id="Layer_1" xmlns="http://www.w3.org/2000/svg" xmlns:xlink="http://www.w3.org/1999/xlink" x="0px" y="0px"
	 width="100%" viewBox="0 0 500 500" enable-background="new 0 0 500 500" xml:space="preserve">
<path fill="#2C2C2C" opacity="1.000000" stroke="none" 
	d="
M308.000000,501.000000 
	C205.729294,501.000000 103.458580,501.000000 1.000000,501.000000 
	C1.000000,366.978058 1.000000,232.956009 1.347150,98.541916 
	C3.554729,99.462173 5.863857,100.425873 7.199956,102.145561 
	C13.927083,110.804031 20.333616,119.710548 26.977209,128.435165 
	C39.161900,144.436539 51.518837,160.307465 63.615768,176.374481 
	C67.081795,180.978012 69.900993,186.068558 72.546478,190.950485 
	C59.258831,190.975494 46.441467,190.974670 33.624157,191.000183 
	C25.558771,191.016235 25.079294,191.430252 24.003939,199.575836 
	C20.126787,228.944382 16.228868,258.310394 12.485019,287.695984 
	C12.162705,290.225800 12.331351,293.132263 13.279840,295.451599 
	C16.237528,302.683929 20.025770,309.585327 22.821510,316.872284 
	C24.962633,322.453033 28.372927,324.150055 34.181999,324.114990 
	C70.635567,323.894867 107.091125,324.008270 143.546021,324.001678 
	C152.662354,324.000000 152.662338,323.983673 153.038696,314.955170 
	C153.317734,308.261261 154.491043,307.079285 161.000366,306.969971 
	C162.331573,306.947601 163.663620,306.973816 165.014862,307.370636 
	C166.064117,310.340302 166.677216,313.203217 168.210175,315.434052 
	C171.403839,320.081482 175.155579,324.340729 178.550995,328.855042 
	C188.547806,342.145996 198.354889,355.581482 208.470581,368.780823 
	C225.056992,390.423431 241.904465,411.865936 258.494110,433.506134 
	C269.309814,447.614563 279.951080,461.859283 290.501556,476.167542 
	C296.509796,484.315674 302.178467,492.714203 308.000000,501.000000 
z"/>
<path fill="#6F6F6F" opacity="1.000000" stroke="none" 
	d="
M258.000000,0.999998 
	C274.687561,1.000000 291.375122,1.000000 308.654053,1.323599 
	C309.978973,2.948983 310.573059,4.356306 311.466614,5.536961 
	C328.642181,28.230947 345.836670,50.910686 363.061829,73.567085 
	C375.448730,89.859695 387.882263,106.116898 400.302246,122.384346 
	C415.955292,142.886368 431.644684,163.360825 447.228851,183.915054 
	C448.806793,185.996231 449.769531,188.543854 450.552338,190.944626 
	C433.395172,190.962692 416.703400,190.911163 399.878143,190.551666 
	C398.844208,188.846588 398.033875,187.380798 397.029724,186.062653 
	C383.011566,167.661606 368.958710,149.287033 354.930939,130.893311 
	C338.782013,109.718231 322.616211,88.555870 306.520782,67.340172 
	C294.153595,51.038765 281.805695,34.721439 269.614716,18.288433 
	C265.482819,12.718752 261.857056,6.773579 258.000000,0.999998 
z"/>
<path fill="#797979" opacity="1.000000" stroke="none" 
	d="
M451.017731,190.875031 
	C449.769531,188.543854 448.806793,185.996231 447.228851,183.915054 
	C431.644684,163.360825 415.955292,142.886368 400.302246,122.384346 
	C387.882263,106.116898 375.448730,89.859695 363.061829,73.567085 
	C345.836670,50.910686 328.642181,28.230947 311.466614,5.536961 
	C310.573059,4.356306 309.978973,2.948983 309.122742,1.323599 
	C323.354218,1.000000 337.708466,1.000000 352.662048,1.318058 
	C361.227631,12.490647 369.072449,23.436821 377.183197,34.182251 
	C400.041107,64.465240 422.980194,94.687103 445.945343,124.888931 
	C456.113861,138.261642 466.445404,151.510239 476.656952,164.850403 
	C481.508942,171.188904 486.128479,177.708969 491.092010,183.957169 
	C494.162598,187.822479 497.682068,191.331207 501.000000,195.000000 
	C501.000000,212.687561 501.000000,230.375122 500.670288,248.433746 
	C496.991974,245.021210 493.715942,241.169662 490.265472,237.481323 
	C488.412018,235.500092 486.258972,233.799118 484.169983,231.577820 
	C483.430817,229.510269 482.762756,227.836594 481.977051,225.940170 
	C481.256805,225.147141 480.654236,224.576859 480.103760,223.624405 
	C480.689575,220.198715 481.854309,217.107117 481.626862,214.121567 
	C481.138397,207.710175 479.679535,201.375443 479.121460,194.965485 
	C478.821442,191.519928 477.229340,190.996307 474.339142,191.019196 
	C466.566193,191.080750 458.791656,190.937164 451.017731,190.875031 
z"/>
<path fill="#828282" opacity="1.000000" stroke="none" 
	d="
M501.000000,194.531342 
	C497.682068,191.331207 494.162598,187.822479 491.092010,183.957169 
	C486.128479,177.708969 481.508942,171.188904 476.656952,164.850403 
	C466.445404,151.510239 456.113861,138.261642 445.945343,124.888931 
	C422.980194,94.687103 400.041107,64.465240 377.183197,34.182251 
	C369.072449,23.436821 361.227631,12.490647 353.130737,1.318058 
	C369.020905,1.000000 385.041779,1.000000 401.606873,1.347678 
	C402.988220,3.302768 403.616425,5.068283 404.694550,6.493414 
	C416.921387,22.655481 429.250977,38.739784 441.485596,54.896000 
	C456.222717,74.356888 470.756134,93.974144 485.677704,113.292023 
	C490.280579,119.251068 495.864990,124.451973 501.000000,130.000000 
	C501.000000,151.354233 501.000000,172.708450 501.000000,194.531342 
z"/>
<path fill="#595959" opacity="1.000000" stroke="none" 
	d="
M150.000000,1.000000 
	C162.687561,1.000000 175.375122,1.000000 188.604736,1.347498 
	C190.025620,3.278588 190.744308,4.980567 191.811768,6.424743 
	C195.867355,11.911483 200.072449,17.287453 204.155045,22.754559 
	C216.602676,39.423454 228.918045,56.192226 241.482086,72.772713 
	C250.522156,84.702690 260.000702,96.300087 269.062988,108.213699 
	C281.653503,124.765648 294.041595,141.471680 306.508423,158.117691 
	C314.684326,169.034363 322.846252,179.961517 330.547546,190.939377 
	C317.391693,190.951263 304.702789,190.907745 291.903381,190.539215 
	C291.071381,188.909821 290.497833,187.493225 289.606293,186.317841 
	C274.722260,166.694778 259.764099,147.127899 244.892792,127.495262 
	C228.709366,106.130371 212.675507,84.651825 196.431427,63.333317 
	C183.316513,46.121452 169.928925,29.117435 156.800140,11.916013 
	C154.210861,8.523534 152.250443,4.651092 150.000000,1.000000 
z"/>
<path fill="#494949" opacity="1.000000" stroke="none" 
	d="
M56.000000,1.000000 
	C68.020897,1.000000 80.041786,1.000000 92.604820,1.352551 
	C94.870140,4.720114 96.302406,7.953487 98.370880,10.709341 
	C104.664337,19.094208 111.275864,27.239491 117.632385,35.578045 
	C132.867188,55.563255 148.009476,75.618965 163.221451,95.621620 
	C184.879974,124.101021 206.599503,152.534119 228.195297,181.060944 
	C230.473648,184.070526 232.096939,187.576004 233.555542,190.898743 
	C221.400070,190.910660 209.713196,190.875259 197.914261,190.515976 
	C192.551025,182.723404 187.513763,175.092834 182.007980,167.816803 
	C166.446625,147.252106 150.684570,126.839333 135.017502,106.354530 
	C113.176262,77.796928 91.293373,49.270840 69.560066,20.631285 
	C64.757179,14.302178 60.505493,7.554785 56.000000,1.000000 
z"/>
<path fill="#8A8A8A" opacity="1.000000" stroke="none" 
	d="
M501.000000,129.531342 
	C495.864990,124.451973 490.280579,119.251068 485.677704,113.292023 
	C470.756134,93.974144 456.222717,74.356888 441.485596,54.896000 
	C429.250977,38.739784 416.921387,22.655481 404.694550,6.493414 
	C403.616425,5.068283 402.988220,3.302768 402.075500,1.347678 
	C434.936554,1.000000 467.873138,1.000000 501.000000,1.000000 
	C501.000000,43.687374 501.000000,86.375031 501.000000,129.531342 
z"/>
<path fill="#434343" opacity="1.000000" stroke="none" 
	d="
M445.000000,501.000000 
	C433.645782,501.000000 422.291534,501.000000 410.339691,500.682312 
	C404.496246,493.081360 399.425568,485.664124 393.972839,478.539215 
	C375.255524,454.082001 356.329041,429.784729 337.625580,405.316925 
	C319.219635,381.238312 300.950256,357.054840 282.735107,332.831543 
	C280.776093,330.226410 279.577301,327.049622 278.491760,324.109558 
	C290.645416,324.093628 302.333191,324.106140 314.125671,324.447723 
	C316.367615,328.133453 318.271698,331.668457 320.680511,334.817413 
	C334.941772,353.460632 349.418549,371.939362 363.637421,390.614594 
	C388.557220,423.344635 413.388855,456.142212 438.120605,489.014435 
	C440.868805,492.667236 442.728333,496.988647 445.000000,501.000000 
z"/>
<path fill="#3E3E3E" opacity="1.000000" stroke="none" 
	d="
M1.000000,6.000000 
	C1.000000,4.354459 1.000000,2.708919 1.000000,1.000000 
	C10.687490,1.000000 20.375088,1.000000 30.654888,1.324345 
	C33.464191,5.165362 35.456123,8.850385 37.937641,12.169359 
	C48.301903,26.031322 58.770153,39.816250 69.280441,53.568157 
	C86.368324,75.926338 103.571686,98.196358 120.628716,120.577972 
	C138.697479,144.287155 156.584427,168.135376 174.753571,191.766937 
	C176.746201,194.358597 180.073929,195.923752 182.825897,198.415390 
	C182.462250,202.063568 184.606216,207.484116 179.919739,207.589355 
	C171.661118,207.774826 171.696289,212.850021 171.347763,218.412186 
	C171.264832,219.735687 171.433395,221.220047 170.882828,222.331467 
	C170.233917,223.641464 168.825653,225.616913 167.932266,225.523743 
	C166.540573,225.378601 164.581421,223.974701 164.148041,222.675491 
	C163.109055,219.560822 163.020737,216.140579 162.140121,212.956680 
	C161.699203,211.362488 160.557068,208.950287 159.400131,208.740738 
	C154.300919,207.817108 154.073212,204.054214 153.464645,200.227127 
	C152.031189,191.212692 151.987473,191.219650 142.943787,190.517609 
	C142.460983,189.272675 142.212509,188.249390 141.632248,187.474548 
	C134.351456,177.752319 127.071297,168.028900 119.696968,158.377609 
	C98.785622,131.009460 77.780731,103.712677 56.908806,76.314545 
	C40.165619,54.336124 23.603773,32.219444 6.823390,10.269665 
	C5.420678,8.434829 2.965956,7.404242 1.000000,6.000000 
z"/>
<path fill="#494949" opacity="1.000000" stroke="none" 
	d="
M445.468658,501.000000 
	C442.728333,496.988647 440.868805,492.667236 438.120605,489.014435 
	C413.388855,456.142212 388.557220,423.344635 363.637421,390.614594 
	C349.418549,371.939362 334.941772,353.460632 320.680511,334.817413 
	C318.271698,331.668457 316.367615,328.133453 314.591919,324.417450 
	C325.309265,324.079803 335.665100,324.101501 346.151154,324.431641 
	C359.282227,342.441895 372.095276,360.285522 385.332123,377.808990 
	C401.383270,399.058228 417.860107,419.985352 434.026184,441.148529 
	C447.976105,459.410492 461.766388,477.794617 475.564667,496.171753 
	C476.630096,497.590729 477.199860,499.381836 478.000000,501.000000 
	C467.312439,501.000000 456.624878,501.000000 445.468658,501.000000 
z"/>
<path fill="#545454" opacity="1.000000" stroke="none" 
	d="
M149.531342,1.000000 
	C152.250443,4.651092 154.210861,8.523534 156.800140,11.916013 
	C169.928925,29.117435 183.316513,46.121452 196.431427,63.333317 
	C212.675507,84.651825 228.709366,106.130371 244.892792,127.495262 
	C259.764099,147.127899 274.722260,166.694778 289.606293,186.317841 
	C290.497833,187.493225 291.071381,188.909821 291.436066,190.590790 
	C281.391144,190.928238 271.703033,190.889053 261.904083,190.523346 
	C259.250000,186.108719 257.019836,181.781845 254.113113,177.970978 
	C234.032486,151.644058 213.738037,125.480225 193.655396,99.154831 
	C174.482834,74.022400 155.452606,48.781090 136.427475,23.536648 
	C130.833252,16.113665 125.469421,8.517043 120.000000,1.000000 
	C129.687561,1.000000 139.375122,1.000000 149.531342,1.000000 
z"/>
<path fill="#696969" opacity="1.000000" stroke="none" 
	d="
M257.531342,0.999998 
	C261.857056,6.773579 265.482819,12.718752 269.614716,18.288433 
	C281.805695,34.721439 294.153595,51.038765 306.520782,67.340172 
	C322.616211,88.555870 338.782013,109.718231 354.930939,130.893311 
	C368.958710,149.287033 383.011566,167.661606 397.029724,186.062653 
	C398.033875,187.380798 398.844208,188.846588 399.468872,190.615494 
	C395.646912,190.771744 393.076080,191.496384 392.976471,195.936844 
	C392.951599,197.046219 391.082550,198.114212 389.858459,198.929688 
	C387.843445,197.430283 386.031097,196.202408 384.148163,194.572876 
	C382.886169,193.138382 381.804932,191.423523 380.481201,191.209641 
	C377.386444,190.709610 374.175232,190.929977 370.903320,190.526764 
	C369.064056,187.172806 367.628021,183.928116 365.548157,181.168671 
	C358.129059,171.325562 350.408478,161.710129 342.955414,151.892059 
	C331.474792,136.768356 320.180145,121.503510 308.697601,106.381287 
	C295.514069,89.018890 282.191864,71.761856 268.967621,54.430294 
	C259.279846,41.733593 249.561737,29.058104 240.045273,16.233561 
	C236.426254,11.356506 233.332932,6.089356 230.000000,0.999999 
	C239.020889,1.000000 248.041794,1.000000 257.531342,0.999998 
z"/>
<path fill="#505050" opacity="1.000000" stroke="none" 
	d="
M119.531342,1.000000 
	C125.469421,8.517043 130.833252,16.113665 136.427475,23.536648 
	C155.452606,48.781090 174.482834,74.022400 193.655396,99.154831 
	C213.738037,125.480225 234.032486,151.644058 254.113113,177.970978 
	C257.019836,181.781845 259.250000,186.108719 261.436401,190.572388 
	C252.061111,190.915787 243.042618,190.883606 234.024139,190.851425 
	C232.096939,187.576004 230.473648,184.070526 228.195297,181.060944 
	C206.599503,152.534119 184.879974,124.101021 163.221451,95.621620 
	C148.009476,75.618965 132.867188,55.563255 117.632385,35.578045 
	C111.275864,27.239491 104.664337,19.094208 98.370880,10.709341 
	C96.302406,7.953487 94.870140,4.720114 93.073479,1.352551 
	C101.687561,1.000000 110.375130,1.000000 119.531342,1.000000 
z"/>
<path fill="#3E3E3E" opacity="1.000000" stroke="none" 
	d="
M278.025879,324.138000 
	C279.577301,327.049622 280.776093,330.226410 282.735107,332.831543 
	C300.950256,357.054840 319.219635,381.238312 337.625580,405.316925 
	C356.329041,429.784729 375.255524,454.082001 393.972839,478.539215 
	C399.425568,485.664124 404.496246,493.081360 409.871033,500.682312 
	C400.312439,501.000000 390.624878,501.000000 380.394196,500.653381 
	C379.057556,498.866516 378.428802,497.301422 377.445984,496.004700 
	C360.956940,474.250183 344.409668,452.539825 327.903687,430.798126 
	C303.736206,398.964661 279.570892,367.129486 255.465622,335.248932 
	C252.781662,331.699249 250.494400,327.849670 248.489288,324.112793 
	C258.645569,324.103638 268.335724,324.120819 278.025879,324.138000 
z"/>
<path fill="#505050" opacity="1.000000" stroke="none" 
	d="
M478.468750,501.000000 
	C477.199860,499.381836 476.630096,497.590729 475.564667,496.171753 
	C461.766388,477.794617 447.976105,459.410492 434.026184,441.148529 
	C417.860107,419.985352 401.383270,399.058228 385.332123,377.808990 
	C372.095276,360.285522 359.282227,342.441895 346.617310,324.397522 
	C356.306427,324.077972 365.659637,324.100983 375.119202,324.450378 
	C375.835144,325.955231 376.288025,327.252594 377.078003,328.294281 
	C387.941742,342.619354 398.846191,356.913574 409.752045,371.206665 
	C425.607086,391.986145 441.509644,412.729462 457.318817,433.543762 
	C468.589691,448.383087 479.657410,463.377380 491.000641,478.160675 
	C493.980804,482.044617 497.648193,485.401215 501.000000,489.000000 
	C501.000000,492.949280 501.000000,496.898560 501.000000,501.000000 
	C493.646332,501.000000 486.291901,501.000000 478.468750,501.000000 
z"/>
<path fill="#434343" opacity="1.000000" stroke="none" 
	d="
M182.782440,197.965012 
	C180.073929,195.923752 176.746201,194.358597 174.753571,191.766937 
	C156.584427,168.135376 138.697479,144.287155 120.628716,120.577972 
	C103.571686,98.196358 86.368324,75.926338 69.280441,53.568157 
	C58.770153,39.816250 48.301903,26.031322 37.937641,12.169359 
	C35.456123,8.850385 33.464191,5.165362 31.123545,1.324345 
	C39.020901,1.000000 47.041798,1.000000 55.531349,1.000000 
	C60.505493,7.554785 64.757179,14.302178 69.560066,20.631285 
	C91.293373,49.270840 113.176262,77.796928 135.017502,106.354530 
	C150.684570,126.839333 166.446625,147.252106 182.007980,167.816803 
	C187.513763,175.092834 192.551025,182.723404 197.447754,190.558777 
	C194.942398,190.956039 192.791550,191.000351 190.640503,191.014694 
	C183.476547,191.062485 183.476517,191.058365 182.782440,197.965012 
z"/>
<path fill="#353535" opacity="1.000000" stroke="none" 
	d="
M356.000000,501.000000 
	C347.979095,501.000000 339.958191,501.000000 331.362732,500.665649 
	C329.670410,498.497498 328.684998,496.565735 327.412445,494.846558 
	C321.371643,486.685455 315.250671,478.583679 309.161804,470.458099 
	C300.476074,458.867157 291.872711,447.213501 283.090363,435.696289 
	C270.776947,419.548340 258.312531,403.515594 245.948685,387.406006 
	C237.341583,376.191315 228.680847,365.014923 220.255829,353.664215 
	C213.024017,343.921112 206.092499,333.955139 199.493881,324.072998 
	C208.315353,324.078278 216.671127,324.098297 225.131989,324.446838 
	C226.479446,326.928864 227.512894,329.239838 228.998276,331.210144 
	C238.320374,343.575623 247.783264,355.834900 257.124176,368.186340 
	C275.808777,392.892883 294.391144,417.676910 313.119385,442.350281 
	C326.104797,459.457794 339.311279,476.397552 352.285278,493.513611 
	C353.938446,495.694550 354.781586,498.489502 356.000000,501.000000 
z"/>
<path fill="#302D30" opacity="1.000000" stroke="none" 
	d="
M199.028168,324.087708 
	C206.092499,333.955139 213.024017,343.921112 220.255829,353.664215 
	C228.680847,365.014923 237.341583,376.191315 245.948685,387.406006 
	C258.312531,403.515594 270.776947,419.548340 283.090363,435.696289 
	C291.872711,447.213501 300.476074,458.867157 309.161804,470.458099 
	C315.250671,478.583679 321.371643,486.685455 327.412445,494.846558 
	C328.684998,496.565735 329.670410,498.497498 330.894073,500.665649 
	C323.645752,501.000000 316.291504,501.000000 308.468628,501.000000 
	C302.178467,492.714203 296.509796,484.315674 290.501556,476.167542 
	C279.951080,461.859283 269.309814,447.614563 258.494110,433.506134 
	C241.904465,411.865936 225.056992,390.423431 208.470581,368.780823 
	C198.354889,355.581482 188.547806,342.145996 178.550995,328.855042 
	C175.155579,324.340729 171.403839,320.081482 168.210175,315.434052 
	C166.677216,313.203217 166.064117,310.340302 165.481812,307.366333 
	C166.753387,306.965179 167.577637,306.964874 168.401810,306.956970 
	C182.763229,306.818878 181.624252,306.762207 182.798737,318.856445 
	C183.155777,322.533081 185.052460,324.059784 188.645203,323.989563 
	C192.104233,323.922028 195.567032,324.047211 199.028168,324.087708 
z"/>
<path fill="#606060" opacity="1.000000" stroke="none" 
	d="
M331.014465,190.883972 
	C322.846252,179.961517 314.684326,169.034363 306.508423,158.117691 
	C294.041595,141.471680 281.653503,124.765648 269.062988,108.213699 
	C260.000702,96.300087 250.522156,84.702690 241.482086,72.772713 
	C228.918045,56.192226 216.602676,39.423454 204.155045,22.754559 
	C200.072449,17.287453 195.867355,11.911483 191.811768,6.424743 
	C190.744308,4.980567 190.025620,3.278588 189.073395,1.347498 
	C196.020950,1.000000 203.041901,1.000000 210.660248,1.318062 
	C213.089096,4.412021 214.767761,7.303972 216.774979,9.946323 
	C244.665848,46.662632 272.563782,83.373680 300.541321,120.023956 
	C316.393188,140.789734 332.438263,161.408081 348.270630,182.188629 
	C350.245789,184.781082 351.448822,187.961807 352.543274,190.926483 
	C345.056091,190.949982 338.035278,190.916962 331.014465,190.883972 
z"/>
<path fill="#393939" opacity="1.000000" stroke="none" 
	d="
M356.468628,501.000000 
	C354.781586,498.489502 353.938446,495.694550 352.285278,493.513611 
	C339.311279,476.397552 326.104797,459.457794 313.119385,442.350281 
	C294.391144,417.676910 275.808777,392.892883 257.124176,368.186340 
	C247.783264,355.834900 238.320374,343.575623 228.998276,331.210144 
	C227.512894,329.239838 226.479446,326.928864 225.597778,324.425446 
	C233.313385,324.096710 240.668274,324.117950 248.023163,324.139160 
	C250.494400,327.849670 252.781662,331.699249 255.465622,335.248932 
	C279.570892,367.129486 303.736206,398.964661 327.903687,430.798126 
	C344.409668,452.539825 360.956940,474.250183 377.445984,496.004700 
	C378.428802,497.301422 379.057556,498.866516 379.925537,500.653381 
	C372.312408,501.000000 364.624847,501.000000 356.468628,501.000000 
z"/>
<path fill="#353535" opacity="1.000000" stroke="none" 
	d="
M1.000000,74.000000 
	C1.000000,61.645771 1.000000,49.291546 1.340154,36.550369 
	C3.910489,38.301796 6.460452,40.195564 8.315573,42.620823 
	C16.407068,53.199120 24.194262,64.010071 32.278511,74.594048 
	C57.849297,108.071541 83.563652,141.439590 109.060547,174.973083 
	C112.831451,179.932587 115.727386,185.557388 118.557381,190.903320 
	C109.068352,190.921188 100.050087,190.910126 90.920059,190.571930 
	C84.847260,182.051804 79.018074,173.758957 72.901543,165.683792 
	C50.782093,136.481262 28.589993,107.333603 6.327127,78.240356 
	C4.989180,76.491920 2.795494,75.398315 1.000000,74.000000 
z"/>
<path fill="#393939" opacity="1.000000" stroke="none" 
	d="
M119.028137,190.874374 
	C115.727386,185.557388 112.831451,179.932587 109.060547,174.973083 
	C83.563652,141.439590 57.849297,108.071541 32.278511,74.594048 
	C24.194262,64.010071 16.407068,53.199120 8.315573,42.620823 
	C6.460452,40.195564 3.910489,38.301796 1.340154,36.081711 
	C1.000000,26.312439 1.000000,16.624876 1.000000,6.468657 
	C2.965956,7.404242 5.420678,8.434829 6.823390,10.269665 
	C23.603773,32.219444 40.165619,54.336124 56.908806,76.314545 
	C77.780731,103.712677 98.785622,131.009460 119.696968,158.377609 
	C127.071297,168.028900 134.351456,177.752319 141.632248,187.474548 
	C142.212509,188.249390 142.460983,189.272675 142.473816,190.551102 
	C134.398697,190.905930 126.713417,190.890152 119.028137,190.874374 
z"/>
<path fill="#545454" opacity="1.000000" stroke="none" 
	d="
M501.000000,488.531342 
	C497.648193,485.401215 493.980804,482.044617 491.000641,478.160675 
	C479.657410,463.377380 468.589691,448.383087 457.318817,433.543762 
	C441.509644,412.729462 425.607086,391.986145 409.752045,371.206665 
	C398.846191,356.913574 387.941742,342.619354 377.078003,328.294281 
	C376.288025,327.252594 375.835144,325.955231 375.554993,324.410767 
	C380.300598,324.333954 384.113007,323.961243 385.062805,318.309113 
	C385.238251,317.265045 387.714325,316.140533 389.240143,315.950897 
	C390.295990,315.819672 392.554626,317.241486 392.547180,317.951233 
	C392.481903,324.195465 396.716766,324.121277 401.087402,324.460388 
	C401.645142,325.849213 401.957733,327.026581 402.635925,327.929230 
	C419.997864,351.037720 437.356995,374.148590 454.805664,397.191589 
	C466.942596,413.219849 479.135590,429.207184 491.479523,445.075928 
	C494.279053,448.674866 497.807220,451.706970 501.000000,455.000000 
	C501.000000,466.020905 501.000000,477.041779 501.000000,488.531342 
z"/>
<path fill="#646464" opacity="1.000000" stroke="none" 
	d="
M353.009613,190.869965 
	C351.448822,187.961807 350.245789,184.781082 348.270630,182.188629 
	C332.438263,161.408081 316.393188,140.789734 300.541321,120.023956 
	C272.563782,83.373680 244.665848,46.662632 216.774979,9.946323 
	C214.767761,7.303972 213.089096,4.412021 211.128830,1.318062 
	C217.021149,1.000000 223.042297,1.000000 229.531723,0.999999 
	C233.332932,6.089356 236.426254,11.356506 240.045273,16.233561 
	C249.561737,29.058104 259.279846,41.733593 268.967621,54.430294 
	C282.191864,71.761856 295.514069,89.018890 308.697601,106.381287 
	C320.180145,121.503510 331.474792,136.768356 342.955414,151.892059 
	C350.408478,161.710129 358.129059,171.325562 365.548157,181.168671 
	C367.628021,183.928116 369.064056,187.172806 370.437927,190.586884 
	C364.390137,190.942551 358.699860,190.906265 353.009613,190.869965 
z"/>
<path fill="#595959" opacity="1.000000" stroke="none" 
	d="
M501.000000,454.531342 
	C497.807220,451.706970 494.279053,448.674866 491.479523,445.075928 
	C479.135590,429.207184 466.942596,413.219849 454.805664,397.191589 
	C437.356995,374.148590 419.997864,351.037720 402.635925,327.929230 
	C401.957733,327.026581 401.645142,325.849213 401.553650,324.418518 
	C411.635132,324.065704 421.325073,324.094238 431.139587,324.438477 
	C436.581116,332.152313 441.762115,339.652771 447.240662,346.929230 
	C463.196777,368.121735 479.236755,389.251495 495.360474,410.316589 
	C496.808411,412.208313 499.100128,413.454193 501.000000,415.000000 
	C501.000000,428.020905 501.000000,441.041779 501.000000,454.531342 
z"/>
<path fill="#302D30" opacity="1.000000" stroke="none" 
	d="
M1.000000,74.468636 
	C2.795494,75.398315 4.989180,76.491920 6.327127,78.240356 
	C28.589993,107.333603 50.782093,136.481262 72.901543,165.683792 
	C79.018074,173.758957 84.847260,182.051804 90.449280,190.594986 
	C84.399101,190.942062 78.707939,190.938934 73.016777,190.935791 
	C69.900993,186.068558 67.081795,180.978012 63.615768,176.374481 
	C51.518837,160.307465 39.161900,144.436539 26.977209,128.435165 
	C20.333616,119.710548 13.927083,110.804031 7.199956,102.145561 
	C5.863857,100.425873 3.554729,99.462173 1.347150,98.074928 
	C1.000000,90.312424 1.000000,82.624847 1.000000,74.468636 
z"/>
<path fill="#606060" opacity="1.000000" stroke="none" 
	d="
M501.000000,414.531342 
	C499.100128,413.454193 496.808411,412.208313 495.360474,410.316589 
	C479.236755,389.251495 463.196777,368.121735 447.240662,346.929230 
	C441.762115,339.652771 436.581116,332.152313 431.605286,324.394623 
	C438.300995,324.070099 444.655548,324.105164 451.086914,324.477661 
	C451.650330,325.861694 451.971008,327.032654 452.648285,327.936432 
	C464.693451,344.009094 476.668518,360.136719 488.931488,376.042206 
	C492.519867,380.696472 496.953674,384.698853 501.000000,389.000000 
	C501.000000,397.354218 501.000000,405.708466 501.000000,414.531342 
z"/>
<path fill="#646464" opacity="1.000000" stroke="none" 
	d="
M501.000000,388.531342 
	C496.953674,384.698853 492.519867,380.696472 488.931488,376.042206 
	C476.668518,360.136719 464.693451,344.009094 452.648285,327.936432 
	C451.971008,327.032654 451.650330,325.861694 451.552643,324.427673 
	C459.964844,324.073303 467.988037,324.106323 476.119812,324.464447 
	C480.884277,331.405731 485.323029,338.190338 490.274261,344.577606 
	C493.459808,348.687164 497.398712,352.212708 501.000000,356.000000 
	C501.000000,366.687561 501.000000,377.375122 501.000000,388.531342 
z"/>
<path fill="#6F6F6F" opacity="1.000000" stroke="none" 
	d="
M484.241089,231.971695 
	C486.258972,233.799118 488.412018,235.500092 490.265472,237.481323 
	C493.715942,241.169662 496.991974,245.021210 500.670288,248.902405 
	C501.000000,272.687561 501.000000,296.375122 500.671448,320.431122 
	C495.834503,315.414948 491.326050,310.030334 486.881348,304.303040 
	C491.714996,295.721954 491.431885,286.947540 490.144165,277.891235 
	C487.971924,262.613800 486.188232,247.281143 484.241089,231.971695 
z"/>
<path fill="#696969" opacity="1.000000" stroke="none" 
	d="
M486.817627,304.645721 
	C491.326050,310.030334 495.834503,315.414948 500.671448,320.899780 
	C501.000000,332.354218 501.000000,343.708466 501.000000,355.531342 
	C497.398712,352.212708 493.459808,348.687164 490.274261,344.577606 
	C485.323029,338.190338 480.884277,331.405731 476.454224,324.351379 
	C477.825226,322.201385 479.158936,320.584564 480.078522,318.759125 
	C482.423431,314.104309 484.583588,309.356384 486.817627,304.645721 
z"/>
<path fill="#201B1E" opacity="1.000000" stroke="none" 
	d="
M486.881348,304.303040 
	C484.583588,309.356384 482.423431,314.104309 480.078522,318.759125 
	C479.158936,320.584564 477.825226,322.201385 476.345703,324.026276 
	C467.988037,324.106323 459.964844,324.073303 451.475891,324.090271 
	C444.655548,324.105164 438.300995,324.070099 431.480713,324.078918 
	C421.325073,324.094238 411.635132,324.065704 401.478912,324.079041 
	C396.716766,324.121277 392.481903,324.195465 392.547180,317.951233 
	C392.554626,317.241486 390.295990,315.819672 389.240143,315.950897 
	C387.714325,316.140533 385.238251,317.265045 385.062805,318.309113 
	C384.113007,323.961243 380.300598,324.333954 375.448669,324.084381 
	C365.659637,324.100983 356.306427,324.077972 346.487061,324.089081 
	C335.665100,324.101501 325.309265,324.079803 314.487213,324.088348 
	C302.333191,324.106140 290.645416,324.093628 278.491760,324.109558 
	C268.335724,324.120819 258.645569,324.103638 248.489288,324.112793 
	C240.668274,324.117950 233.313385,324.096710 225.492691,324.096924 
	C216.671127,324.098297 208.315353,324.078278 199.493881,324.072998 
	C195.567032,324.047211 192.104233,323.922028 188.645203,323.989563 
	C185.052460,324.059784 183.155777,322.533081 182.798737,318.856445 
	C181.624252,306.762207 182.763229,306.818878 168.401810,306.956970 
	C167.577637,306.964874 166.753387,306.965179 165.462219,306.973358 
	C163.663620,306.973816 162.331573,306.947601 161.000366,306.969971 
	C154.491043,307.079285 153.317734,308.261261 153.038696,314.955170 
	C152.662338,323.983673 152.662354,324.000000 143.546021,324.001678 
	C107.091125,324.008270 70.635567,323.894867 34.181999,324.114990 
	C28.372927,324.150055 24.962633,322.453033 22.821510,316.872284 
	C20.025770,309.585327 16.237528,302.683929 13.279840,295.451599 
	C12.331351,293.132263 12.162705,290.225800 12.485019,287.695984 
	C16.228868,258.310394 20.126787,228.944382 24.003939,199.575836 
	C25.079294,191.430252 25.558771,191.016235 33.624157,191.000183 
	C46.441467,190.974670 59.258831,190.975494 72.546478,190.950485 
	C78.707939,190.938934 84.399101,190.942062 90.561035,190.922150 
	C100.050087,190.910126 109.068352,190.921188 118.557381,190.903320 
	C126.713417,190.890152 134.398697,190.905930 142.553940,190.888214 
	C151.987473,191.219650 152.031189,191.212692 153.464645,200.227127 
	C154.073212,204.054214 154.300919,207.817108 159.400131,208.740738 
	C160.557068,208.950287 161.699203,211.362488 162.140121,212.956680 
	C163.020737,216.140579 163.109055,219.560822 164.148041,222.675491 
	C164.581421,223.974701 166.540573,225.378601 167.932266,225.523743 
	C168.825653,225.616913 170.233917,223.641464 170.882828,222.331467 
	C171.433395,221.220047 171.264832,219.735687 171.347763,218.412186 
	C171.696289,212.850021 171.661118,207.774826 179.919739,207.589355 
	C184.606216,207.484116 182.462250,202.063568 182.825897,198.415390 
	C183.476517,191.058365 183.476547,191.062485 190.640503,191.014694 
	C192.791550,191.000351 194.942398,190.956039 197.559845,190.882660 
	C209.713196,190.875259 221.400070,190.910660 233.555542,190.898743 
	C243.042618,190.883606 252.061111,190.915787 261.547241,190.898926 
	C271.703033,190.889053 281.391144,190.928238 291.546570,190.915817 
	C304.702789,190.907745 317.391693,190.951263 330.547546,190.939362 
	C338.035278,190.916962 345.056091,190.949982 352.543274,190.926483 
	C358.699860,190.906265 364.390137,190.942551 370.545776,190.918732 
	C374.175232,190.929977 377.386444,190.709610 380.481201,191.209641 
	C381.804932,191.423523 382.886169,193.138382 384.105957,194.937622 
	C384.288696,199.956253 387.004059,199.868240 390.061096,199.201233 
	C391.082550,198.114212 392.951599,197.046219 392.976471,195.936844 
	C393.076080,191.496384 395.646912,190.771744 399.602356,190.923431 
	C416.703400,190.911163 433.395172,190.962692 450.552338,190.944626 
	C458.791656,190.937164 466.566193,191.080750 474.339142,191.019196 
	C477.229340,190.996307 478.821442,191.519928 479.121460,194.965485 
	C479.679535,201.375443 481.138397,207.710175 481.626862,214.121567 
	C481.854309,217.107117 480.689575,220.198715 479.929657,223.852631 
	C480.500519,225.029663 481.297607,225.596298 482.094666,226.162933 
	C482.762756,227.836594 483.430817,229.510269 484.169983,231.577820 
	C486.188232,247.281143 487.971924,262.613800 490.144165,277.891235 
	C491.431885,286.947540 491.714996,295.721954 486.881348,304.303040 
M217.161011,198.743164 
	C208.449066,198.776184 199.737137,198.809204 190.468170,198.873337 
	C189.652405,202.389587 188.252579,205.891739 188.167313,209.425629 
	C188.058380,213.939957 186.813690,216.339279 181.934433,215.924286 
	C178.338791,215.618454 176.934357,217.501068 177.009445,221.015503 
	C177.101028,225.302155 176.915176,229.594711 175.934525,233.924652 
	C169.049881,233.859940 162.165253,233.795227 155.297028,232.884048 
	C155.518509,229.257248 155.675919,225.625076 155.978729,222.005081 
	C156.310516,218.038696 155.179016,215.545258 150.603607,215.832504 
	C147.157120,216.048889 145.899399,214.054428 146.021408,210.865738 
	C146.135208,207.891693 146.446182,204.899414 146.213486,201.951218 
	C146.126114,200.844330 144.752487,199.838974 143.035019,198.715652 
	C134.701706,198.738617 126.368385,198.761597 117.423508,198.715881 
	C116.594574,200.425934 115.186478,202.082764 115.023712,203.854034 
	C112.635391,229.845856 110.369682,255.849350 108.214752,281.861664 
	C107.986588,284.615875 108.640175,287.443085 108.920097,291.027252 
	C109.921593,294.530273 110.923088,298.033295 111.942551,302.486084 
	C112.783623,306.530029 113.279243,310.695557 114.637939,314.557373 
	C115.171890,316.074982 117.594650,317.831299 119.228333,317.905090 
	C127.025482,318.257324 134.847260,318.038055 142.659851,318.087738 
	C145.791672,318.107666 146.889450,316.635956 146.188644,313.687897 
	C145.113831,309.166626 144.006134,304.653168 142.919846,299.307648 
	C142.253189,296.173004 141.586517,293.038361 141.030609,289.061218 
	C141.123199,288.235870 141.250687,287.412750 141.303085,286.584869 
	C141.921646,276.810425 142.575455,267.037811 143.116287,257.259003 
	C143.332016,253.358490 145.090118,251.685913 149.101349,251.776459 
	C153.190018,251.868759 154.141571,253.999680 154.041367,257.533203 
	C153.914383,262.010590 154.013779,266.494385 153.998779,271.847809 
	C154.402939,274.630188 154.807098,277.412598 155.334930,280.958862 
	C155.569611,282.767609 155.872421,284.570496 156.028076,286.386017 
	C157.192612,299.968323 157.183502,299.969788 170.685760,299.913483 
	C171.847137,299.908630 173.009216,299.853210 174.169678,299.879059 
	C178.177475,299.968292 179.480240,297.944122 178.763870,294.187195 
	C177.801071,289.137787 176.911469,284.074402 175.982376,278.198914 
	C175.652084,275.795502 175.321793,273.392090 175.073364,270.111176 
	C175.395065,265.466034 175.804581,260.824829 176.011658,256.174591 
	C176.188889,252.195038 178.763672,251.808212 181.859222,251.817398 
	C185.004807,251.826752 187.026199,252.866501 186.873383,256.423584 
	C186.673676,261.072083 186.484756,265.721741 186.360168,270.372711 
	C186.183914,276.951874 186.070694,283.532715 185.950577,290.979706 
	C186.358902,294.000916 186.767227,297.022156 187.195282,300.902893 
	C187.471344,305.034943 187.799088,309.164368 188.007004,313.299835 
	C188.171326,316.567688 189.816925,318.081909 193.054626,318.072662 
	C200.845154,318.050446 208.636185,318.028259 216.426254,318.094391 
	C219.791275,318.122955 220.711090,316.506927 220.329941,313.380310 
	C219.749222,308.616669 219.415833,303.822937 219.003525,298.126770 
	C218.941483,295.345825 218.879440,292.564911 218.857208,288.874420 
	C219.182007,267.597717 219.506790,246.321014 219.923645,224.113968 
	C219.929779,220.084000 219.935913,216.054016 219.990463,211.264847 
	C219.971512,210.505295 219.952560,209.745758 219.962875,208.102066 
	C219.344574,205.015305 218.726273,201.928528 217.161011,198.743164 
M379.068024,206.080078 
	C377.737732,203.799805 380.619324,199.745712 375.083344,198.751984 
	C356.066986,198.764511 337.050629,198.777054 317.424316,198.720825 
	C316.694366,200.108444 315.338013,201.497818 315.341888,202.883392 
	C315.359467,209.195007 315.782135,215.504700 316.017914,221.816635 
	C316.861969,244.411255 317.689270,267.006500 318.373657,290.512177 
	C317.973663,294.421570 317.573669,298.330933 317.026550,303.003113 
	C316.485291,306.451843 315.939880,309.899933 315.404022,313.349487 
	C314.930023,316.400757 315.926544,318.098694 319.330505,318.089569 
	C337.629303,318.040558 355.929749,318.166168 374.224701,317.896393 
	C375.868073,317.872131 378.389771,315.753235 378.925568,314.096710 
	C380.398010,309.544128 381.030487,304.719879 382.371155,299.364105 
	C382.943573,296.294464 383.516022,293.224854 384.259033,289.468933 
	C384.179535,286.647766 384.100037,283.826569 384.915039,280.962494 
	C395.236328,280.781128 395.570343,280.379059 394.678253,270.213593 
	C393.997803,262.459778 393.475616,254.691925 392.776428,246.939941 
	C391.661377,234.577164 390.457672,222.222412 389.223938,209.196854 
	C386.708191,204.900726 382.517273,207.849899 379.068024,206.080078 
M470.082886,198.759140 
	C447.400330,198.767532 424.717773,198.775925 401.472900,198.740540 
	C400.837799,200.204758 399.561371,201.716904 399.666656,203.125763 
	C400.729675,217.349594 402.135132,231.548019 403.174774,245.773285 
	C403.493134,250.129471 405.126770,251.927261 409.610291,251.842438 
	C420.226624,251.641602 430.851196,251.902542 441.469299,251.753418 
	C445.673096,251.694366 447.562744,253.563950 447.846802,257.557617 
	C448.164185,262.020813 448.544891,266.479492 447.976440,270.956299 
	C434.993591,271.003357 422.010742,271.050446 408.325775,271.080658 
	C407.493683,272.385071 405.925232,273.709442 405.959869,274.990417 
	C406.093628,279.936768 406.739197,284.869293 407.023102,290.566406 
	C406.414856,292.779755 405.806610,294.993073 404.995331,297.896851 
	C404.085541,300.979492 403.175720,304.062164 402.005280,307.844574 
	C401.497589,309.426941 401.068268,311.039734 400.467255,312.585815 
	C398.785217,316.912628 400.487061,318.133698 404.785156,318.106232 
	C425.604156,317.973297 446.425049,317.963928 467.243774,318.116455 
	C471.158325,318.145111 473.514008,316.929443 474.729095,313.149841 
	C476.051514,309.036224 477.682037,305.021667 479.663330,300.503662 
	C481.103455,296.995178 482.543610,293.486664 484.034729,289.066284 
	C482.001465,271.891113 480.021088,254.709167 477.825104,237.554840 
	C477.665710,236.309692 475.939331,235.265121 474.016022,234.050339 
	C461.014191,234.031036 448.012329,234.011734 434.774017,233.200775 
	C434.115479,227.462173 433.456970,221.723557 433.770844,215.971161 
	C445.426666,215.963242 457.082825,215.997681 468.737976,215.905487 
	C470.670990,215.890198 472.599670,215.322159 474.469818,214.074036 
	C474.173737,210.345413 474.080841,206.583618 473.480377,202.904678 
	C473.244385,201.459045 471.873169,200.198746 470.082886,198.759140 
M301.160767,198.741318 
	C278.446136,198.775299 255.731522,198.809280 232.436249,198.920456 
	C231.950729,200.712936 231.077972,202.497116 231.039352,204.299179 
	C230.630569,223.371201 230.219177,242.445328 230.116364,261.520538 
	C230.080978,268.090363 230.906296,274.664795 231.182205,282.086670 
	C231.023331,283.806854 230.864471,285.527069 230.504379,287.594849 
	C230.356323,288.384033 230.208267,289.173218 230.042862,290.854218 
	C230.347122,294.204742 230.651367,297.555298 230.942749,301.860229 
	C230.923569,305.678802 230.947388,309.498260 230.872208,313.315735 
	C230.806656,316.643005 232.310516,318.108643 235.680862,318.100769 
	C257.113892,318.050629 278.547180,318.051758 299.980194,318.110321 
	C303.287781,318.119354 304.876984,316.728516 305.038696,313.434082 
	C305.241760,309.296844 305.586304,305.166565 306.194946,300.288391 
	C306.497711,296.886627 306.800476,293.484894 307.228302,289.681183 
	C307.211304,289.135986 307.194305,288.590790 307.176178,287.102600 
	C306.865601,276.827484 306.575592,266.551666 306.239105,256.277405 
	C305.843079,244.186111 305.406799,232.096115 305.012695,219.206619 
	C304.988220,218.141846 304.963776,217.077087 305.001099,215.118454 
	C304.961731,212.727524 304.922333,210.336578 304.909546,207.139801 
	C303.975677,204.372681 303.041779,201.605576 301.160767,198.741318 
M101.668159,306.336700 
	C100.713844,303.295135 99.759521,300.253601 98.616982,296.485962 
	C98.015404,294.257996 97.413826,292.029999 96.886337,288.977631 
	C99.420837,260.178680 101.989136,231.382538 104.369789,202.570877 
	C104.467934,201.383026 102.806366,200.049805 101.034508,198.714783 
	C78.364716,198.757202 55.694923,198.799606 32.466370,198.856003 
	C31.664068,200.536285 30.363646,202.152710 30.138723,203.907013 
	C28.428310,217.247513 26.922644,230.614304 25.363974,243.974167 
	C23.574991,259.308136 21.797092,274.643372 20.173651,290.706604 
	C21.674692,294.125549 23.175735,297.544464 24.930902,301.714783 
	C26.124657,304.979248 27.537472,308.183014 28.462536,311.521942 
	C29.976385,316.985992 33.432106,318.321594 38.853374,318.227875 
	C57.112465,317.912231 75.380447,318.084259 93.644936,318.116455 
	C106.813736,318.139679 105.360138,318.652283 101.668159,306.336700 
z"/>
<path fill="#6F6F6F" opacity="1.000000" stroke="none" 
	d="
M481.977051,225.940186 
	C481.297607,225.596298 480.500519,225.029663 479.877563,224.234802 
	C480.654236,224.576859 481.256805,225.147141 481.977051,225.940186 
z"/>
<path fill="#606060" opacity="1.000000" stroke="none" 
	d="
M389.858459,198.929688 
	C387.004059,199.868240 384.288696,199.956253 384.176514,195.339294 
	C386.031097,196.202408 387.843445,197.430283 389.858459,198.929688 
z"/>
<path fill="#494949" opacity="1.000000" stroke="none" 
	d="
M176.849304,233.884720 
	C176.915176,229.594711 177.101028,225.302155 177.009445,221.015503 
	C176.934357,217.501068 178.338791,215.618454 181.934433,215.924286 
	C186.813690,216.339279 188.058380,213.939957 188.167313,209.425629 
	C188.252579,205.891739 189.652405,202.389587 190.749146,199.178436 
	C191.031921,199.908081 191.033722,200.332626 191.027313,201.235535 
	C191.015305,205.807831 191.011490,209.901779 190.927307,214.359344 
	C189.374619,215.800659 188.031937,217.509628 186.406845,217.843323 
	C180.396500,219.077560 179.791351,219.627594 180.033386,226.042801 
	C180.252182,231.841522 181.847855,233.743973 187.353088,233.898270 
	C194.324295,234.093628 201.305511,233.900879 208.280411,234.007385 
	C212.581909,234.073059 215.628250,232.678177 217.004257,228.236435 
	C217.387543,226.999176 218.859222,226.099075 219.831589,225.044312 
	C219.506790,246.321014 219.182007,267.597717 218.554535,289.262695 
	C217.505463,289.064087 216.759033,288.477203 216.010239,287.431885 
	C215.987854,279.353516 215.965286,271.733551 215.948975,264.113617 
	C215.941528,260.630188 214.502777,258.260681 210.774338,258.176056 
	C205.479782,258.055847 200.134293,257.773987 194.906754,258.384705 
	C193.024490,258.604553 190.064957,261.085876 189.917953,262.741272 
	C189.177094,271.082703 189.202713,279.492249 188.769760,288.133850 
	C187.696976,288.964203 186.813766,289.538513 185.930542,290.112854 
	C186.070694,283.532715 186.183914,276.951874 186.360168,270.372711 
	C186.484756,265.721741 186.673676,261.072083 186.873383,256.423584 
	C187.026199,252.866501 185.004807,251.826752 181.859222,251.817398 
	C178.763672,251.808212 176.188889,252.195038 176.011658,256.174591 
	C175.804581,260.824829 175.395065,265.466034 174.737793,270.451538 
	C173.614960,270.161652 172.827682,269.531403 172.154907,268.518066 
	C172.441559,265.003540 172.983994,261.837891 172.698898,258.748657 
	C172.272720,254.130722 168.829178,252.997513 164.774429,253.063614 
	C160.719650,253.129730 157.550552,254.310104 157.090775,259.040009 
	C156.769714,262.342834 156.360901,265.637146 155.841125,269.181183 
	C155.132477,269.943237 154.574020,270.459351 154.015564,270.975433 
	C154.013779,266.494385 153.914383,262.010590 154.041367,257.533203 
	C154.141571,253.999680 153.190018,251.868759 149.101349,251.776459 
	C145.090118,251.685913 143.332016,253.358490 143.116287,257.259003 
	C142.575455,267.037811 141.921646,276.810425 141.303085,286.584869 
	C141.250687,287.412750 141.123199,288.235870 140.698395,289.376556 
	C139.591187,289.087952 138.816223,288.484039 138.159027,287.500000 
	C138.831192,282.422638 139.385544,277.725372 139.947998,272.559875 
	C139.953094,268.601349 139.946960,265.111145 139.947891,261.620911 
	C139.948975,257.606934 137.953568,255.298370 133.949509,255.178619 
	C129.138092,255.034698 124.307632,254.996307 119.504913,255.263199 
	C115.732048,255.472870 113.420563,257.614227 113.092033,261.595642 
	C112.777916,265.402557 112.374504,269.202148 112.007233,273.458069 
	C111.665512,278.571503 111.326897,283.231750 110.824013,288.160645 
	C110.068062,289.031647 109.476364,289.634033 108.884689,290.236450 
	C108.640175,287.443085 107.986588,284.615875 108.214752,281.861664 
	C110.369682,255.849350 112.635391,229.845856 115.023712,203.854034 
	C115.186478,202.082764 116.594574,200.425934 117.730164,199.069214 
	C118.037659,199.847397 118.038506,200.272247 117.990959,201.147034 
	C117.617851,205.730164 117.293144,209.863388 116.830505,214.382812 
	C116.539383,218.730530 115.941071,222.748001 116.429207,226.628830 
	C116.657913,228.447067 118.921646,231.386490 120.367889,231.450516 
	C129.637085,231.860855 138.958893,231.991638 148.213699,231.415726 
	C152.520218,231.147736 152.944244,226.976868 152.960129,223.283157 
	C152.975235,219.770691 151.176163,218.505676 147.846207,217.834717 
	C146.043701,217.471542 144.598953,215.332718 143.006531,213.562866 
	C143.338074,209.008331 143.655930,204.885864 143.970245,200.434174 
	C143.966248,199.665756 143.965759,199.226532 143.965271,198.787323 
	C144.752487,199.838974 146.126114,200.844330 146.213486,201.951218 
	C146.446182,204.899414 146.135208,207.891693 146.021408,210.865738 
	C145.899399,214.054428 147.157120,216.048889 150.603607,215.832504 
	C155.179016,215.545258 156.310516,218.038696 155.978729,222.005081 
	C155.675919,225.625076 155.518509,229.257248 155.150269,233.490906 
	C155.351974,234.660873 155.692139,235.709030 156.050079,235.715149 
	C162.632950,235.827484 169.218414,235.845627 175.801254,235.746155 
	C176.159897,235.740723 176.500381,234.532867 176.849304,233.884720 
z"/>
<path fill="#494949" opacity="1.000000" stroke="none" 
	d="
M101.964630,198.784317 
	C102.806366,200.049805 104.467934,201.383026 104.369789,202.570877 
	C101.989136,231.382538 99.420837,260.178680 96.397263,289.404785 
	C70.610252,289.880646 45.312317,289.929352 20.014381,289.978058 
	C21.797092,274.643372 23.574991,259.308136 25.363974,243.974167 
	C26.922644,230.614304 28.428310,217.247513 30.138723,203.907013 
	C30.363646,202.152710 31.664068,200.536285 32.747452,199.174438 
	C33.026867,199.926361 33.025200,200.359833 33.000137,201.240845 
	C32.328262,206.785873 31.679783,211.883347 31.014816,217.412354 
	C30.949879,218.675476 30.933855,219.510452 30.848080,220.338211 
	C29.713682,231.285248 30.353891,231.989273 41.497940,232.004532 
	C41.664566,232.004761 41.831188,232.004532 41.997814,232.004669 
	C56.296669,232.015625 57.011528,231.344482 58.252098,216.857407 
	C59.267159,216.473801 60.017700,216.225189 60.709503,216.383575 
	C60.213642,220.763611 59.747162,224.733658 59.344681,228.710175 
	C57.920155,242.784576 56.517502,256.861176 54.832352,270.969788 
	C54.374901,271.020538 54.191658,271.038422 53.765335,270.805573 
	C53.216984,268.828339 52.712601,267.108429 52.655460,265.373749 
	C52.579258,263.060669 52.992363,260.733215 52.944801,258.417084 
	C52.828178,252.738342 51.418186,251.255997 45.903503,251.061615 
	C42.253540,250.932968 38.591537,250.932449 34.941708,251.063461 
	C29.443668,251.260803 27.298786,253.188354 26.268190,258.748108 
	C25.451107,263.156036 24.760553,267.587402 24.011452,272.457642 
	C23.818256,275.720490 23.763432,278.551636 23.402168,281.343109 
	C22.950853,284.830444 24.098116,286.926880 27.808895,286.932373 
	C48.571533,286.963104 69.334244,286.954865 90.096909,286.942291 
	C93.397141,286.940308 94.786606,285.106659 94.978020,281.925995 
	C95.177170,278.616760 95.623817,275.322388 95.971535,271.561096 
	C96.208382,267.305084 96.428391,263.509064 96.665367,259.714081 
	C96.966438,254.892456 95.095116,252.469666 90.273155,252.159012 
	C86.152138,251.893524 82.000389,252.022736 77.864288,252.094955 
	C72.962372,252.180542 70.533318,254.638153 69.732887,259.618683 
	C69.102097,263.543640 67.299622,267.280243 65.961441,270.990967 
	C65.905312,270.881378 65.810822,270.653992 65.845490,270.230621 
	C67.654099,251.864151 69.428040,233.921036 71.510406,216.106110 
	C75.491081,220.538132 80.279587,221.528366 85.650383,221.051697 
	C87.952362,220.847366 90.290901,220.900696 92.604385,221.012100 
	C97.519203,221.248810 99.968048,218.826660 100.473213,214.083847 
	C100.946236,209.642761 101.480377,205.208176 101.981575,200.439819 
	C101.971893,199.667374 101.968262,199.225845 101.964630,198.784317 
z"/>
<path fill="#302D30" opacity="1.000000" stroke="none" 
	d="
M405.198364,297.206421 
	C405.806610,294.993073 406.414856,292.779755 407.449738,290.181152 
	C409.231476,289.155945 410.586578,288.515991 412.413635,287.895142 
	C435.274139,287.893921 457.662659,287.873596 480.262756,288.102081 
	C481.644165,288.893341 482.813934,289.435760 483.983734,289.978180 
	C482.543610,293.486664 481.103455,296.995178 479.135864,300.936279 
	C476.439270,305.063904 474.060303,308.655304 472.167297,312.486786 
	C470.652283,315.553284 468.619110,316.997742 465.172882,316.985107 
	C446.347473,316.916107 427.521454,317.006165 408.696136,316.926666 
	C403.309326,316.903931 402.342072,315.332733 403.898071,310.016235 
	C404.178711,309.057220 404.502014,308.110687 404.928345,306.780273 
	C405.100189,303.336945 405.149261,300.271667 405.198364,297.206421 
z"/>
<path fill="#302D30" opacity="1.000000" stroke="none" 
	d="
M230.955627,300.905823 
	C230.651367,297.555298 230.347122,294.204742 230.514252,290.418396 
	C256.358185,290.016113 281.730682,290.049622 307.103210,290.083130 
	C306.800476,293.484894 306.497711,296.886627 305.782562,300.888916 
	C304.299225,304.909668 302.838043,308.265930 302.264526,311.767609 
	C301.663025,315.439972 300.004272,316.941254 296.364716,316.929840 
	C277.439667,316.870422 258.514191,316.859375 239.589279,316.934967 
	C235.566116,316.951019 234.178619,315.081635 233.727142,311.249207 
	C233.313873,307.741272 231.918335,304.349030 230.955627,300.905823 
z"/>
<path fill="#302D30" opacity="1.000000" stroke="none" 
	d="
M20.094015,290.342346 
	C45.312317,289.929352 70.610252,289.880646 96.360214,289.817017 
	C97.413826,292.029999 98.015404,294.257996 98.503235,297.053101 
	C98.828903,300.680908 99.268326,303.741577 99.733765,307.237000 
	C100.792648,316.917572 100.792648,316.924377 91.392326,316.927673 
	C75.430824,316.933228 59.459507,316.602142 43.512348,317.080414 
	C36.535313,317.289673 32.236233,315.374146 29.976902,308.506104 
	C29.058046,305.712952 26.492887,303.461395 24.676785,300.963409 
	C23.175735,297.544464 21.674692,294.125549 20.094015,290.342346 
z"/>
<path fill="#494949" opacity="1.000000" stroke="none" 
	d="
M484.009216,289.522217 
	C482.813934,289.435760 481.644165,288.893341 480.380676,287.743225 
	C479.858337,281.422882 479.429657,275.710236 478.993469,269.565826 
	C478.591553,265.842773 478.260651,262.542236 477.786591,259.262451 
	C477.201263,255.212784 474.804291,253.102722 470.686432,253.071320 
	C466.207794,253.037201 461.728394,253.087280 457.250153,253.032135 
	C452.773041,252.977036 450.897919,255.400024 451.082642,259.583801 
	C451.250549,263.387817 451.668335,267.180847 451.591339,270.977966 
	C450.437134,270.964905 449.667603,270.952515 448.898041,270.940155 
	C448.544891,266.479492 448.164185,262.020813 447.846802,257.557617 
	C447.562744,253.563950 445.673096,251.694366 441.469299,251.753418 
	C430.851196,251.902542 420.226624,251.641602 409.610291,251.842438 
	C405.126770,251.927261 403.493134,250.129471 403.174774,245.773285 
	C402.135132,231.548019 400.729675,217.349594 399.666656,203.125763 
	C399.561371,201.716904 400.837799,200.204758 401.752441,199.094376 
	C402.032349,199.887817 402.032684,200.327438 402.108032,201.187714 
	C402.459534,205.735504 402.736023,209.862610 403.067993,214.397949 
	C403.456940,217.260437 403.826385,219.710495 404.116241,222.169907 
	C404.646637,226.670425 407.104492,228.972061 411.676056,228.962479 
	C415.805267,228.953842 419.938660,229.084946 424.062775,228.941391 
	C429.568359,228.749741 430.476898,227.455963 430.427155,221.959732 
	C430.409393,219.997757 431.425476,218.026443 432.177246,216.045349 
	C432.384857,216.031311 432.798431,215.984955 432.798431,215.984955 
	C433.456970,221.723557 434.115479,227.462173 434.690491,233.679398 
	C434.465912,234.241425 434.304871,234.303986 434.189423,234.414246 
	C434.078430,234.520264 434.014587,234.675659 433.930023,234.809357 
	C435.061981,235.199066 436.191437,235.918747 437.326263,235.927216 
	C448.216766,236.008423 459.109283,236.046555 469.998047,235.883286 
	C471.654297,235.858459 473.294098,234.739960 474.941498,234.127319 
	C475.939331,235.265121 477.665710,236.309692 477.825104,237.554840 
	C480.021088,254.709167 482.001465,271.891113 484.009216,289.522217 
z"/>
<path fill="#302D30" opacity="1.000000" stroke="none" 
	d="
M384.088470,290.155212 
	C383.516022,293.224854 382.943573,296.294464 381.911133,299.888306 
	C379.805084,304.331543 377.919006,308.171326 376.589966,312.195099 
	C375.552429,315.336487 373.878754,316.909973 370.537415,316.901672 
	C354.765778,316.862488 338.993896,316.871429 323.222198,316.907593 
	C319.594757,316.915924 318.373535,315.407166 318.554749,311.674683 
	C318.705994,308.559570 317.678925,305.387299 317.173706,302.240326 
	C317.573669,298.330933 317.973663,294.421570 318.865295,290.113739 
	C322.011780,289.757507 324.666565,289.822662 327.321594,289.838287 
	C346.243835,289.949585 365.166168,290.050781 384.088470,290.155212 
z"/>
<path fill="#494949" opacity="1.000000" stroke="none" 
	d="
M384.173767,289.812073 
	C365.166168,290.050781 346.243835,289.949585 327.321594,289.838287 
	C324.666565,289.822662 322.011780,289.757507 318.939911,289.658417 
	C317.689270,267.006500 316.861969,244.411255 316.017914,221.816635 
	C315.782135,215.504700 315.359467,209.195007 315.341888,202.883392 
	C315.338013,201.497818 316.694366,200.108444 317.728088,199.084991 
	C318.029877,199.888367 318.027954,200.327576 318.017822,201.250198 
	C318.351654,206.351120 318.643677,210.973068 319.052673,215.584641 
	C319.343872,218.867661 321.211426,220.866562 324.533539,220.847748 
	C332.583771,220.802170 341.190704,223.188339 347.767578,216.437393 
	C348.866425,234.927002 349.947449,252.954880 350.696289,270.853973 
	C349.395081,268.729858 347.913086,266.825317 347.541107,264.724274 
	C345.286316,251.988663 345.370941,251.971359 332.189209,252.024231 
	C330.694183,252.030228 329.193085,252.003235 327.705566,252.124176 
	C322.224182,252.569901 320.098236,254.495163 320.126190,259.918884 
	C320.162964,267.048157 320.782715,274.172699 320.930115,281.303833 
	C321.019958,285.652008 323.218445,287.048126 327.242188,287.029419 
	C343.359833,286.954498 359.478455,286.939514 375.595795,287.042938 
	C379.884338,287.070496 382.309937,285.613556 382.335144,281.003632 
	C383.121643,281.004211 383.571106,281.004791 384.020538,281.005402 
	C384.100037,283.826569 384.179535,286.647766 384.173767,289.812073 
z"/>
<path fill="#434343" opacity="1.000000" stroke="none" 
	d="
M384.467773,280.983948 
	C383.571106,281.004791 383.121643,281.004211 382.476013,280.667969 
	C383.313263,279.599274 384.248688,278.501648 385.396271,278.193115 
	C392.089905,276.393585 392.416412,276.057800 391.879211,269.234711 
	C391.736084,267.417084 391.410645,265.614624 391.209503,263.800659 
	C389.802307,251.109131 389.679749,250.995407 376.970459,250.993576 
	C364.181152,250.991730 364.330109,250.997345 363.845459,263.806702 
	C363.754089,266.221802 361.950439,268.572113 360.989471,270.491760 
	C360.070129,252.012863 359.098175,233.994537 358.505249,216.048676 
	C365.563049,216.745132 372.230927,217.667404 378.923523,217.912033 
	C386.082031,218.173660 386.740234,217.255920 387.268402,210.032196 
	C388.137634,209.963562 388.714569,209.913910 389.291473,209.864258 
	C390.457672,222.222412 391.661377,234.577164 392.776428,246.939941 
	C393.475616,254.691925 393.997803,262.459778 394.678253,270.213593 
	C395.570343,280.379059 395.236328,280.781128 384.467773,280.983948 
z"/>
<path fill="#545454" opacity="1.000000" stroke="none" 
	d="
M479.000977,269.997559 
	C479.429657,275.710236 479.858337,281.422882 480.169067,287.494385 
	C457.662659,287.873596 435.274139,287.893921 412.139923,287.678162 
	C410.616272,285.734161 409.334473,284.074615 409.165070,282.308319 
	C408.809540,278.601074 409.038727,274.837799 409.027893,271.097504 
	C422.010742,271.050446 434.993591,271.003357 448.437256,270.948242 
	C449.667603,270.952515 450.437134,270.964905 452.001801,270.889832 
	C461.531586,270.534088 470.266266,270.265808 479.000977,269.997559 
z"/>
<path fill="#545454" opacity="1.000000" stroke="none" 
	d="
M230.705612,287.247253 
	C230.864471,285.527069 231.023331,283.806854 231.501526,281.292786 
	C232.217819,277.667542 232.614777,274.836151 233.417435,271.910034 
	C242.012787,271.809418 250.202713,271.836243 258.391846,271.768402 
	C259.913300,271.755798 261.431549,271.362396 262.988403,271.072876 
	C263.025482,271.001007 263.079163,270.848389 263.529663,270.876740 
	C267.295563,270.889465 270.610962,270.873871 273.952515,270.933441 
	C273.978699,271.008606 274.051514,271.150177 274.260254,271.343384 
	C275.567657,271.647888 276.665619,271.847595 277.765137,271.856415 
	C286.506042,271.926331 295.247253,271.959991 303.990509,272.464539 
	C304.298492,277.894043 304.604309,282.863739 304.450073,287.847015 
	C279.561890,287.656158 255.133759,287.451721 230.705612,287.247253 
z"/>
<path fill="#3E3E3E" opacity="1.000000" stroke="none" 
	d="
M304.882965,207.945648 
	C304.922333,210.336578 304.961731,212.727524 304.506897,215.559631 
	C294.670624,216.007278 285.328491,216.013733 275.992584,216.011581 
	C275.998779,216.002975 275.984222,216.012680 275.869690,215.873001 
	C275.186707,215.833115 274.618256,215.932907 273.847656,216.023041 
	C273.645477,216.013382 273.242401,215.976089 272.761658,215.968811 
	C269.093353,215.965820 265.905762,215.970108 262.380737,215.984192 
	C261.368011,216.002060 260.692810,216.010162 259.608032,216.106750 
	C250.790512,216.133514 242.382584,216.071808 233.974213,215.542007 
	C233.952667,210.295761 233.931549,205.517578 234.381897,200.755707 
	C257.226013,200.770508 279.598724,200.769043 301.983673,201.194855 
	C302.958282,203.729965 303.920624,205.837799 304.882965,207.945648 
z"/>
<path fill="#3E3E3E" opacity="1.000000" stroke="none" 
	d="
M433.284637,215.978058 
	C432.798431,215.984955 432.384857,216.031311 431.914368,215.775879 
	C429.411682,215.018829 427.388947,214.134293 425.345703,214.084213 
	C417.904999,213.901794 410.457489,213.998352 403.012543,213.989731 
	C402.736023,209.862610 402.459534,205.735504 402.533356,201.185226 
	C425.579437,200.767593 448.275177,200.773102 470.979614,201.246780 
	C471.348328,206.365112 470.274414,211.397324 474.530334,215.009537 
	C472.599670,215.322159 470.670990,215.890198 468.737976,215.905487 
	C457.082825,215.997681 445.426666,215.963242 433.284637,215.978058 
z"/>
<path fill="#302D30" opacity="1.000000" stroke="none" 
	d="
M138.041245,287.880096 
	C138.816223,288.484039 139.591187,289.087952 140.643005,289.797791 
	C141.586517,293.038361 142.253189,296.173004 142.709625,299.941223 
	C142.595245,304.144714 142.296524,307.781555 142.887589,311.267517 
	C143.613647,315.549500 142.212814,317.109955 137.996979,316.956329 
	C133.178162,316.780762 128.345154,316.799957 123.524231,316.939270 
	C119.756233,317.048126 117.851776,315.326477 116.658043,311.812317 
	C115.451607,308.260834 113.531853,304.951660 111.924591,301.536316 
	C110.923088,298.033295 109.921593,294.530273 108.902390,290.631836 
	C109.476364,289.634033 110.068062,289.031647 111.293533,288.182526 
	C120.631950,287.917236 129.336594,287.898682 138.041245,287.880096 
z"/>
<path fill="#494949" opacity="1.000000" stroke="none" 
	d="
M273.242401,215.976089 
	C273.242401,215.976089 273.645477,216.013382 274.169617,216.018646 
	C275.123901,216.020157 275.554047,216.016418 275.984222,216.012695 
	C275.984222,216.012680 275.998779,216.002975 275.993591,216.476807 
	C276.020264,220.949066 276.012970,224.948318 276.095215,228.945709 
	C276.173737,232.760559 278.166626,234.828018 281.999207,234.895813 
	C286.662872,234.978302 291.329163,234.903580 295.993225,234.972275 
	C300.783752,235.042786 302.841187,232.722778 303.065735,227.964142 
	C303.192047,225.287003 304.314362,222.656876 304.987976,220.005569 
	C305.406799,232.096115 305.843079,244.186111 306.239105,256.277405 
	C306.575592,266.551666 306.865601,276.827484 306.797852,287.546112 
	C305.916412,287.937561 305.413269,287.885498 304.910156,287.833435 
	C304.604309,282.863739 304.298492,277.894043 303.994720,272.001282 
	C303.942322,267.934113 304.083618,264.771729 303.792542,261.649658 
	C303.190826,255.197067 301.011292,253.211960 294.649109,253.037933 
	C291.505829,252.951950 288.355774,252.946732 285.212982,253.042740 
	C278.908234,253.235352 277.625275,254.827118 276.913208,261.033081 
	C276.518890,264.469635 275.040985,267.781891 274.051514,271.150177 
	C274.051514,271.150177 273.978699,271.008606 273.969055,270.475769 
	C273.720428,251.953964 273.481415,233.965027 273.242401,215.976089 
z"/>
<path fill="#302D30" opacity="1.000000" stroke="none" 
	d="
M185.940567,290.546265 
	C186.813766,289.538513 187.696976,288.964203 189.242126,288.157959 
	C198.606918,287.914185 207.309769,287.902252 216.012619,287.890320 
	C216.759033,288.477203 217.505463,289.064087 218.534637,289.717468 
	C218.879440,292.564911 218.941483,295.345825 218.747009,298.858002 
	C218.018250,302.985229 217.278076,306.369751 217.131485,309.779724 
	C216.855911,316.190613 216.356400,316.846558 209.808731,316.916626 
	C206.144135,316.955841 202.466629,316.734406 198.816681,316.968994 
	C193.731445,317.295898 191.220200,315.485199 190.704361,310.060394 
	C190.379166,306.640472 188.408264,303.377014 187.175568,300.043365 
	C186.767227,297.022156 186.358902,294.000916 185.940567,290.546265 
z"/>
<path fill="#494949" opacity="1.000000" stroke="none" 
	d="
M260.017578,216.018265 
	C260.692810,216.010162 261.368011,216.002060 262.377930,216.455109 
	C262.834808,234.893631 262.957001,252.871017 263.079163,270.848389 
	C263.079163,270.848389 263.025482,271.001007 262.669006,270.888458 
	C261.550049,268.879639 260.366547,267.035980 260.121704,265.075073 
	C259.733673,261.967316 260.068939,258.776886 259.926941,255.629166 
	C259.670959,249.954239 258.019714,248.284409 252.313766,248.080444 
	C248.336441,247.938263 244.349518,248.083740 240.367096,248.061356 
	C235.640182,248.034775 233.291031,250.524475 233.164871,255.081161 
	C233.008774,260.719452 233.053665,266.363342 233.011719,272.004791 
	C232.614777,274.836151 232.217819,277.667542 231.579651,280.868011 
	C230.906296,274.664795 230.080978,268.090363 230.116364,261.520538 
	C230.219177,242.445328 230.630569,223.371201 231.039352,204.299179 
	C231.077972,202.497116 231.950729,200.712936 232.827255,199.127289 
	C233.448990,199.802551 233.679718,200.270981 233.910446,200.739410 
	C233.931549,205.517578 233.952667,210.295761 233.836731,215.927612 
	C233.513443,221.089127 233.183655,225.397049 233.186768,229.704742 
	C233.189240,233.107117 235.202454,234.877701 238.599854,234.909027 
	C243.764511,234.956680 248.929794,234.938416 254.094818,234.940140 
	C258.040955,234.941452 259.860046,232.814911 259.913879,229.014572 
	C259.975250,224.682846 259.985260,220.350403 260.017578,216.018265 
z"/>
<path fill="#434343" opacity="1.000000" stroke="none" 
	d="
M219.877625,224.579132 
	C218.859222,226.099075 217.387543,226.999176 217.004257,228.236435 
	C215.628250,232.678177 212.581909,234.073059 208.280411,234.007385 
	C201.305511,233.900879 194.324295,234.093628 187.353088,233.898270 
	C181.847855,233.743973 180.252182,231.841522 180.033386,226.042801 
	C179.791351,219.627594 180.396500,219.077560 186.406845,217.843323 
	C188.031937,217.509628 189.374619,215.800659 191.333405,214.453796 
	C201.310623,214.983292 210.888397,216.914413 219.942062,212.024048 
	C219.935913,216.054016 219.929779,220.084000 219.877625,224.579132 
z"/>
<path fill="#434343" opacity="1.000000" stroke="none" 
	d="
M305.000336,219.606094 
	C304.314362,222.656876 303.192047,225.287003 303.065735,227.964142 
	C302.841187,232.722778 300.783752,235.042786 295.993225,234.972275 
	C291.329163,234.903580 286.662872,234.978302 281.999207,234.895813 
	C278.166626,234.828018 276.173737,232.760559 276.095215,228.945709 
	C276.012970,224.948318 276.020264,220.949066 275.987396,216.485413 
	C285.328491,216.013733 294.670624,216.007278 304.476013,216.006561 
	C304.963776,217.077087 304.988220,218.141846 305.000336,219.606094 
z"/>
<path fill="#302D30" opacity="1.000000" stroke="none" 
	d="
M172.040390,268.901184 
	C172.827682,269.531403 173.614960,270.161652 174.696869,270.890289 
	C175.321793,273.392090 175.652084,275.795502 175.744431,278.864777 
	C175.449432,284.049713 175.646408,288.593933 175.203186,293.074829 
	C175.038925,294.735413 173.658539,297.295197 172.342697,297.655640 
	C164.285721,299.862244 161.389252,297.661774 159.462982,289.626953 
	C158.673157,286.332550 156.665131,283.330200 155.211273,280.194977 
	C154.807098,277.412598 154.402939,274.630188 154.007172,271.411621 
	C154.574020,270.459351 155.132477,269.943237 156.308655,269.197083 
	C161.964386,268.945099 167.002396,268.923126 172.040390,268.901184 
z"/>
<path fill="#3E3E3E" opacity="1.000000" stroke="none" 
	d="
M219.966263,211.644440 
	C210.888397,216.914413 201.310623,214.983292 191.413788,214.090210 
	C191.011490,209.901779 191.015305,205.807831 191.452423,201.235504 
	C200.588043,200.576065 209.290344,200.394974 217.989563,200.621429 
	C218.635513,203.681381 219.284561,206.333801 219.933609,208.986206 
	C219.952560,209.745758 219.971512,210.505295 219.966263,211.644440 
z"/>
<path fill="#393939" opacity="1.000000" stroke="none" 
	d="
M304.450104,287.847015 
	C305.413269,287.885498 305.916412,287.937561 306.798401,288.017609 
	C307.194305,288.590790 307.211304,289.135986 307.165771,289.882141 
	C281.730682,290.049622 256.358185,290.016113 230.522949,289.972473 
	C230.208267,289.173218 230.356323,288.384033 230.604996,287.421051 
	C255.133759,287.451721 279.561890,287.656158 304.450104,287.847015 
z"/>
<path fill="#494949" opacity="1.000000" stroke="none" 
	d="
M230.949188,301.383026 
	C231.918335,304.349030 233.313873,307.741272 233.727142,311.249207 
	C234.178619,315.081635 235.566116,316.951019 239.589279,316.934967 
	C258.514191,316.859375 277.439667,316.870422 296.364716,316.929840 
	C300.004272,316.941254 301.663025,315.439972 302.264526,311.767609 
	C302.838043,308.265930 304.299225,304.909668 305.619995,301.261353 
	C305.586304,305.166565 305.241760,309.296844 305.038696,313.434082 
	C304.876984,316.728516 303.287781,318.119354 299.980194,318.110321 
	C278.547180,318.051758 257.113892,318.050629 235.680862,318.100769 
	C232.310516,318.108643 230.806656,316.643005 230.872208,313.315735 
	C230.947388,309.498260 230.923569,305.678802 230.949188,301.383026 
z"/>
<path fill="#494949" opacity="1.000000" stroke="none" 
	d="
M317.100098,302.621704 
	C317.678925,305.387299 318.705994,308.559570 318.554749,311.674683 
	C318.373535,315.407166 319.594757,316.915924 323.222198,316.907593 
	C338.993896,316.871429 354.765778,316.862488 370.537415,316.901672 
	C373.878754,316.909973 375.552429,315.336487 376.589966,312.195099 
	C377.919006,308.171326 379.805084,304.331543 381.723236,300.207794 
	C381.030487,304.719879 380.398010,309.544128 378.925568,314.096710 
	C378.389771,315.753235 375.868073,317.872131 374.224701,317.896393 
	C355.929749,318.166168 337.629303,318.040558 319.330505,318.089569 
	C315.926544,318.098694 314.930023,316.400757 315.404022,313.349487 
	C315.939880,309.899933 316.485291,306.451843 317.100098,302.621704 
z"/>
<path fill="#434343" opacity="1.000000" stroke="none" 
	d="
M155.273102,280.576904 
	C156.665131,283.330200 158.673157,286.332550 159.462982,289.626953 
	C161.389252,297.661774 164.285721,299.862244 172.342697,297.655640 
	C173.658539,297.295197 175.038925,294.735413 175.203186,293.074829 
	C175.646408,288.593933 175.449432,284.049713 175.748474,279.273834 
	C176.911469,284.074402 177.801071,289.137787 178.763870,294.187195 
	C179.480240,297.944122 178.177475,299.968292 174.169678,299.879059 
	C173.009216,299.853210 171.847137,299.908630 170.685760,299.913483 
	C157.183502,299.969788 157.192612,299.968323 156.028076,286.386017 
	C155.872421,284.570496 155.569611,282.767609 155.273102,280.576904 
z"/>
<path fill="#494949" opacity="1.000000" stroke="none" 
	d="
M24.803846,301.339111 
	C26.492887,303.461395 29.058046,305.712952 29.976902,308.506104 
	C32.236233,315.374146 36.535313,317.289673 43.512348,317.080414 
	C59.459507,316.602142 75.430824,316.933228 91.392326,316.927673 
	C100.792648,316.924377 100.792648,316.917572 100.083344,307.290222 
	C100.865990,306.965179 101.325081,307.021698 101.784180,307.078217 
	C105.360138,318.652283 106.813736,318.139679 93.644936,318.116455 
	C75.380447,318.084259 57.112465,317.912231 38.853374,318.227875 
	C33.432106,318.321594 29.976385,316.985992 28.462536,311.521942 
	C27.537472,308.183014 26.124657,304.979248 24.803846,301.339111 
z"/>
<path fill="#505050" opacity="1.000000" stroke="none" 
	d="
M404.805603,307.158386 
	C404.502014,308.110687 404.178711,309.057220 403.898071,310.016235 
	C402.342072,315.332733 403.309326,316.903931 408.696136,316.926666 
	C427.521454,317.006165 446.347473,316.916107 465.172882,316.985107 
	C468.619110,316.997742 470.652283,315.553284 472.167297,312.486786 
	C474.060303,308.655304 476.439270,305.063904 478.893311,301.166382 
	C477.682037,305.021667 476.051514,309.036224 474.729095,313.149841 
	C473.514008,316.929443 471.158325,318.145111 467.243774,318.116455 
	C446.425049,317.963928 425.604156,317.973297 404.785156,318.106232 
	C400.487061,318.133698 398.785217,316.912628 400.467255,312.585815 
	C401.068268,311.039734 401.497589,309.426941 402.453491,307.486847 
	C403.536346,307.138855 404.170959,307.148621 404.805603,307.158386 
z"/>
<path fill="#494949" opacity="1.000000" stroke="none" 
	d="
M187.185425,300.473145 
	C188.408264,303.377014 190.379166,306.640472 190.704361,310.060394 
	C191.220200,315.485199 193.731445,317.295898 198.816681,316.968994 
	C202.466629,316.734406 206.144135,316.955841 209.808731,316.916626 
	C216.356400,316.846558 216.855911,316.190613 217.131485,309.779724 
	C217.278076,306.369751 218.018250,302.985229 218.733948,299.315613 
	C219.415833,303.822937 219.749222,308.616669 220.329941,313.380310 
	C220.711090,316.506927 219.791275,318.122955 216.426254,318.094391 
	C208.636185,318.028259 200.845154,318.050446 193.054626,318.072662 
	C189.816925,318.081909 188.171326,316.567688 188.007004,313.299835 
	C187.799088,309.164368 187.471344,305.034943 187.185425,300.473145 
z"/>
<path fill="#494949" opacity="1.000000" stroke="none" 
	d="
M111.933571,302.011200 
	C113.531853,304.951660 115.451607,308.260834 116.658043,311.812317 
	C117.851776,315.326477 119.756233,317.048126 123.524231,316.939270 
	C128.345154,316.799957 133.178162,316.780762 137.996979,316.956329 
	C142.212814,317.109955 143.613647,315.549500 142.887589,311.267517 
	C142.296524,307.781555 142.595245,304.144714 142.705902,300.355591 
	C144.006134,304.653168 145.113831,309.166626 146.188644,313.687897 
	C146.889450,316.635956 145.791672,318.107666 142.659851,318.087738 
	C134.847260,318.038055 127.025482,318.257324 119.228333,317.905090 
	C117.594650,317.831299 115.171890,316.074982 114.637939,314.557373 
	C113.279243,310.695557 112.783623,306.530029 111.933571,302.011200 
z"/>
<path fill="#595959" opacity="1.000000" stroke="none" 
	d="
M234.381897,200.755707 
	C233.679718,200.270981 233.448990,199.802551 233.117584,199.088699 
	C255.731522,198.809280 278.446136,198.775299 301.609131,199.113190 
	C302.028778,199.912582 302.000092,200.340073 301.971375,200.767578 
	C279.598724,200.769043 257.226013,200.770508 234.381897,200.755707 
z"/>
<path fill="#545454" opacity="1.000000" stroke="none" 
	d="
M474.478760,234.088837 
	C473.294098,234.739960 471.654297,235.858459 469.998047,235.883286 
	C459.109283,236.046555 448.216766,236.008423 437.326263,235.927216 
	C436.191437,235.918747 435.061981,235.199066 433.930023,234.809357 
	C434.014587,234.675659 434.078430,234.520264 434.189423,234.414246 
	C434.304871,234.303986 434.465912,234.241425 434.808746,234.075226 
	C448.012329,234.011734 461.014191,234.031036 474.478760,234.088837 
z"/>
<path fill="#595959" opacity="1.000000" stroke="none" 
	d="
M33.023533,200.793304 
	C33.025200,200.359833 33.026867,199.926361 33.026833,199.167450 
	C55.694923,198.799606 78.364716,198.757202 101.499565,198.749542 
	C101.968262,199.225845 101.971893,199.667374 101.531227,200.450012 
	C78.399132,200.791840 55.711330,200.792572 33.023533,200.793304 
z"/>
<path fill="#595959" opacity="1.000000" stroke="none" 
	d="
M470.970947,200.778625 
	C448.275177,200.773102 425.579437,200.767593 402.458313,200.764557 
	C402.032684,200.327438 402.032349,199.887817 402.033630,199.116272 
	C424.717773,198.775925 447.400330,198.767532 470.540436,199.128769 
	C470.988983,199.925140 470.979980,200.351883 470.970947,200.778625 
z"/>
<path fill="#595959" opacity="1.000000" stroke="none" 
	d="
M318.026031,200.766785 
	C318.027954,200.327576 318.029877,199.888367 318.033051,199.119370 
	C337.050629,198.777054 356.066986,198.764511 375.540222,199.115738 
	C375.988770,199.903885 375.980438,200.328278 375.545776,200.749832 
	C356.088318,200.753586 337.057190,200.760193 318.026031,200.766785 
z"/>
<path fill="#494949" opacity="1.000000" stroke="none" 
	d="
M408.676819,271.089081 
	C409.038727,274.837799 408.809540,278.601074 409.165070,282.308319 
	C409.334473,284.074615 410.616272,285.734161 411.667908,287.659058 
	C410.586578,288.515991 409.231476,289.155945 407.535217,289.801392 
	C406.739197,284.869293 406.093628,279.936768 405.959869,274.990417 
	C405.925232,273.709442 407.493683,272.385071 408.676819,271.089081 
z"/>
<path fill="#545454" opacity="1.000000" stroke="none" 
	d="
M176.391907,233.904694 
	C176.500381,234.532867 176.159897,235.740723 175.801254,235.746155 
	C169.218414,235.845627 162.632950,235.827484 156.050079,235.715149 
	C155.692139,235.709030 155.351974,234.660873 155.142059,233.914154 
	C162.165253,233.795227 169.049881,233.859940 176.391907,233.904694 
z"/>
<path fill="#595959" opacity="1.000000" stroke="none" 
	d="
M143.500153,198.751495 
	C143.965759,199.226532 143.966248,199.665756 143.507721,200.446381 
	C134.712250,200.757553 126.375801,200.727325 118.039352,200.697098 
	C118.038506,200.272247 118.037659,199.847397 118.035934,199.103546 
	C126.368385,198.761597 134.701706,198.738617 143.500153,198.751495 
z"/>
<path fill="#494949" opacity="1.000000" stroke="none" 
	d="
M470.979614,201.246780 
	C470.979980,200.351883 470.988983,199.925140 471.008484,199.176224 
	C471.873169,200.198746 473.244385,201.459045 473.480377,202.904678 
	C474.080841,206.583618 474.173737,210.345413 474.500061,214.541779 
	C470.274414,211.397324 471.348328,206.365112 470.979614,201.246780 
z"/>
<path fill="#505050" opacity="1.000000" stroke="none" 
	d="
M389.257690,209.530548 
	C388.714569,209.913910 388.137634,209.963562 386.826691,210.014862 
	C382.645386,209.459610 378.467896,211.362793 376.519470,207.041870 
	C377.681335,206.977921 378.456146,206.932190 379.230988,206.886444 
	C382.517273,207.849899 386.708191,204.900726 389.257690,209.530548 
z"/>
<path fill="#595959" opacity="1.000000" stroke="none" 
	d="
M217.992645,200.213882 
	C209.290344,200.394974 200.588043,200.576065 191.460632,200.757172 
	C191.033722,200.332626 191.031921,199.908081 191.027649,199.162872 
	C199.737137,198.809204 208.449066,198.776184 217.605362,199.135788 
	C218.030685,199.756912 218.011673,199.985397 217.992645,200.213882 
z"/>
<path fill="#3E3E3E" opacity="1.000000" stroke="none" 
	d="
M101.726166,306.707458 
	C101.325081,307.021698 100.865990,306.965179 100.057320,306.855469 
	C99.268326,303.741577 98.828903,300.680908 98.597343,297.416138 
	C99.759521,300.253601 100.713844,303.295135 101.726166,306.707458 
z"/>
<path fill="#3E3E3E" opacity="1.000000" stroke="none" 
	d="
M404.928345,306.780273 
	C404.170959,307.148621 403.536346,307.138855 402.583801,307.136963 
	C403.175720,304.062164 404.085541,300.979492 405.096832,297.551636 
	C405.149261,300.271667 405.100189,303.336945 404.928345,306.780273 
z"/>
<path fill="#494949" opacity="1.000000" stroke="none" 
	d="
M379.149506,206.483276 
	C378.456146,206.932190 377.681335,206.977921 376.493713,206.595276 
	C376.044647,204.362152 376.008362,202.557404 375.972107,200.752670 
	C375.980438,200.328278 375.988770,199.903885 376.008484,199.160858 
	C380.619324,199.745712 377.737732,203.799805 379.149506,206.483276 
z"/>
<path fill="#494949" opacity="1.000000" stroke="none" 
	d="
M301.983643,201.194855 
	C302.000092,200.340073 302.028778,199.912582 302.082672,199.161774 
	C303.041779,201.605576 303.975677,204.372681 304.896240,207.542725 
	C303.920624,205.837799 302.958282,203.729965 301.983643,201.194855 
z"/>
<path fill="#494949" opacity="1.000000" stroke="none" 
	d="
M217.989563,200.621429 
	C218.011673,199.985397 218.030685,199.756912 218.078842,199.185089 
	C218.726273,201.928528 219.344574,205.015305 219.948242,208.544128 
	C219.284561,206.333801 218.635513,203.681381 217.989563,200.621429 
z"/>
<path fill="#545454" opacity="1.000000" stroke="none" 
	d="
M216.010239,287.431885 
	C207.309769,287.902252 198.606918,287.914185 189.431702,287.901978 
	C189.202713,279.492249 189.177094,271.082703 189.917953,262.741272 
	C190.064957,261.085876 193.024490,258.604553 194.906754,258.384705 
	C200.134293,257.773987 205.479782,258.055847 210.774338,258.176056 
	C214.502777,258.260681 215.941528,260.630188 215.948975,264.113617 
	C215.965286,271.733551 215.987854,279.353516 216.010239,287.431885 
z"/>
<path fill="#434343" opacity="1.000000" stroke="none" 
	d="
M142.992828,213.994919 
	C144.598953,215.332718 146.043701,217.471542 147.846207,217.834717 
	C151.176163,218.505676 152.975235,219.770691 152.960129,223.283157 
	C152.944244,226.976868 152.520218,231.147736 148.213699,231.415726 
	C138.958893,231.991638 129.637085,231.860855 120.367889,231.450516 
	C118.921646,231.386490 116.657913,228.447067 116.429207,226.628830 
	C115.941071,222.748001 116.539383,218.730530 117.302689,214.384766 
	C126.272820,213.998627 134.632828,213.996780 142.992828,213.994919 
z"/>
<path fill="#505050" opacity="1.000000" stroke="none" 
	d="
M112.010345,273.004944 
	C112.374504,269.202148 112.777916,265.402557 113.092033,261.595642 
	C113.420563,257.614227 115.732048,255.472870 119.504913,255.263199 
	C124.307632,254.996307 129.138092,255.034698 133.949509,255.178619 
	C137.953568,255.298370 139.948975,257.606934 139.947891,261.620911 
	C139.946960,265.111145 139.953094,268.601349 139.539429,272.490723 
	C130.085266,272.928192 121.047806,272.966553 112.010345,273.004944 
z"/>
<path fill="#545454" opacity="1.000000" stroke="none" 
	d="
M112.007233,273.458069 
	C121.047806,272.966553 130.085266,272.928192 139.531311,272.958984 
	C139.385544,277.725372 138.831192,282.422638 138.159027,287.500000 
	C129.336594,287.898682 120.631950,287.917236 111.457794,287.913910 
	C111.326897,283.231750 111.665512,278.571503 112.007233,273.458069 
z"/>
<path fill="#3E3E3E" opacity="1.000000" stroke="none" 
	d="
M143.006531,213.562866 
	C134.632828,213.996780 126.272820,213.998627 117.440628,213.998535 
	C117.293144,209.863388 117.617851,205.730164 117.990952,201.147034 
	C126.375801,200.727325 134.712250,200.757553 143.511246,200.775589 
	C143.655930,204.885864 143.338074,209.008331 143.006531,213.562866 
z"/>
<path fill="#505050" opacity="1.000000" stroke="none" 
	d="
M172.154907,268.518066 
	C167.002396,268.923126 161.964386,268.945099 156.458847,268.951172 
	C156.360901,265.637146 156.769714,262.342834 157.090775,259.040009 
	C157.550552,254.310104 160.719650,253.129730 164.774429,253.063614 
	C168.829178,252.997513 172.272720,254.130722 172.698898,258.748657 
	C172.983994,261.837891 172.441559,265.003540 172.154907,268.518066 
z"/>
<path fill="#3E3E3E" opacity="1.000000" stroke="none" 
	d="
M33.000137,201.240845 
	C55.711330,200.792572 78.399132,200.791840 101.537277,200.780930 
	C101.480377,205.208176 100.946236,209.642761 100.473213,214.083847 
	C99.968048,218.826660 97.519203,221.248810 92.604385,221.012100 
	C90.290901,220.900696 87.952362,220.847366 85.650383,221.051697 
	C80.279587,221.528366 75.491081,220.538132 71.033890,216.100876 
	C67.088707,215.970490 63.928474,215.973526 60.768238,215.976562 
	C60.017700,216.225189 59.267159,216.473801 57.846390,216.951416 
	C48.461208,217.113892 39.746258,217.047363 31.031303,216.980835 
	C31.679783,211.883347 32.328262,206.785873 33.000137,201.240845 
z"/>
<path fill="#545454" opacity="1.000000" stroke="none" 
	d="
M54.008415,271.056305 
	C54.191658,271.038422 54.374901,271.020538 55.279846,270.978119 
	C59.271309,270.853729 62.541065,270.753845 65.810822,270.653992 
	C65.810822,270.653992 65.905312,270.881378 66.181183,271.195984 
	C67.551048,271.721802 68.644836,272.114166 69.739090,272.115479 
	C78.480080,272.125946 87.221176,272.062408 95.962234,272.021515 
	C95.623817,275.322388 95.177170,278.616760 94.978020,281.925995 
	C94.786606,285.106659 93.397141,286.940308 90.096909,286.942291 
	C69.334244,286.954865 48.571533,286.963104 27.808895,286.932373 
	C24.098116,286.926880 22.950853,284.830444 23.402168,281.343109 
	C23.763432,278.551636 23.818256,275.720490 24.433430,272.417847 
	C33.379990,271.975128 41.902393,272.061646 50.424206,272.022064 
	C51.620415,272.016541 52.813751,271.393494 54.008415,271.056305 
z"/>
<path fill="#201B1E" opacity="1.000000" stroke="none" 
	d="
M65.845490,270.230591 
	C62.541065,270.753845 59.271309,270.853729 55.554054,270.945282 
	C56.517502,256.861176 57.920155,242.784576 59.344681,228.710175 
	C59.747162,224.733658 60.213642,220.763611 60.709503,216.383575 
	C63.928474,215.973526 67.088707,215.970490 70.725464,215.972702 
	C69.428040,233.921036 67.654099,251.864151 65.845490,270.230591 
z"/>
<path fill="#505050" opacity="1.000000" stroke="none" 
	d="
M53.765331,270.805573 
	C52.813751,271.393494 51.620415,272.016541 50.424206,272.022064 
	C41.902393,272.061646 33.379990,271.975128 24.435797,271.968536 
	C24.760553,267.587402 25.451107,263.156036 26.268190,258.748108 
	C27.298786,253.188354 29.443668,251.260803 34.941708,251.063461 
	C38.591537,250.932449 42.253540,250.932968 45.903503,251.061615 
	C51.418186,251.255997 52.828178,252.738342 52.944801,258.417084 
	C52.992363,260.733215 52.579258,263.060669 52.655460,265.373749 
	C52.712601,267.108429 53.216984,268.828339 53.765331,270.805573 
z"/>
<path fill="#505050" opacity="1.000000" stroke="none" 
	d="
M95.971527,271.561096 
	C87.221176,272.062408 78.480080,272.125946 69.739090,272.115479 
	C68.644836,272.114166 67.551048,271.721802 66.237305,271.305573 
	C67.299622,267.280243 69.102097,263.543640 69.732887,259.618683 
	C70.533318,254.638153 72.962372,252.180542 77.864288,252.094955 
	C82.000389,252.022736 86.152138,251.893524 90.273155,252.159012 
	C95.095116,252.469666 96.966438,254.892456 96.665367,259.714081 
	C96.428391,263.509064 96.208382,267.305084 95.971527,271.561096 
z"/>
<path fill="#434343" opacity="1.000000" stroke="none" 
	d="
M31.014816,217.412354 
	C39.746258,217.047363 48.461208,217.113892 57.581867,217.086395 
	C57.011528,231.344482 56.296669,232.015625 41.997814,232.004669 
	C41.831188,232.004532 41.664566,232.004761 41.497940,232.004532 
	C30.353891,231.989273 29.713682,231.285248 30.848080,220.338211 
	C30.933855,219.510452 30.949879,218.675476 31.014816,217.412354 
z"/>
<path fill="#505050" opacity="1.000000" stroke="none" 
	d="
M478.993439,269.565826 
	C470.266266,270.265808 461.531586,270.534088 452.386444,270.890533 
	C451.668335,267.180847 451.250549,263.387817 451.082642,259.583801 
	C450.897919,255.400024 452.773041,252.977036 457.250153,253.032135 
	C461.728394,253.087280 466.207794,253.037201 470.686432,253.071320 
	C474.804291,253.102722 477.201263,255.212784 477.786591,259.262451 
	C478.260651,262.542236 478.591553,265.842773 478.993439,269.565826 
z"/>
<path fill="#434343" opacity="1.000000" stroke="none" 
	d="
M403.067993,214.397949 
	C410.457489,213.998352 417.904999,213.901794 425.345703,214.084213 
	C427.388947,214.134293 429.411682,215.018829 431.706726,215.789917 
	C431.425476,218.026443 430.409393,219.997757 430.427155,221.959732 
	C430.476898,227.455963 429.568359,228.749741 424.062775,228.941391 
	C419.938660,229.084946 415.805267,228.953842 411.676056,228.962479 
	C407.104492,228.972061 404.646637,226.670425 404.116241,222.169907 
	C403.826385,219.710495 403.456940,217.260437 403.067993,214.397949 
z"/>
<path fill="#545454" opacity="1.000000" stroke="none" 
	d="
M360.936890,270.952301 
	C361.950439,268.572113 363.754089,266.221802 363.845459,263.806702 
	C364.330109,250.997345 364.181152,250.991730 376.970459,250.993576 
	C389.679749,250.995407 389.802307,251.109131 391.209503,263.800659 
	C391.410645,265.614624 391.736084,267.417084 391.879211,269.234711 
	C392.416412,276.057800 392.089905,276.393585 385.396271,278.193115 
	C384.248688,278.501648 383.313263,279.599274 382.138977,280.668030 
	C382.309937,285.613556 379.884338,287.070496 375.595795,287.042938 
	C359.478455,286.939514 343.359833,286.954498 327.242188,287.029419 
	C323.218445,287.048126 321.019958,285.652008 320.930115,281.303833 
	C320.782715,274.172699 320.162964,267.048157 320.126190,259.918884 
	C320.098236,254.495163 322.224182,252.569901 327.705566,252.124176 
	C329.193085,252.003235 330.694183,252.030228 332.189209,252.024231 
	C345.370941,251.971359 345.286316,251.988663 347.541107,264.724274 
	C347.913086,266.825317 349.395081,268.729858 351.146942,270.850403 
	C354.932159,270.967834 357.934509,270.960083 360.936890,270.952301 
z"/>
<path fill="#3E3E3E" opacity="1.000000" stroke="none" 
	d="
M375.545776,200.749832 
	C376.008362,202.557404 376.044647,204.362152 376.106689,206.613495 
	C378.467896,211.362793 382.645386,209.459610 386.534363,210.033813 
	C386.740234,217.255920 386.082031,218.173660 378.923523,217.912033 
	C372.230927,217.667404 365.563049,216.745132 358.035522,216.041382 
	C354.041077,215.966324 350.895447,215.970993 347.749786,215.975662 
	C341.190704,223.188339 332.583771,220.802170 324.533539,220.847748 
	C321.211426,220.866562 319.343872,218.867661 319.052673,215.584641 
	C318.643677,210.973068 318.351654,206.351120 318.017822,201.250198 
	C337.057190,200.760193 356.088318,200.753586 375.545776,200.749832 
z"/>
<path fill="#201B1E" opacity="1.000000" stroke="none" 
	d="
M347.767578,216.437393 
	C350.895447,215.970993 354.041077,215.966324 357.656494,215.968933 
	C359.098175,233.994537 360.070129,252.012863 360.989471,270.491760 
	C357.934509,270.960083 354.932159,270.967834 351.479126,270.979187 
	C349.947449,252.954880 348.866425,234.927002 347.767578,216.437393 
z"/>
<path fill="#505050" opacity="1.000000" stroke="none" 
	d="
M233.417419,271.910034 
	C233.053665,266.363342 233.008774,260.719452 233.164871,255.081161 
	C233.291031,250.524475 235.640182,248.034775 240.367096,248.061356 
	C244.349518,248.083740 248.336441,247.938263 252.313766,248.080444 
	C258.019714,248.284409 259.670959,249.954239 259.926941,255.629166 
	C260.068939,258.776886 259.733673,261.967316 260.121704,265.075073 
	C260.366547,267.035980 261.550049,268.879639 262.631897,270.960327 
	C261.431549,271.362396 259.913300,271.755798 258.391846,271.768402 
	C250.202713,271.836243 242.012787,271.809418 233.417419,271.910034 
z"/>
<path fill="#201B1E" opacity="1.000000" stroke="none" 
	d="
M263.529663,270.876740 
	C262.957001,252.871017 262.834808,234.893631 262.715393,216.445343 
	C265.905762,215.970108 269.093353,215.965820 272.761658,215.968811 
	C273.481415,233.965027 273.720428,251.953964 273.942871,270.400574 
	C270.610962,270.873871 267.295563,270.889465 263.529663,270.876740 
z"/>
<path fill="#505050" opacity="1.000000" stroke="none" 
	d="
M274.260254,271.343384 
	C275.040985,267.781891 276.518890,264.469635 276.913208,261.033081 
	C277.625275,254.827118 278.908234,253.235352 285.212982,253.042740 
	C288.355774,252.946732 291.505829,252.951950 294.649109,253.037933 
	C301.011292,253.211960 303.190826,255.197067 303.792542,261.649658 
	C304.083618,264.771729 303.942322,267.934113 303.992584,271.541504 
	C295.247253,271.959991 286.506042,271.926331 277.765137,271.856415 
	C276.665619,271.847595 275.567657,271.647888 274.260254,271.343384 
z"/>
<path fill="#434343" opacity="1.000000" stroke="none" 
	d="
M259.608032,216.106750 
	C259.985260,220.350403 259.975250,224.682846 259.913879,229.014572 
	C259.860046,232.814911 258.040955,234.941452 254.094818,234.940140 
	C248.929794,234.938416 243.764511,234.956680 238.599854,234.909027 
	C235.202454,234.877701 233.189240,233.107117 233.186768,229.704742 
	C233.183655,225.397049 233.513443,221.089127 233.837158,216.395691 
	C242.382584,216.071808 250.790512,216.133514 259.608032,216.106750 
z"/>
<path fill="#434343" opacity="1.000000" stroke="none" 
	d="
M275.869690,215.873016 
	C275.554047,216.016418 275.123901,216.020157 274.371765,216.028290 
	C274.618256,215.932907 275.186707,215.833115 275.869690,215.873016 
z"/>
</svg>
