<svg version="1.1" id="Layer_1" xmlns="http://www.w3.org/2000/svg" xmlns:xlink="http://www.w3.org/1999/xlink" x="0px" y="0px"
	 width="100%" viewBox="0 0 479 133" enable-background="new 0 0 479 133" xml:space="preserve">
<path fill="#201B1E" opacity="1.000000" stroke="none" 
	d="
M1.000000,107.000000 
	C1.000000,99.979050 1.000000,92.958107 1.287610,85.241058 
	C2.083339,83.009254 2.836494,81.508339 3.060249,79.932266 
	C4.644982,68.769798 6.216280,57.603748 7.608756,46.416050 
	C9.491659,31.288050 11.210671,16.139648 13.000000,1.000000 
	C55.687561,1.000000 98.375122,1.000000 141.542297,1.425924 
	C142.404358,4.972700 142.740891,8.100057 143.181717,11.212643 
	C143.661346,14.599048 144.402283,17.608482 148.654861,18.468622 
	C149.918762,18.724264 151.204224,20.887568 151.705505,22.428627 
	C152.463196,24.758072 152.534103,27.309561 152.911407,29.764454 
	C153.309845,32.356968 153.258881,35.736031 156.945267,35.450687 
	C160.745621,35.156525 159.755325,31.626738 159.975296,29.142727 
	C160.121002,27.497141 160.119827,25.827810 160.044342,24.175507 
	C159.860077,20.141428 161.421387,17.837622 165.767532,17.976938 
	C169.589493,18.099453 170.954529,15.976346 171.064819,12.372259 
	C171.181015,8.575522 171.672501,4.790270 172.000000,1.000000 
	C239.020889,1.000000 306.041779,1.000000 373.527466,1.428324 
	C374.273926,4.649315 373.153168,8.584690 377.673462,8.596484 
	C381.770203,8.607174 381.660980,4.948628 381.967407,1.991458 
	C382.001434,1.663370 381.990234,1.330600 382.000000,1.000000 
	C410.687561,1.000000 439.375122,1.000000 468.524719,1.446386 
	C469.755432,8.980227 470.944305,16.054405 471.168854,23.159061 
	C471.373169,29.622700 471.468994,35.726784 473.524902,42.204170 
	C476.141052,50.446766 475.947144,59.557919 477.262421,68.249573 
	C477.714417,71.236069 479.061707,74.087090 480.000000,77.000000 
	C480.000000,87.687561 480.000000,98.375122 479.692932,109.674606 
	C475.590576,118.191017 471.795288,126.095512 468.000000,134.000000 
	C439.312439,134.000000 410.624878,134.000000 381.489258,133.573822 
	C380.670593,130.576126 381.934113,126.656036 377.877808,126.700203 
	C376.387970,126.716415 374.892609,130.158066 373.496307,132.106369 
	C373.141296,132.601730 373.155457,133.361649 373.000000,134.000000 
	C306.312439,134.000000 239.624878,134.000000 172.443787,133.582230 
	C171.316650,129.080750 171.023331,124.898315 169.881561,120.961998 
	C169.426193,119.392105 167.169662,117.383316 165.606903,117.266846 
	C159.681808,116.825218 153.705002,117.057266 147.747665,117.076233 
	C144.409821,117.086861 143.152573,119.004364 142.985382,122.145493 
	C142.774750,126.103264 142.338776,130.049042 142.000000,134.000000 
	C99.645775,134.000000 57.291542,134.000000 14.385286,133.643784 
	C13.074786,131.297470 12.483419,129.222900 11.527822,127.332451 
	C8.084943,120.521408 4.519282,113.772423 1.000000,107.000000 
M374.710388,90.938156 
	C377.956421,90.445114 382.003540,92.426994 383.911224,87.102539 
	C382.874359,75.076447 381.837494,63.050350 380.886475,50.107571 
	C380.211487,40.548500 379.663605,30.976940 378.726746,21.443609 
	C378.583496,19.986399 376.307434,17.369940 375.585297,17.551144 
	C368.702301,19.278292 367.556458,15.183941 367.047272,9.544086 
	C366.379303,9.275391 365.711304,9.006696 364.102539,8.668236 
	C345.053436,8.679996 326.004333,8.691757 306.485077,8.577708 
	C305.721649,8.747488 304.958191,8.917268 304.113770,10.002527 
	C304.762817,24.335352 305.411865,38.668175 306.047058,53.916222 
	C306.112122,57.277760 306.177185,60.639294 306.184814,64.877716 
	C306.527740,70.253113 306.870667,75.628517 307.243011,81.689873 
	C307.307983,82.142570 307.372986,82.595261 307.342743,83.815926 
	C307.347260,84.846581 307.351807,85.877235 307.212128,87.793472 
	C307.346924,91.200134 307.481720,94.606804 307.431671,98.782448 
	C307.269073,101.826088 307.106476,104.869728 306.771545,108.677834 
	C306.387115,111.529419 306.002655,114.380997 305.368164,118.017853 
	C305.127930,119.327797 304.845673,120.631653 304.654724,121.948738 
	C303.872559,127.344170 304.425446,128.067184 309.955597,128.081558 
	C327.282135,128.126541 344.609283,128.030701 361.935181,128.143692 
	C365.783478,128.168762 367.721985,126.860992 368.246948,122.877045 
	C368.721985,119.271645 369.917603,115.761177 371.097534,111.475342 
	C372.004242,106.923950 372.910950,102.372559 373.769684,96.975456 
	C373.779846,94.961395 373.789978,92.947327 374.710388,90.938156 
M144.798553,43.349430 
	C144.624634,42.935863 144.450699,42.522297 144.375061,41.266159 
	C144.346939,40.137917 144.318817,39.009674 144.549545,37.104443 
	C144.642212,35.749039 144.734894,34.393635 144.914047,32.198784 
	C144.929138,30.793207 144.944214,29.387632 144.621826,27.308908 
	C141.485916,26.815495 138.349991,26.322081 135.160126,24.949131 
	C135.345551,20.893961 135.780350,16.826468 135.580887,12.790317 
	C135.511246,11.381456 133.877304,10.049904 132.027298,8.633022 
	C123.698990,8.649107 115.370682,8.665193 106.434387,8.642300 
	C105.582016,10.001945 104.106064,11.305477 103.977859,12.730284 
	C103.105873,22.420780 102.517853,32.136829 101.662842,42.649567 
	C100.167786,61.694439 98.672737,80.739311 97.247673,100.584099 
	C98.866203,105.449059 100.484734,110.314011 101.918961,115.798706 
	C102.314972,118.393333 102.253616,121.184059 103.254868,123.519173 
	C104.025528,125.316521 106.067749,127.733376 107.656097,127.819595 
	C115.783615,128.260757 123.952843,128.181152 132.091873,127.872124 
	C133.200897,127.830017 135.173203,125.418648 135.098099,124.206322 
	C134.905930,121.103897 133.784531,118.059029 133.002884,114.193199 
	C132.327759,111.472244 131.652649,108.751297 130.975494,105.241966 
	C130.618469,103.475945 130.261444,101.709923 130.030487,99.098587 
	C130.330536,95.971031 130.699844,92.848274 130.916946,89.714973 
	C131.453842,81.966240 131.885498,74.210175 132.431152,66.462112 
	C132.705261,62.569756 135.249298,61.706581 138.675629,61.853264 
	C142.239532,62.005833 143.118195,64.101151 142.989182,67.145805 
	C142.800339,71.602097 142.621170,76.058792 142.471878,81.379417 
	C143.277237,85.246269 144.082596,89.113121 144.979752,93.844582 
	C145.342117,97.233017 145.320648,100.726547 146.208954,103.970978 
	C146.753113,105.958359 148.692612,107.563698 150.796310,109.531372 
	C154.947372,109.611389 159.100677,109.632248 163.248886,109.788063 
	C167.396164,109.943848 168.451553,107.907684 167.706848,104.149063 
	C166.869629,99.923431 166.253952,95.653900 165.546341,90.530586 
	C165.208420,87.201958 164.870499,83.873329 164.549347,79.665688 
	C164.697372,75.507675 164.982559,71.348801 164.956711,67.191872 
	C164.928070,62.588387 167.531006,61.643044 171.438766,61.830433 
	C175.775269,62.038383 175.814774,64.690079 175.698013,68.053207 
	C175.328674,78.691864 175.220428,89.339600 174.999435,100.851463 
	C175.354889,103.572945 175.710342,106.294426 176.115997,109.892044 
	C176.475494,114.205772 176.912003,118.514885 177.170761,122.834648 
	C177.388443,126.468666 178.976822,128.222748 182.809082,128.143677 
	C190.133850,127.992584 197.465515,128.013031 204.791290,128.138794 
	C208.590439,128.204025 209.788864,126.603149 209.293488,122.932442 
	C208.671158,118.320915 208.406952,113.661057 208.013474,108.109184 
	C207.948349,105.335480 207.883224,102.561783 207.861252,98.878090 
	C208.001938,87.739868 208.150314,76.601738 208.280945,65.463394 
	C208.393906,55.831173 208.486694,46.198715 208.749207,35.868843 
	C208.795517,27.228247 208.841827,18.587652 208.244263,9.423578 
	C198.827972,9.194642 189.411682,8.965706 179.435226,8.812213 
	C178.655548,10.527253 177.386154,12.189974 177.196167,13.968015 
	C176.776184,17.899235 176.899155,21.888464 175.930954,25.892294 
	C172.686768,26.580534 169.442581,27.268772 166.115646,28.892105 
	C166.015411,33.883190 165.915161,38.874271 164.904968,43.897617 
	C158.290070,43.921448 151.675186,43.945278 144.798553,43.349430 
M459.095642,8.688988 
	C436.412323,8.693344 413.729004,8.697701 390.476715,8.691890 
	C389.831299,10.172591 388.535431,11.701474 388.641022,13.126543 
	C389.698090,27.396460 391.108673,41.640442 392.136230,55.912140 
	C392.459961,60.408627 394.380615,61.949238 398.741028,61.873096 
	C409.058380,61.692913 419.384796,61.992039 429.700317,61.765858 
	C434.614380,61.658112 436.672974,63.775703 436.920319,68.450256 
	C437.139923,72.600792 437.614929,76.737816 437.044281,80.934311 
	C423.713654,80.996307 410.383026,81.058311 396.400787,81.210327 
	C395.879272,82.624908 394.863556,84.061646 394.925812,85.450058 
	C395.141602,90.264221 395.732086,95.061592 395.894440,100.592499 
	C394.933197,105.627235 393.971954,110.661972 392.454010,116.180382 
	C391.410797,118.405128 390.237549,120.579659 389.354706,122.866318 
	C388.012909,126.341736 388.972168,128.148727 393.076813,128.131638 
	C414.520935,128.042282 435.965729,128.050278 457.409973,128.121826 
	C460.529724,128.132233 462.378479,126.903015 463.413910,124.014519 
	C464.983795,119.635086 466.692413,115.305374 468.782288,110.472626 
	C470.193756,106.988884 471.605255,103.505150 473.075745,99.103127 
	C471.063507,82.078781 469.112885,65.046501 466.926300,48.044575 
	C466.744110,46.627979 464.969757,45.416142 463.009460,44.044666 
	C450.017883,44.021908 437.026276,43.999149 423.811798,43.183025 
	C423.170776,37.450527 422.529755,31.718033 422.845093,25.978701 
	C434.489075,25.972811 446.133392,26.010183 457.776703,25.918299 
	C459.709381,25.903048 461.637665,25.323799 463.626831,24.238493 
	C463.292480,20.468712 463.161530,16.664045 462.523804,12.946313 
	C462.268280,11.456929 460.897522,10.158856 459.095642,8.688988 
M294.728638,113.927895 
	C294.831146,111.601852 294.933655,109.275818 295.291504,106.226555 
	C295.537201,104.162552 295.782898,102.098549 296.213501,99.418854 
	C296.107086,97.940742 296.000702,96.462624 295.926453,94.050888 
	C295.479919,78.242668 295.033386,62.434444 294.628265,45.895580 
	C294.378357,35.105766 294.247131,24.310509 293.753143,13.531879 
	C293.677246,11.875220 291.931122,10.295108 290.026825,8.630657 
	C267.349670,8.666045 244.672531,8.701433 221.414886,8.862028 
	C220.972656,9.502439 220.152252,10.138114 220.144150,10.783958 
	C219.988953,23.176313 219.929138,35.569862 219.788773,48.902966 
	C219.590866,64.596390 219.392960,80.289810 219.119781,96.757957 
	C219.132187,97.792297 219.144577,98.826630 219.108978,100.814476 
	C219.209900,106.339577 219.310806,111.864685 219.429565,118.139572 
	C220.248901,129.238678 219.448181,128.041306 229.939575,128.088043 
	C246.732285,128.162857 263.525848,128.169022 280.318542,128.090302 
	C295.745972,128.018005 293.405518,129.890305 294.728638,113.927895 
M15.455041,115.761787 
	C16.590004,118.703148 17.341084,121.888641 18.999784,124.496941 
	C20.042517,126.136650 22.435499,127.902344 24.241264,127.922173 
	C45.894661,128.159851 67.551636,128.048706 89.207405,128.114822 
	C93.105522,128.126724 93.797340,126.330246 92.711403,123.051369 
	C91.404533,119.105415 90.152908,115.141159 88.806419,110.393761 
	C87.811592,106.869049 86.816757,103.344345 85.909447,99.001175 
	C86.392624,94.039909 86.921669,89.082603 87.351189,84.116699 
	C89.399170,60.438789 91.467804,36.762291 93.328773,13.069555 
	C93.437126,11.690166 91.785202,10.172515 90.023666,8.653056 
	C67.361725,8.693439 44.699780,8.733823 21.479967,8.821718 
	C20.745432,10.539301 19.590027,12.198797 19.343678,13.983757 
	C17.550179,26.978779 15.844984,39.987793 14.295629,53.014240 
	C12.433920,68.666832 10.754108,84.341064 9.109671,100.703247 
	C10.050257,102.770851 10.990844,104.838455 12.087446,107.642769 
	C13.151604,110.081779 14.215761,112.520782 15.455041,115.761787 
z"/>
<path fill="#000000" opacity="1.000000" stroke="none" 
	d="
M171.531342,1.000000 
	C171.672501,4.790270 171.181015,8.575522 171.064819,12.372259 
	C170.954529,15.976346 169.589493,18.099453 165.767532,17.976938 
	C161.421387,17.837622 159.860077,20.141428 160.044342,24.175507 
	C160.119827,25.827810 160.121002,27.497141 159.975296,29.142727 
	C159.755325,31.626738 160.745621,35.156525 156.945267,35.450687 
	C153.258881,35.736031 153.309845,32.356968 152.911407,29.764454 
	C152.534103,27.309561 152.463196,24.758072 151.705505,22.428627 
	C151.204224,20.887568 149.918762,18.724264 148.654861,18.468622 
	C144.402283,17.608482 143.661346,14.599048 143.181717,11.212643 
	C142.740891,8.100057 142.404358,4.972700 142.010956,1.425924 
	C151.687561,1.000000 161.375122,1.000000 171.531342,1.000000 
z"/>
<path fill="#000000" opacity="1.000000" stroke="none" 
	d="
M12.520824,1.000000 
	C11.210671,16.139648 9.491659,31.288050 7.608756,46.416050 
	C6.216280,57.603748 4.644982,68.769798 3.060249,79.932266 
	C2.836494,81.508339 2.083339,83.009254 1.287610,84.772476 
	C1.000000,56.999966 1.000000,28.999935 1.000000,1.000000 
	C4.743522,1.000000 8.392586,1.000000 12.520824,1.000000 
z"/>
<path fill="#000000" opacity="1.000000" stroke="none" 
	d="
M480.000000,76.531342 
	C479.061707,74.087090 477.714417,71.236069 477.262421,68.249573 
	C475.947144,59.557919 476.141052,50.446766 473.524902,42.204170 
	C471.468994,35.726784 471.373169,29.622700 471.168854,23.159061 
	C470.944305,16.054405 469.755432,8.980227 468.993347,1.446386 
	C472.648132,1.000000 476.296265,1.000000 480.000000,1.000000 
	C480.000000,26.020870 480.000000,51.041775 480.000000,76.531342 
z"/>
<path fill="#000000" opacity="1.000000" stroke="none" 
	d="
M142.468658,134.000000 
	C142.338776,130.049042 142.774750,126.103264 142.985382,122.145493 
	C143.152573,119.004364 144.409821,117.086861 147.747665,117.076233 
	C153.705002,117.057266 159.681808,116.825218 165.606903,117.266846 
	C167.169662,117.383316 169.426193,119.392105 169.881561,120.961998 
	C171.023331,124.898315 171.316650,129.080750 171.975128,133.582230 
	C162.312439,134.000000 152.624878,134.000000 142.468658,134.000000 
z"/>
<path fill="#000000" opacity="1.000000" stroke="none" 
	d="
M1.000000,107.468658 
	C4.519282,113.772423 8.084943,120.521408 11.527822,127.332451 
	C12.483419,129.222900 13.074786,131.297470 13.916629,133.643784 
	C9.714643,134.000000 5.429286,134.000000 1.000000,134.000000 
	C1.000000,125.312851 1.000000,116.625084 1.000000,107.468658 
z"/>
<path fill="#000000" opacity="1.000000" stroke="none" 
	d="
M468.479187,134.000000 
	C471.795288,126.095512 475.590576,118.191017 479.692932,110.143265 
	C480.000000,117.896706 480.000000,125.793404 480.000000,134.000000 
	C476.325256,134.000000 472.641815,134.000000 468.479187,134.000000 
z"/>
<path fill="#000000" opacity="1.000000" stroke="none" 
	d="
M381.555847,1.000000 
	C381.990234,1.330600 382.001434,1.663370 381.967407,1.991458 
	C381.660980,4.948628 381.770203,8.607174 377.673462,8.596484 
	C373.153168,8.584690 374.273926,4.649315 373.996155,1.428324 
	C376.370575,1.000000 378.741119,1.000000 381.555847,1.000000 
z"/>
<path fill="#000000" opacity="1.000000" stroke="none" 
	d="
M373.444153,134.000000 
	C373.155457,133.361649 373.141296,132.601730 373.496307,132.106369 
	C374.892609,130.158066 376.387970,126.716415 377.877808,126.700203 
	C381.934113,126.656036 380.670593,130.576126 381.020569,133.573822 
	C378.629425,134.000000 376.258881,134.000000 373.444153,134.000000 
z"/>
<path fill="#4A474A" opacity="1.000000" stroke="none" 
	d="
M142.437866,80.515320 
	C142.621170,76.058792 142.800339,71.602097 142.989182,67.145805 
	C143.118195,64.101151 142.239532,62.005833 138.675629,61.853264 
	C135.249298,61.706581 132.705261,62.569756 132.431152,66.462112 
	C131.885498,74.210175 131.453842,81.966240 130.916946,89.714973 
	C130.699844,92.848274 130.330536,95.971031 129.695404,99.399696 
	C128.588745,99.083687 127.817162,98.466560 127.157982,97.468857 
	C127.821846,91.738098 128.373306,86.387924 128.940308,80.568420 
	C128.932434,76.609596 128.978424,73.117905 128.867615,69.631187 
	C128.736145,65.494354 126.694656,63.101791 122.374481,63.078552 
	C118.220284,63.056210 114.064751,63.031216 109.911720,63.109100 
	C105.342827,63.194786 102.907333,65.776627 102.289925,70.133377 
	C101.777367,73.750320 101.452271,77.393837 101.039658,81.484650 
	C100.686241,87.249123 100.337296,92.554535 99.813126,98.096344 
	C98.817825,98.816566 97.997749,99.300369 97.177673,99.784180 
	C98.672737,80.739311 100.167786,61.694439 101.976517,42.533463 
	C104.352600,43.887875 106.397362,46.593140 108.480354,46.622898 
	C119.651329,46.782478 130.831833,46.275578 142.476776,45.998489 
	C149.363297,45.996071 155.785645,46.103699 162.197769,45.896057 
	C163.424118,45.856342 164.610245,44.574261 165.814926,43.865356 
	C165.915161,38.874271 166.015411,33.883190 166.508865,28.430695 
	C167.606613,27.988997 168.311157,28.008709 169.012527,28.493145 
	C169.016296,32.101940 168.938004,35.249023 169.048782,38.389435 
	C169.249207,44.071243 170.802429,45.697758 176.590164,45.902275 
	C181.879471,46.089176 187.182220,45.874889 192.473755,46.024384 
	C198.995117,46.208622 205.313690,46.252136 207.273117,38.023380 
	C207.406082,37.464966 208.136078,37.048725 208.588409,36.566360 
	C208.486694,46.198715 208.393906,55.831173 208.280945,65.463394 
	C208.150314,76.601738 208.001938,87.739868 207.560120,99.251572 
	C206.510239,99.028969 205.761490,98.432899 205.008362,97.389877 
	C205.305069,91.650017 205.606140,86.357094 205.857635,80.645668 
	C205.525574,77.102028 205.090500,73.981506 204.996048,70.850708 
	C204.851212,66.049339 202.464539,62.962711 197.764038,63.282413 
	C191.364136,63.717697 183.496765,59.598541 179.285950,68.249306 
	C178.865646,69.112778 178.749405,70.169510 178.679047,71.149963 
	C178.419235,74.769753 178.238007,78.395172 178.023682,82.483330 
	C178.008743,87.906761 177.997345,92.865334 177.779388,98.055588 
	C176.718948,98.852776 175.865082,99.418297 175.011215,99.983810 
	C175.220428,89.339600 175.328674,78.691864 175.698013,68.053207 
	C175.814774,64.690079 175.775269,62.038383 171.438766,61.830433 
	C167.531006,61.643044 164.928070,62.588387 164.956711,67.191872 
	C164.982559,71.348801 164.697372,75.507675 164.264969,80.095291 
	C163.000824,79.981651 162.021042,79.438416 161.150574,78.509132 
	C161.460922,74.984352 161.907196,71.837730 161.806747,68.708672 
	C161.648132,63.766891 158.096664,63.019688 154.089691,63.028099 
	C150.154556,63.036362 146.646347,63.559734 146.142273,68.523903 
	C145.789673,71.996445 145.377121,75.462914 144.831970,79.147308 
	C143.927658,79.746796 143.182770,80.131058 142.437866,80.515320 
z"/>
<path fill="#302D30" opacity="1.000000" stroke="none" 
	d="
M85.821922,99.819633 
	C86.816757,103.344345 87.811592,106.869049 88.652878,111.008667 
	C88.608742,114.351723 88.392899,117.141129 88.892860,119.795731 
	C90.061310,125.999748 89.562416,126.879929 83.238518,126.904175 
	C67.632462,126.964020 52.025566,127.007523 36.419914,126.910988 
	C20.539234,126.812752 24.476982,128.564789 17.063856,114.678528 
	C15.344502,111.905014 13.637966,109.405540 11.931430,106.906059 
	C10.990844,104.838455 10.050257,102.770851 9.346245,100.244141 
	C10.385664,99.149841 11.188510,98.514656 12.460698,97.897438 
	C36.296745,97.907784 59.663448,97.900169 83.206345,98.125687 
	C84.195663,98.845757 85.008797,99.332695 85.821922,99.819633 
z"/>
<path fill="#474447" opacity="1.000000" stroke="none" 
	d="
M396.180023,99.865349 
	C395.732086,95.061592 395.141602,90.264221 394.925812,85.450058 
	C394.863556,84.061646 395.879272,82.624908 396.755951,81.579224 
	C397.398071,84.750710 397.971924,87.559769 397.908813,90.354454 
	C397.797302,95.292580 400.040985,97.100800 404.846954,97.070625 
	C424.247833,96.948807 443.650024,97.059822 463.051483,96.999390 
	C469.251007,96.980080 470.024200,95.977119 469.397675,89.958885 
	C469.191895,87.982307 469.116058,85.992218 468.927734,83.605759 
	C468.255127,79.128662 467.635559,75.054115 467.011078,70.549850 
	C466.965668,69.126167 466.972809,68.127586 466.877289,67.138931 
	C466.098755,59.082272 463.955322,57.098145 455.885529,57.005264 
	C452.403442,56.965191 448.920319,56.972157 445.438049,57.001202 
	C438.153809,57.061947 438.095642,57.118279 438.942505,64.104324 
	C439.221405,66.405128 439.631531,68.690025 440.018097,71.388275 
	C440.120361,75.114090 442.267090,78.879646 438.004272,81.178055 
	C437.985413,81.080116 437.977203,80.880798 437.977203,80.880798 
	C437.614929,76.737816 437.139923,72.600792 436.920319,68.450256 
	C436.672974,63.775703 434.614380,61.658112 429.700317,61.765858 
	C419.384796,61.992039 409.058380,61.692913 398.741028,61.873096 
	C394.380615,61.949238 392.459961,60.408627 392.136230,55.912140 
	C391.108673,41.640442 389.698090,27.396460 388.641022,13.126543 
	C388.535431,11.701474 389.831299,10.172591 390.752167,9.061416 
	C391.023499,9.915264 391.019348,10.399586 391.097870,11.294453 
	C391.464386,15.462627 391.748230,19.220257 392.087219,23.385494 
	C394.042053,36.000652 394.042053,36.000710 406.454987,36.000572 
	C407.287292,36.000565 408.119598,36.002876 408.951874,35.997051 
	C416.853210,35.941769 416.829742,35.933159 419.405823,28.529453 
	C419.721222,27.622921 420.450012,26.860216 421.212769,26.022449 
	C421.438293,26.014044 421.888733,25.985535 421.888733,25.985535 
	C422.529755,31.718033 423.170776,37.450527 423.736450,43.671932 
	C423.525299,44.254234 423.366302,44.327126 423.260284,44.446892 
	C423.158569,44.561802 423.111816,44.725342 423.040894,44.867496 
	C424.042511,45.235470 425.041992,45.916473 426.046082,45.923370 
	C437.012421,45.998730 447.980652,46.046738 458.945129,45.884434 
	C460.616852,45.859688 462.272186,44.728577 463.935120,44.109177 
	C464.969757,45.416142 466.744110,46.627979 466.926300,48.044575 
	C469.112885,65.046501 471.063507,82.078781 472.576355,99.541397 
	C446.777954,99.941559 421.479004,99.903458 396.180023,99.865349 
z"/>
<path fill="#302D30" opacity="1.000000" stroke="none" 
	d="
M396.037231,100.228928 
	C421.479004,99.903458 446.777954,99.941559 472.546814,100.000542 
	C471.605255,103.505150 470.193756,106.988884 468.254059,110.908241 
	C465.743225,114.537346 463.332977,117.549622 461.883942,120.969215 
	C459.981201,125.459396 457.075836,127.060219 452.291199,127.001945 
	C436.046295,126.804100 419.796844,126.843857 403.550293,126.959305 
	C389.894745,127.056335 391.791687,126.023338 393.010681,115.696709 
	C393.971954,110.661972 394.933197,105.627235 396.037231,100.228928 
z"/>
<path fill="#302D30" opacity="1.000000" stroke="none" 
	d="
M296.028625,100.034531 
	C295.782898,102.098549 295.537201,104.162552 294.885742,106.812424 
	C293.684784,110.282951 292.889618,113.167618 292.042084,116.456451 
	C291.719086,118.496849 291.323700,120.123962 291.203094,121.771187 
	C290.929718,125.503464 288.880829,126.929176 285.293732,126.920433 
	C266.383179,126.874313 247.472382,126.873390 228.561798,126.914642 
	C224.931122,126.922562 223.233749,125.354523 222.655106,121.697823 
	C222.407013,120.129990 220.542053,118.818008 219.411728,117.389786 
	C219.310806,111.864685 219.209900,106.339577 219.587814,100.349045 
	C245.387299,99.933914 270.707947,99.984222 296.028625,100.034531 
z"/>
<path fill="#302D30" opacity="1.000000" stroke="none" 
	d="
M373.817657,97.821167 
	C372.910950,102.372559 372.004242,106.923950 370.653351,111.962448 
	C368.893402,114.854424 367.159973,117.126038 366.342133,119.689735 
	C364.111084,126.683487 364.088470,126.902725 356.640045,126.920212 
	C343.474304,126.951118 330.308441,126.935997 317.142609,126.930809 
	C307.105225,126.926857 307.105225,126.920441 308.043335,116.679420 
	C307.756714,113.508652 307.350311,110.711014 306.943878,107.913368 
	C307.106476,104.869728 307.269073,101.826088 307.816559,98.339767 
	C308.760071,97.734230 309.318726,97.571365 310.311737,97.438629 
	C330.880280,97.443581 351.014465,97.418411 371.401947,97.476112 
	C372.376068,97.646378 373.096863,97.733772 373.817657,97.821167 
z"/>
<path fill="#585558" opacity="1.000000" stroke="none" 
	d="
M468.980835,84.008308 
	C469.116058,85.992218 469.191895,87.982307 469.397675,89.958885 
	C470.024200,95.977119 469.251007,96.980080 463.051483,96.999390 
	C443.650024,97.059822 424.247833,96.948807 404.846954,97.070625 
	C400.040985,97.100800 397.797302,95.292580 397.908813,90.354454 
	C397.971924,87.559769 397.398071,84.750710 397.081757,81.534218 
	C410.383026,81.058311 423.713654,80.996307 437.510742,80.907555 
	C437.977203,80.880798 437.985413,81.080116 438.184174,81.424911 
	C440.353546,82.239677 442.308472,83.025742 444.297516,83.124420 
	C452.519653,83.532318 460.752136,83.732086 468.980835,84.008308 
z"/>
<path fill="#484648" opacity="1.000000" stroke="none" 
	d="
M85.865685,99.410400 
	C85.008797,99.332695 84.195663,98.845757 83.316895,97.738388 
	C83.825073,91.084076 84.398903,85.050186 84.986603,78.574188 
	C85.294685,74.674835 85.692955,71.222504 85.856430,67.759094 
	C86.054893,63.554672 84.021683,61.163448 79.706207,61.104603 
	C75.078453,61.041492 70.446144,61.012493 65.821068,61.147968 
	C62.004166,61.259769 59.604046,63.292320 59.124615,67.151352 
	C58.636333,71.081604 58.348774,75.036789 57.721252,79.169968 
	C56.535080,79.819206 55.600975,80.279526 54.725174,80.326019 
	C56.569897,61.935432 58.356316,43.958668 60.359531,26.000916 
	C60.576328,26.019926 61.010941,26.043747 61.249947,26.295881 
	C61.872654,28.440294 62.727978,30.379045 62.546993,32.215679 
	C62.098202,36.770042 64.078667,38.779133 68.419327,38.913925 
	C70.084320,38.965626 71.750671,38.991760 73.416481,38.995853 
	C88.362930,39.032593 88.391327,39.004612 89.960030,23.526470 
	C90.308517,19.002470 90.653114,14.931784 90.990524,10.504225 
	C90.973038,9.671305 90.962746,9.195257 90.952454,8.719208 
	C91.785202,10.172515 93.437126,11.690166 93.328773,13.069555 
	C91.467804,36.762291 89.399170,60.438789 87.351189,84.116699 
	C86.921669,89.082603 86.392624,94.039909 85.865685,99.410400 
z"/>
<path fill="#3D3B3D" opacity="1.000000" stroke="none" 
	d="
M422.366913,25.982117 
	C421.888733,25.985535 421.438293,26.014044 421.044861,25.738361 
	C418.714935,24.911016 416.799957,23.986923 414.838165,23.873585 
	C407.244232,23.434872 399.635406,23.254486 392.032104,22.977886 
	C391.748230,19.220257 391.464386,15.462627 391.561249,11.287197 
	C414.623810,10.878036 437.305695,10.886674 459.989502,11.352074 
	C460.286224,16.450825 459.359009,21.424021 463.567963,25.005180 
	C461.637665,25.323799 459.709381,25.903048 457.776703,25.918299 
	C446.133392,26.010183 434.489075,25.972811 422.366913,25.982117 
z"/>
<path fill="#585558" opacity="1.000000" stroke="none" 
	d="
M371.148621,97.393242 
	C351.014465,97.418411 330.880280,97.443581 310.337280,96.958466 
	C309.071045,93.268089 308.213684,90.087990 307.356323,86.907890 
	C307.351807,85.877235 307.347260,84.846581 307.782166,83.388092 
	C316.807892,82.756058 325.396851,82.622208 333.978485,82.295769 
	C336.000397,82.218857 337.997589,81.492775 340.461060,81.044601 
	C344.218506,80.913185 347.521057,80.802505 350.872589,80.808441 
	C350.921570,80.925064 351.040405,81.148399 351.288391,81.352722 
	C353.281860,81.786812 355.021973,82.154579 356.773743,82.222740 
	C364.832336,82.536308 372.894135,82.766266 380.957703,83.443184 
	C380.979095,85.250084 380.997589,86.640022 380.580750,88.052650 
	C377.833862,88.096413 375.522278,88.117477 372.875031,88.247849 
	C368.496521,90.818314 371.083679,94.299873 371.148621,97.393242 
z"/>
<path fill="#484648" opacity="1.000000" stroke="none" 
	d="
M11.991354,97.879471 
	C11.188510,98.514656 10.385664,99.149841 9.289179,99.895477 
	C10.754108,84.341064 12.433920,68.666832 14.295629,53.014240 
	C15.844984,39.987793 17.550179,26.978779 19.343678,13.983757 
	C19.590027,12.198797 20.745432,10.539301 21.753357,9.150986 
	C22.020702,9.950515 22.014656,10.420775 22.006561,11.350920 
	C21.666630,16.209620 21.328749,20.608435 20.860052,25.391527 
	C20.514574,26.909445 20.195152,28.034573 20.102219,29.178108 
	C19.489811,36.713772 20.855165,39.322536 26.469872,39.721363 
	C40.881500,40.745049 45.454170,39.743206 46.245026,32.529205 
	C46.334599,31.712133 46.415272,30.823435 46.790043,30.123133 
	C47.547256,28.708181 48.503723,27.399860 49.371700,26.497269 
	C49.116779,29.756187 48.891792,32.567722 48.615620,35.374222 
	C47.121296,50.559708 45.614304,65.743942 43.808800,80.847214 
	C42.665562,80.180351 41.825199,79.594894 41.053196,78.594337 
	C41.394188,76.042938 41.799881,73.913872 41.916512,71.769081 
	C42.431267,62.302776 41.219917,61.034851 31.890539,60.997635 
	C15.799292,60.933441 15.187614,61.550156 13.976137,79.431412 
	C13.284708,85.858864 12.638030,91.869164 11.991354,97.879471 
z"/>
<path fill="#454245" opacity="1.000000" stroke="none" 
	d="
M142.009033,45.998909 
	C130.831833,46.275578 119.651329,46.782478 108.480354,46.622898 
	C106.397362,46.593140 104.352600,43.887875 102.064163,42.130989 
	C102.517853,32.136829 103.105873,22.420780 103.977859,12.730284 
	C104.106064,11.305477 105.582016,10.001945 106.731735,9.019494 
	C107.029854,9.873191 107.030609,10.349694 107.002548,11.266795 
	C106.879524,12.693704 106.808762,13.682909 106.687439,14.665874 
	C105.551353,23.870834 106.504272,24.936863 115.953323,25.002419 
	C116.448807,25.005856 116.944321,25.003231 117.439812,25.005766 
	C133.671646,25.088825 131.051270,25.106092 132.985580,10.540216 
	C132.974808,9.673609 132.966278,9.178328 132.957764,8.683046 
	C133.877304,10.049904 135.511246,11.381456 135.580887,12.790317 
	C135.780350,16.826468 135.345551,20.893961 134.980621,25.484459 
	C135.128510,26.638920 135.425842,27.774796 135.788071,27.795887 
	C138.838425,27.973503 141.900650,27.947098 144.959305,27.982056 
	C144.944214,29.387632 144.929138,30.793207 144.605591,32.747482 
	C141.937637,34.821285 142.038986,36.349850 144.290695,37.881432 
	C144.318817,39.009674 144.346939,40.137917 144.110962,41.795963 
	C143.232208,42.886051 142.617554,43.446331 142.001892,44.338669 
	C142.003601,45.113453 142.006317,45.556183 142.009033,45.998909 
z"/>
<path fill="#302D30" opacity="1.000000" stroke="none" 
	d="
M97.212677,100.184143 
	C97.997749,99.300369 98.817825,98.816566 100.282593,98.119553 
	C109.633385,97.887375 118.339478,97.868408 127.045578,97.849434 
	C127.817162,98.466560 128.588745,99.083687 129.632385,99.822357 
	C130.261444,101.709923 130.618469,103.475945 130.760559,105.872177 
	C130.707336,109.009056 130.869064,111.515732 131.036835,114.452789 
	C131.277344,117.191696 131.281769,119.553040 131.797165,121.797028 
	C132.693756,125.700729 131.007690,126.992439 127.391289,126.922920 
	C123.733376,126.852600 120.046143,126.646133 116.419273,126.994308 
	C110.345642,127.577370 106.023125,126.039703 104.620575,119.393517 
	C104.300972,117.879036 102.969185,116.578163 102.103264,115.178970 
	C100.484734,110.314011 98.866203,105.449059 97.212677,100.184143 
z"/>
<path fill="#302D30" opacity="1.000000" stroke="none" 
	d="
M175.005325,100.417633 
	C175.865082,99.418297 176.718948,98.852776 178.249069,98.082413 
	C187.621109,97.863983 196.316925,97.850403 205.012726,97.836823 
	C205.761490,98.432899 206.510239,99.028969 207.538544,99.706558 
	C207.883224,102.561783 207.948349,105.335480 207.769485,108.851547 
	C207.041443,112.976891 206.291595,116.347305 206.130890,119.745575 
	C205.833038,126.044724 205.220245,126.818481 198.792068,126.902519 
	C195.144211,126.950211 191.484894,126.737267 187.849197,126.952866 
	C182.814453,127.251427 180.299591,125.440498 179.706421,120.071144 
	C179.289566,116.298058 177.334152,112.694931 176.065765,109.015907 
	C175.710342,106.294426 175.354889,103.572945 175.005325,100.417633 
z"/>
<path fill="#454245" opacity="1.000000" stroke="none" 
	d="
M208.668808,36.217606 
	C208.136078,37.048725 207.406082,37.464966 207.273117,38.023380 
	C205.313690,46.252136 198.995117,46.208622 192.473755,46.024384 
	C187.182220,45.874889 181.879471,46.089176 176.590164,45.902275 
	C170.802429,45.697758 169.249207,44.071243 169.048782,38.389435 
	C168.938004,35.249023 169.016296,32.101940 169.459335,28.487835 
	C173.251175,27.358807 176.593033,26.699808 179.965485,26.018642 
	C179.996048,25.996475 180.057175,25.952116 180.456802,26.053764 
	C187.416061,26.405027 193.974014,26.735844 200.535995,26.872370 
	C204.197510,26.948545 205.871078,24.794798 205.926559,21.253517 
	C205.980698,17.798311 206.025970,14.342966 206.351624,10.779444 
	C207.381470,10.429823 208.134811,10.188439 208.888123,9.947056 
	C208.841827,18.587652 208.795517,27.228247 208.668808,36.217606 
z"/>
<path fill="#4C494C" opacity="1.000000" stroke="none" 
	d="
M219.195038,95.983231 
	C219.392960,80.289810 219.590866,64.596390 220.248352,48.500221 
	C222.007660,48.300205 223.312241,48.704285 224.606384,48.673302 
	C233.668503,48.456383 243.029831,51.197914 251.687119,46.497963 
	C251.865906,58.264069 251.965271,69.568588 252.043213,80.957748 
	C252.021774,81.042374 251.954773,81.203598 251.645813,81.000015 
	C250.540787,78.058228 249.293808,75.358521 249.055893,72.572647 
	C248.712280,68.549232 246.996063,66.300621 242.980545,66.195358 
	C238.004486,66.064911 233.019943,66.065857 228.043732,66.192917 
	C224.035843,66.295242 222.012665,68.490753 222.049393,72.560646 
	C222.083847,76.379814 222.045258,80.199646 222.035583,84.481277 
	C222.004395,88.972191 221.976440,93.001007 221.674469,96.919617 
	C220.665298,96.534012 219.930161,96.258621 219.195038,95.983231 
z"/>
<path fill="#474447" opacity="1.000000" stroke="none" 
	d="
M367.247253,9.969831 
	C367.556458,15.183941 368.702301,19.278292 375.585297,17.551144 
	C376.307434,17.369940 378.583496,19.986399 378.726746,21.443609 
	C379.663605,30.976940 380.211487,40.548500 380.390564,50.562473 
	C369.636536,51.015011 359.378387,51.012642 348.988647,50.616821 
	C348.286469,42.149570 347.715851,34.075771 347.152100,26.017290 
	C347.158997,26.032604 347.194031,26.028887 347.481323,26.179098 
	C348.357147,26.896482 349.289764,27.367062 349.480316,28.045950 
	C351.167633,34.056335 355.598297,35.298248 361.056122,35.015743 
	C363.537170,34.887318 366.128448,35.406799 368.490845,34.859856 
	C371.166901,34.240311 375.456299,33.185364 375.842285,31.559551 
	C376.755219,27.714161 377.604523,22.902864 372.522766,20.033913 
	C365.502045,19.493620 365.144135,19.033216 365.012939,10.646728 
	C365.041534,10.425723 365.108887,9.985143 365.463806,9.982694 
	C366.294922,9.976773 366.771088,9.973302 367.247253,9.969831 
z"/>
<path fill="#4C494C" opacity="1.000000" stroke="none" 
	d="
M294.586884,46.626225 
	C295.033386,62.434444 295.479919,78.242668 295.592621,94.519485 
	C294.834686,94.990692 294.410614,94.993317 293.858643,94.614090 
	C293.474396,90.827873 293.218079,87.423500 292.969391,83.567451 
	C292.977051,80.411751 292.977081,77.707726 292.970245,74.589142 
	C292.319641,66.309349 291.037842,65.090210 283.259369,65.008560 
	C280.615051,64.980797 277.970123,64.986938 275.325684,65.005157 
	C267.020721,65.062386 266.263092,65.799171 265.984253,74.387741 
	C264.991791,76.918022 264.021179,79.062996 263.017029,81.128662 
	C262.983551,81.049347 262.940552,80.882599 262.955872,80.422607 
	C262.928711,68.973434 262.886261,57.984257 263.214600,47.124180 
	C273.975433,49.822620 284.324371,50.360031 294.586884,46.626225 
z"/>
<path fill="#454245" opacity="1.000000" stroke="none" 
	d="
M251.607712,46.036385 
	C243.029831,51.197914 233.668503,48.456383 224.606384,48.673302 
	C223.312241,48.704285 222.007660,48.300205 220.278748,48.030319 
	C219.929138,35.569862 219.988953,23.176313 220.144150,10.783958 
	C220.152252,10.138114 220.972656,9.502439 221.830017,9.063080 
	C222.506958,9.783977 222.768768,10.303822 223.022491,11.299681 
	C223.010239,15.183034 223.006058,18.590374 223.003159,22.429199 
	C223.195724,26.112177 222.378830,30.564074 226.544662,31.208208 
	C232.382401,32.110851 238.502991,32.158543 244.366333,31.447828 
	C246.754807,31.158314 248.786041,27.921700 251.195923,26.016523 
	C251.412064,26.007101 251.843750,25.977667 251.824310,26.447186 
	C251.739151,33.289928 251.673431,39.663158 251.607712,46.036385 
z"/>
<path fill="#454245" opacity="1.000000" stroke="none" 
	d="
M294.607574,46.260902 
	C284.324371,50.360031 273.975433,49.822620 263.115448,46.730106 
	C262.467407,39.467377 262.289368,32.727818 262.129883,25.998432 
	C262.148407,26.008606 262.191162,26.008314 262.478302,26.164989 
	C265.914917,33.025059 271.720642,33.625790 278.075348,33.014557 
	C279.057098,32.920124 280.055603,33.004673 281.046295,32.997231 
	C289.979645,32.930119 290.853943,32.050076 290.993927,22.531870 
	C290.991669,18.351067 290.988892,14.630946 290.984070,10.539049 
	C290.973846,9.671379 290.965637,9.175486 290.957428,8.679594 
	C291.931122,10.295108 293.677246,11.875220 293.753143,13.531879 
	C294.247131,24.310509 294.378357,35.105766 294.607574,46.260902 
z"/>
<path fill="#4C494C" opacity="1.000000" stroke="none" 
	d="
M349.120270,51.010273 
	C359.378387,51.012642 369.636536,51.015011 380.347656,51.020817 
	C381.837494,63.050350 382.874359,75.076447 383.568085,87.558182 
	C382.488647,88.019203 381.752380,88.024582 381.016052,88.029953 
	C380.997589,86.640022 380.979095,85.250084 380.927917,83.019699 
	C380.572479,79.203209 380.141724,76.233978 379.953369,73.249458 
	C379.698578,69.212608 377.652557,67.137100 373.635406,67.096931 
	C368.645752,67.047020 363.655060,67.056831 358.665131,67.086853 
	C355.020691,67.108772 353.383850,69.005188 353.004028,72.631294 
	C352.702759,75.507332 351.720337,78.312027 351.040405,81.148399 
	C351.040405,81.148399 350.921570,80.925064 350.837952,80.398918 
	C350.209625,70.251938 349.664948,60.631107 349.120270,51.010273 
z"/>
<path fill="#302D30" opacity="1.000000" stroke="none" 
	d="
M142.454865,80.947365 
	C143.182770,80.131058 143.927658,79.746796 145.299515,79.162643 
	C150.964737,78.940231 156.003006,78.917702 161.041275,78.895172 
	C162.021042,79.438416 163.000824,79.981651 164.256577,80.534798 
	C164.870499,83.873329 165.208420,87.201958 165.325089,91.077881 
	C164.841385,94.948372 164.258408,98.284157 164.388336,101.591934 
	C164.606781,107.153893 164.144623,107.905724 158.465286,108.018333 
	C155.658020,108.073997 152.847198,107.951370 149.965317,107.518959 
	C148.224411,102.412331 146.556168,97.696152 144.887939,92.979973 
	C144.082596,89.113121 143.277237,85.246269 142.454865,80.947365 
z"/>
<path fill="#4C494C" opacity="1.000000" stroke="none" 
	d="
M306.242249,64.000839 
	C306.177185,60.639294 306.112122,57.277760 306.456177,53.366638 
	C317.174774,52.552383 327.484253,52.287708 337.842590,52.481007 
	C338.398773,62.211315 338.906097,71.483650 339.115387,80.558975 
	C337.874573,77.801941 336.469574,75.306900 336.098419,72.666519 
	C335.554901,68.799980 333.718384,67.046539 329.924988,67.049820 
	C322.953583,67.055847 315.982208,67.028625 308.895691,66.729706 
	C307.934479,65.629700 307.088348,64.815269 306.242249,64.000839 
z"/>
<path fill="#474447" opacity="1.000000" stroke="none" 
	d="
M337.793701,52.023033 
	C327.484253,52.287708 317.174774,52.552383 306.463074,52.909027 
	C305.411865,38.668175 304.762817,24.335352 304.417847,9.640125 
	C305.430756,9.502994 306.139526,9.728263 306.891846,10.185151 
	C306.935333,10.416770 307.013733,10.881542 307.011902,11.342657 
	C307.333160,15.208922 307.656250,18.614073 307.981445,22.471369 
	C307.989136,25.948772 307.994690,28.974031 308.005615,32.420856 
	C308.472656,39.766975 309.544861,40.830090 316.378906,40.974419 
	C319.194550,41.033875 322.012817,41.021614 324.829193,40.985817 
	C332.465759,40.888752 333.543823,39.819004 334.010071,31.618145 
	C334.675690,29.505306 335.328766,27.771433 336.195038,26.026760 
	C336.408203,26.015963 336.833679,25.981165 336.839111,26.446184 
	C337.160919,35.281815 337.477325,43.652424 337.793701,52.023033 
z"/>
<path fill="#535053" opacity="1.000000" stroke="none" 
	d="
M309.010803,67.015266 
	C315.982208,67.028625 322.953583,67.055847 329.924988,67.049820 
	C333.718384,67.046539 335.554901,68.799980 336.098419,72.666519 
	C336.469574,75.306900 337.874573,77.801941 339.270264,80.623055 
	C339.723145,80.884148 340.006165,81.065323 340.006165,81.065323 
	C337.997589,81.492775 336.000397,82.218857 333.978485,82.295769 
	C325.396851,82.622208 316.807892,82.756058 307.829773,83.004105 
	C307.372986,82.595261 307.307983,82.142570 307.465393,81.122520 
	C308.128784,76.041870 308.569794,71.528564 309.010803,67.015266 
z"/>
<path fill="#454245" opacity="1.000000" stroke="none" 
	d="
M293.986511,94.995941 
	C294.410614,94.993317 294.834686,94.990692 295.576538,94.986298 
	C296.000702,96.462624 296.107086,97.940742 296.121033,99.726692 
	C270.707947,99.984222 245.387299,99.933914 219.611816,99.872284 
	C219.144577,98.826630 219.132187,97.792297 219.157410,96.370590 
	C219.930161,96.258621 220.665298,96.534012 222.081863,97.012367 
	C244.986649,97.353981 267.210052,97.544708 289.433197,97.516792 
	C290.952026,97.514893 292.468781,95.874382 293.986511,94.995941 
z"/>
<path fill="#4C494C" opacity="1.000000" stroke="none" 
	d="
M17.076674,114.952560 
	C24.476982,128.564789 20.539234,126.812752 36.419914,126.910988 
	C52.025566,127.007523 67.632462,126.964020 83.238518,126.904175 
	C89.562416,126.879929 90.061310,125.999748 88.892860,119.795731 
	C88.392899,117.141129 88.608742,114.351723 88.688347,111.404198 
	C90.152908,115.141159 91.404533,119.105415 92.711403,123.051369 
	C93.797340,126.330246 93.105522,128.126724 89.207405,128.114822 
	C67.551636,128.048706 45.894661,128.159851 24.241264,127.922173 
	C22.435499,127.902344 20.042517,126.136650 18.999784,124.496941 
	C17.341084,121.888641 16.590004,118.703148 15.818069,115.364197 
	C16.479622,114.961929 16.778147,114.957245 17.076674,114.952560 
z"/>
<path fill="#4C494C" opacity="1.000000" stroke="none" 
	d="
M392.732361,115.938545 
	C391.791687,126.023338 389.894745,127.056335 403.550293,126.959305 
	C419.796844,126.843857 436.046295,126.804100 452.291199,127.001945 
	C457.075836,127.060219 459.981201,125.459396 461.883942,120.969215 
	C463.332977,117.549622 465.743225,114.537346 468.033936,111.149200 
	C466.692413,115.305374 464.983795,119.635086 463.413910,124.014519 
	C462.378479,126.903015 460.529724,128.132233 457.409973,128.121826 
	C435.965729,128.050278 414.520935,128.042282 393.076813,128.131638 
	C388.972168,128.148727 388.012909,126.341736 389.354706,122.866318 
	C390.237549,120.579659 391.410797,118.405128 392.732361,115.938545 
z"/>
<path fill="#4C494C" opacity="1.000000" stroke="none" 
	d="
M219.420654,117.764679 
	C220.542053,118.818008 222.407013,120.129990 222.655106,121.697823 
	C223.233749,125.354523 224.931122,126.922562 228.561798,126.914642 
	C247.472382,126.873390 266.383179,126.874313 285.293732,126.920433 
	C288.880829,126.929176 290.929718,125.503464 291.203094,121.771187 
	C291.323700,120.123962 291.719086,118.496849 292.350708,116.283195 
	C293.335938,115.335960 293.960175,114.966141 294.584442,114.596321 
	C293.405518,129.890305 295.745972,128.018005 280.318542,128.090302 
	C263.525848,128.169022 246.732285,128.162857 229.939575,128.088043 
	C219.448181,128.041306 220.248901,129.238678 219.420654,117.764679 
z"/>
<path fill="#4A474A" opacity="1.000000" stroke="none" 
	d="
M176.090881,109.453979 
	C177.334152,112.694931 179.289566,116.298058 179.706421,120.071144 
	C180.299591,125.440498 182.814453,127.251427 187.849197,126.952866 
	C191.484894,126.737267 195.144211,126.950211 198.792068,126.902519 
	C205.220245,126.818481 205.833038,126.044724 206.130890,119.745575 
	C206.291595,116.347305 207.041443,112.976891 207.756851,109.307983 
	C208.406952,113.661057 208.671158,118.320915 209.293488,122.932442 
	C209.788864,126.603149 208.590439,128.204025 204.791290,128.138794 
	C197.465515,128.013031 190.133850,127.992584 182.809082,128.143677 
	C178.976822,128.222748 177.388443,126.468666 177.170761,122.834648 
	C176.912003,118.514885 176.475494,114.205772 176.090881,109.453979 
z"/>
<path fill="#4C494C" opacity="1.000000" stroke="none" 
	d="
M307.923492,117.052551 
	C307.105225,126.920441 307.105225,126.926857 317.142609,126.930809 
	C330.308441,126.935997 343.474304,126.951118 356.640045,126.920212 
	C364.088470,126.902725 364.111084,126.683487 366.342133,119.689735 
	C367.159973,117.126038 368.893402,114.854424 370.502319,112.329208 
	C369.917603,115.761177 368.721985,119.271645 368.246948,122.877045 
	C367.721985,126.860992 365.783478,128.168762 361.935181,128.143692 
	C344.609283,128.030701 327.282135,128.126541 309.955597,128.081558 
	C304.425446,128.067184 303.872559,127.344170 304.654724,121.948738 
	C304.845673,120.631653 305.127930,119.327797 305.776062,117.589233 
	C306.763794,117.124596 307.343628,117.088577 307.923492,117.052551 
z"/>
<path fill="#4C494C" opacity="1.000000" stroke="none" 
	d="
M102.011108,115.488838 
	C102.969185,116.578163 104.300972,117.879036 104.620575,119.393517 
	C106.023125,126.039703 110.345642,127.577370 116.419273,126.994308 
	C120.046143,126.646133 123.733376,126.852600 127.391289,126.922920 
	C131.007690,126.992439 132.693756,125.700729 131.797165,121.797028 
	C131.281769,119.553040 131.277344,117.191696 131.284698,114.577515 
	C132.029251,114.511620 132.531998,114.751381 133.034744,114.991142 
	C133.784531,118.059029 134.905930,121.103897 135.098099,124.206322 
	C135.173203,125.418648 133.200897,127.830017 132.091873,127.872124 
	C123.952843,128.181152 115.783615,128.260757 107.656097,127.819595 
	C106.067749,127.733376 104.025528,125.316521 103.254868,123.519173 
	C102.253616,121.184059 102.314972,118.393333 102.011108,115.488838 
z"/>
<path fill="#585558" opacity="1.000000" stroke="none" 
	d="
M22.008612,10.891036 
	C22.014656,10.420775 22.020702,9.950515 22.032291,9.127230 
	C44.699780,8.733823 67.361725,8.693439 90.488060,8.686132 
	C90.962746,9.195257 90.973038,9.671305 90.521950,10.501617 
	C67.376587,10.867600 44.692600,10.879318 22.008612,10.891036 
z"/>
<path fill="#585558" opacity="1.000000" stroke="none" 
	d="
M459.987549,10.895313 
	C437.305695,10.886674 414.623810,10.878036 391.478577,10.876652 
	C391.019348,10.399586 391.023499,9.915264 391.036652,9.066500 
	C413.729004,8.697701 436.412323,8.693344 459.557556,9.085922 
	C460.008850,9.953675 459.998199,10.424494 459.987549,10.895313 
z"/>
<path fill="#575457" opacity="1.000000" stroke="none" 
	d="
M463.472290,44.076923 
	C462.272186,44.728577 460.616852,45.859688 458.945129,45.884434 
	C447.980652,46.046738 437.012421,45.998730 426.046082,45.923370 
	C425.041992,45.916473 424.042511,45.235470 423.040894,44.867496 
	C423.111816,44.725342 423.158569,44.561802 423.260284,44.446892 
	C423.366302,44.327126 423.525299,44.254234 423.847900,44.068615 
	C437.026276,43.999149 450.017883,44.021908 463.472290,44.076923 
z"/>
<path fill="#585558" opacity="1.000000" stroke="none" 
	d="
M290.492126,8.655125 
	C290.965637,9.175486 290.973846,9.671379 290.524414,10.525919 
	C267.721344,10.864266 245.375961,10.843966 223.030579,10.823668 
	C222.768768,10.303822 222.506958,9.783977 222.120270,9.000477 
	C244.672531,8.701433 267.349670,8.666045 290.492126,8.655125 
z"/>
<path fill="#4A474A" opacity="1.000000" stroke="none" 
	d="
M150.037994,107.909409 
	C152.847198,107.951370 155.658020,108.073997 158.465286,108.018333 
	C164.144623,107.905724 164.606781,107.153893 164.388336,101.591934 
	C164.258408,98.284157 164.841385,94.948372 165.322876,91.514328 
	C166.253952,95.653900 166.869629,99.923431 167.706848,104.149063 
	C168.451553,107.907684 167.396164,109.943848 163.248886,109.788063 
	C159.100677,109.632248 154.947372,109.611389 150.409348,109.077133 
	C150.027603,108.385063 150.032806,108.147232 150.037994,107.909409 
z"/>
<path fill="#585558" opacity="1.000000" stroke="none" 
	d="
M307.013733,10.881542 
	C307.013733,10.881542 306.935333,10.416770 306.922241,9.873233 
	C306.924500,9.120970 306.939880,8.912245 306.955231,8.703519 
	C326.004333,8.691757 345.053436,8.679996 364.586700,9.015240 
	C365.083527,9.569876 365.096222,9.777510 365.108887,9.985143 
	C365.108887,9.985143 365.041534,10.425723 364.585815,10.625174 
	C345.091339,10.843596 326.052521,10.862570 307.013733,10.881542 
z"/>
<path fill="#454245" opacity="1.000000" stroke="none" 
	d="
M176.800659,25.854031 
	C176.899155,21.888464 176.776184,17.899235 177.196167,13.968015 
	C177.386154,12.189974 178.655548,10.527253 179.840332,9.038088 
	C180.507599,9.783674 180.769745,10.303387 181.002594,11.267691 
	C180.667923,16.458893 180.362549,21.205505 180.057190,25.952116 
	C180.057175,25.952116 179.996048,25.996475 179.575653,25.992853 
	C178.370377,25.944164 177.585526,25.899097 176.800659,25.854031 
z"/>
<path fill="#535053" opacity="1.000000" stroke="none" 
	d="
M142.476776,45.998489 
	C142.006317,45.556183 142.003601,45.113453 142.383942,44.336926 
	C143.531433,43.991783 144.295868,43.980446 145.060287,43.969109 
	C151.675186,43.945278 158.290070,43.921448 165.359955,43.881485 
	C164.610245,44.574261 163.424118,45.856342 162.197769,45.896057 
	C155.785645,46.103699 149.363297,45.996071 142.476776,45.998489 
z"/>
<path fill="#585558" opacity="1.000000" stroke="none" 
	d="
M181.031876,10.823101 
	C180.769745,10.303387 180.507599,9.783674 180.120422,9.000366 
	C189.411682,8.965706 198.827972,9.194642 208.566193,9.685317 
	C208.134811,10.188439 207.381470,10.429823 205.876007,10.770559 
	C197.093201,10.854309 189.062546,10.838706 181.031876,10.823101 
z"/>
<path fill="#474447" opacity="1.000000" stroke="none" 
	d="
M459.989502,11.352073 
	C459.998199,10.424494 460.008850,9.953675 460.026917,9.128280 
	C460.897522,10.158856 462.268280,11.456929 462.523804,12.946313 
	C463.161530,16.664045 463.292480,20.468712 463.597412,24.621836 
	C459.359009,21.424021 460.286224,16.450825 459.989502,11.352073 
z"/>
<path fill="#4C494C" opacity="1.000000" stroke="none" 
	d="
M149.965317,107.518959 
	C150.032806,108.147232 150.027603,108.385063 150.013947,108.981750 
	C148.692612,107.563698 146.753113,105.958359 146.208954,103.970978 
	C145.320648,100.726547 145.342117,97.233017 144.933838,93.412277 
	C146.556168,97.696152 148.224411,102.412331 149.965317,107.518959 
z"/>
<path fill="#585558" opacity="1.000000" stroke="none" 
	d="
M107.031372,10.826197 
	C107.030609,10.349694 107.029854,9.873191 107.035736,9.038982 
	C115.370682,8.665193 123.698990,8.649107 132.492523,8.658034 
	C132.966278,9.178328 132.974808,9.673609 132.520660,10.527006 
	C123.715782,10.865481 115.373573,10.845840 107.031372,10.826197 
z"/>
<path fill="#4A474A" opacity="1.000000" stroke="none" 
	d="
M308.895691,66.729706 
	C308.569794,71.528564 308.128784,76.041870 307.450684,80.779541 
	C306.870667,75.628517 306.527740,70.253113 306.213531,64.439278 
	C307.088348,64.815269 307.934479,65.629700 308.895691,66.729706 
z"/>
<path fill="#302D30" opacity="1.000000" stroke="none" 
	d="
M380.580750,88.052650 
	C381.752380,88.024582 382.488647,88.019203 383.591614,87.979286 
	C382.003540,92.426994 377.956421,90.445114 374.166168,90.664017 
	C373.484863,89.639442 373.347778,88.888992 373.210724,88.138535 
	C375.522278,88.117477 377.833862,88.096413 380.580750,88.052650 
z"/>
<path fill="#4A474A" opacity="1.000000" stroke="none" 
	d="
M372.875031,88.247849 
	C373.347778,88.888992 373.484863,89.639442 373.711060,90.661575 
	C373.789978,92.947327 373.779846,94.961395 373.793671,97.398315 
	C373.096863,97.733772 372.376068,97.646378 371.401947,97.476112 
	C371.083679,94.299873 368.496521,90.818314 372.875031,88.247849 
z"/>
<path fill="#4A474A" opacity="1.000000" stroke="none" 
	d="
M307.284241,87.350677 
	C308.213684,90.087990 309.071045,93.268089 309.902893,96.928345 
	C309.318726,97.571365 308.760071,97.734230 307.908997,97.955276 
	C307.481720,94.606804 307.346924,91.200134 307.284241,87.350677 
z"/>
<path fill="#535053" opacity="1.000000" stroke="none" 
	d="
M176.365814,25.873161 
	C177.585526,25.899097 178.370377,25.944164 179.545074,26.015022 
	C176.593033,26.699808 173.251175,27.358807 169.462494,28.023113 
	C168.311157,28.008709 167.606613,27.988997 166.550232,27.963146 
	C169.442581,27.268772 172.686768,26.580534 176.365814,25.873161 
z"/>
<path fill="#3D3B3D" opacity="1.000000" stroke="none" 
	d="
M308.043335,116.679428 
	C307.343628,117.088577 306.763794,117.124596 305.901062,117.196602 
	C306.002655,114.380997 306.387115,111.529419 306.857727,108.295601 
	C307.350311,110.711014 307.756714,113.508652 308.043335,116.679428 
z"/>
<path fill="#535053" opacity="1.000000" stroke="none" 
	d="
M144.790558,27.645481 
	C141.900650,27.947098 138.838425,27.973503 135.788071,27.795887 
	C135.425842,27.774796 135.128510,26.638920 135.007599,25.924227 
	C138.349991,26.322081 141.485916,26.815495 144.790558,27.645481 
z"/>
<path fill="#3D3B3D" opacity="1.000000" stroke="none" 
	d="
M133.018814,114.592171 
	C132.531998,114.751381 132.029251,114.511620 131.278641,114.147125 
	C130.869064,111.515732 130.707336,109.009056 130.761566,106.266365 
	C131.652649,108.751297 132.327759,111.472244 133.018814,114.592171 
z"/>
<path fill="#3D3B3D" opacity="1.000000" stroke="none" 
	d="
M17.063856,114.678528 
	C16.778147,114.957245 16.479622,114.961929 15.730509,114.963203 
	C14.215761,112.520782 13.151604,110.081779 12.009438,107.274414 
	C13.637966,109.405540 15.344502,111.905014 17.063856,114.678528 
z"/>
<path fill="#3D3B3D" opacity="1.000000" stroke="none" 
	d="
M294.656555,114.262108 
	C293.960175,114.966141 293.335938,115.335960 292.403076,115.879036 
	C292.889618,113.167618 293.684784,110.282951 294.758057,107.174026 
	C294.933655,109.275818 294.831146,111.601852 294.656555,114.262108 
z"/>
<path fill="#4A474A" opacity="1.000000" stroke="none" 
	d="
M144.420120,37.492935 
	C142.038986,36.349850 141.937637,34.821285 144.562347,33.167206 
	C144.734894,34.393635 144.642212,35.749039 144.420120,37.492935 
z"/>
<path fill="#4A474A" opacity="1.000000" stroke="none" 
	d="
M144.929413,43.659271 
	C144.295868,43.980446 143.531433,43.991783 142.384949,44.004868 
	C142.617554,43.446331 143.232208,42.886051 144.061829,42.217247 
	C144.450699,42.522297 144.624634,42.935863 144.929413,43.659271 
z"/>
<path fill="#454245" opacity="1.000000" stroke="none" 
	d="
M306.720154,8.640614 
	C306.939880,8.912245 306.924500,9.120970 306.878723,9.641614 
	C306.139526,9.728263 305.430756,9.502994 304.458374,9.182386 
	C304.958191,8.917268 305.721649,8.747488 306.720154,8.640614 
z"/>
<path fill="#454245" opacity="1.000000" stroke="none" 
	d="
M365.463806,9.982694 
	C365.096222,9.777510 365.083527,9.569876 365.057098,9.050122 
	C365.711304,9.006696 366.379303,9.275391 367.147278,9.756958 
	C366.771088,9.973302 366.294922,9.976773 365.463806,9.982694 
z"/>
<path fill="#575457" opacity="1.000000" stroke="none" 
	d="
M127.157974,97.468857 
	C118.339478,97.868408 109.633385,97.887375 100.457825,97.883141 
	C100.337296,92.554535 100.686241,87.249123 101.441803,81.388535 
	C110.873863,80.901489 119.899307,80.969620 128.924759,81.037750 
	C128.373306,86.387924 127.821846,91.738098 127.157974,97.468857 
z"/>
<path fill="#514E51" opacity="1.000000" stroke="none" 
	d="
M178.027237,82.018478 
	C178.238007,78.395172 178.419235,74.769753 178.679047,71.149963 
	C178.749405,70.169510 178.865646,69.112778 179.285950,68.249306 
	C183.496765,59.598541 191.364136,63.717697 197.764038,63.282413 
	C202.464539,62.962711 204.851212,66.049339 204.996048,70.850708 
	C205.090500,73.981506 205.525574,77.102028 205.399567,80.633545 
	C196.003128,81.366112 187.015182,81.692291 178.027237,82.018478 
z"/>
<path fill="#585558" opacity="1.000000" stroke="none" 
	d="
M178.023682,82.483330 
	C187.015182,81.692291 196.003128,81.366112 205.449127,81.052048 
	C205.606140,86.357094 205.305069,91.650017 205.008362,97.389877 
	C196.316925,97.850403 187.621109,97.863983 178.455627,97.850739 
	C177.997345,92.865334 178.008743,87.906761 178.023682,82.483330 
z"/>
<path fill="#514E51" opacity="1.000000" stroke="none" 
	d="
M128.940308,80.568420 
	C119.899307,80.969620 110.873863,80.901489 101.446274,80.929474 
	C101.452271,77.393837 101.777367,73.750320 102.289925,70.133377 
	C102.907333,65.776627 105.342827,63.194786 109.911720,63.109100 
	C114.064751,63.031216 118.220284,63.056210 122.374481,63.078552 
	C126.694656,63.101791 128.736145,65.494354 128.867615,69.631187 
	C128.978424,73.117905 128.932434,76.609596 128.940308,80.568420 
z"/>
<path fill="#514E51" opacity="1.000000" stroke="none" 
	d="
M161.150574,78.509132 
	C156.003006,78.917702 150.964737,78.940231 145.458923,78.947426 
	C145.377121,75.462914 145.789673,71.996445 146.142273,68.523903 
	C146.646347,63.559734 150.154556,63.036362 154.089691,63.028099 
	C158.096664,63.019688 161.648132,63.766891 161.806747,68.708672 
	C161.907196,71.837730 161.460922,74.984352 161.150574,78.509132 
z"/>
<path fill="#575457" opacity="1.000000" stroke="none" 
	d="
M40.984840,79.009430 
	C41.825199,79.594894 42.665562,80.180351 44.253761,80.859161 
	C48.223358,80.881622 51.445114,80.810730 54.666870,80.739845 
	C55.600975,80.279526 56.535080,79.819206 58.132496,79.084290 
	C67.521446,78.878563 76.247093,78.947433 84.972733,79.016304 
	C84.398903,85.050186 83.825073,91.084076 83.140701,97.505257 
	C59.663448,97.900169 36.296745,97.907784 12.460696,97.897430 
	C12.638030,91.869164 13.284708,85.858864 14.403704,79.406250 
	C23.578962,78.979103 32.281902,78.994270 40.984840,79.009430 
z"/>
<path fill="#535053" opacity="1.000000" stroke="none" 
	d="
M468.927734,83.605759 
	C460.752136,83.732086 452.519653,83.532318 444.297516,83.124420 
	C442.308472,83.025742 440.353546,82.239677 438.203003,81.522850 
	C442.267090,78.879646 440.120361,75.114090 440.379974,71.257591 
	C449.502533,68.070282 458.274078,68.020592 467.016022,70.979561 
	C467.635559,75.054115 468.255127,79.128662 468.927734,83.605759 
z"/>
<path fill="#4C494C" opacity="1.000000" stroke="none" 
	d="
M467.011078,70.549850 
	C458.274078,68.020592 449.502533,68.070282 440.343536,70.851509 
	C439.631531,68.690025 439.221405,66.405128 438.942505,64.104324 
	C438.095642,57.118279 438.153809,57.061947 445.438049,57.001202 
	C448.920319,56.972157 452.403442,56.965191 455.885529,57.005264 
	C463.955322,57.098145 466.098755,59.082272 466.877289,67.138931 
	C466.972809,68.127586 466.965668,69.126167 467.011078,70.549850 
z"/>
<path fill="#423F42" opacity="1.000000" stroke="none" 
	d="
M392.087219,23.385494 
	C399.635406,23.254486 407.244232,23.434872 414.838165,23.873585 
	C416.799957,23.986923 418.714935,24.911016 420.819305,25.746769 
	C420.450012,26.860216 419.721222,27.622921 419.405823,28.529453 
	C416.829742,35.933159 416.853210,35.941769 408.951874,35.997051 
	C408.119598,36.002876 407.287292,36.000565 406.454987,36.000572 
	C394.042053,36.000710 394.042053,36.000652 392.087219,23.385494 
z"/>
<path fill="#3D3B3D" opacity="1.000000" stroke="none" 
	d="
M22.006561,11.350920 
	C44.692600,10.879318 67.376587,10.867600 90.529144,10.858490 
	C90.653114,14.931784 90.308517,19.002470 89.557709,23.621044 
	C81.613792,24.392965 74.073090,24.550394 66.540489,24.888403 
	C64.683762,24.971720 62.853413,25.642843 61.010941,26.043747 
	C61.010941,26.043747 60.576328,26.019926 59.891209,25.998390 
	C56.122196,25.959972 53.038300,25.943092 49.708366,25.712696 
	C48.216198,25.203476 46.968483,24.646746 45.724197,24.654305 
	C37.479343,24.704397 29.235226,24.875521 20.990868,25.007252 
	C21.328749,20.608435 21.666630,16.209620 22.006561,11.350920 
z"/>
<path fill="#201B1E" opacity="1.000000" stroke="none" 
	d="
M49.954407,25.926210 
	C53.038300,25.943092 56.122196,25.959972 59.674412,25.979380 
	C58.356316,43.958668 56.569897,61.935432 54.725174,80.326019 
	C51.445114,80.810730 48.223358,80.881622 44.556641,80.940559 
	C45.614304,65.743942 47.121296,50.559708 48.615620,35.374222 
	C48.891792,32.567722 49.116779,29.756187 49.517166,26.479156 
	C49.668945,26.011335 49.954407,25.926210 49.954407,25.926210 
z"/>
<path fill="#514E51" opacity="1.000000" stroke="none" 
	d="
M84.986603,78.574188 
	C76.247093,78.947433 67.521446,78.878563 58.384567,78.895370 
	C58.348774,75.036789 58.636333,71.081604 59.124615,67.151352 
	C59.604046,63.292320 62.004166,61.259769 65.821068,61.147968 
	C70.446144,61.012493 75.078453,61.041492 79.706207,61.104603 
	C84.021683,61.163448 86.054893,63.554672 85.856430,67.759094 
	C85.692955,71.222504 85.294685,74.674835 84.986603,78.574188 
z"/>
<path fill="#423F42" opacity="1.000000" stroke="none" 
	d="
M61.249947,26.295883 
	C62.853413,25.642843 64.683762,24.971720 66.540489,24.888403 
	C74.073090,24.550394 81.613792,24.392965 89.553833,24.074356 
	C88.391327,39.004612 88.362930,39.032593 73.416481,38.995853 
	C71.750671,38.991760 70.084320,38.965626 68.419327,38.913925 
	C64.078667,38.779133 62.098202,36.770042 62.546993,32.215679 
	C62.727978,30.379045 61.872654,28.440294 61.249947,26.295883 
z"/>
<path fill="#201B1E" opacity="1.000000" stroke="none" 
	d="
M340.461060,81.044594 
	C340.006165,81.065323 339.723145,80.884148 339.568298,80.820068 
	C338.906097,71.483650 338.398773,62.211315 337.842590,52.481007 
	C337.477325,43.652424 337.160919,35.281815 337.310547,26.441669 
	C340.899506,25.982080 344.022369,25.992027 347.145264,26.001976 
	C347.715851,34.075771 348.286469,42.149570 348.988647,50.616821 
	C349.664948,60.631107 350.209625,70.251938 350.788940,80.282295 
	C347.521057,80.802505 344.218506,80.913185 340.461060,81.044594 
z"/>
<path fill="#535053" opacity="1.000000" stroke="none" 
	d="
M351.288391,81.352722 
	C351.720337,78.312027 352.702759,75.507332 353.004028,72.631294 
	C353.383850,69.005188 355.020691,67.108772 358.665131,67.086853 
	C363.655060,67.056831 368.645752,67.047020 373.635406,67.096931 
	C377.652557,67.137100 379.698578,69.212608 379.953369,73.249458 
	C380.141724,76.233978 380.572479,79.203209 380.925018,82.602737 
	C372.894135,82.766266 364.832336,82.536308 356.773743,82.222740 
	C355.021973,82.154579 353.281860,81.786812 351.288391,81.352722 
z"/>
<path fill="#514E51" opacity="1.000000" stroke="none" 
	d="
M41.053196,78.594337 
	C32.281902,78.994270 23.578962,78.979103 14.448456,78.989105 
	C15.187614,61.550156 15.799292,60.933441 31.890539,60.997635 
	C41.219917,61.034851 42.431267,62.302776 41.916512,71.769081 
	C41.799881,73.913872 41.394188,76.042938 41.053196,78.594337 
z"/>
<path fill="#454245" opacity="1.000000" stroke="none" 
	d="
M49.708366,25.712696 
	C49.954407,25.926210 49.668945,26.011335 49.523476,26.029449 
	C48.503723,27.399860 47.547256,28.708181 46.790043,30.123133 
	C46.415272,30.823435 46.334599,31.712133 46.245026,32.529205 
	C45.454170,39.743206 40.881500,40.745049 26.469872,39.721363 
	C20.855165,39.322536 19.489811,36.713772 20.102219,29.178108 
	C20.195152,28.034573 20.514574,26.909445 20.860052,25.391527 
	C29.235226,24.875521 37.479343,24.704397 45.724197,24.654305 
	C46.968483,24.646746 48.216198,25.203476 49.708366,25.712696 
z"/>
<path fill="#3D3B3D" opacity="1.000000" stroke="none" 
	d="
M107.002556,11.266795 
	C115.373573,10.845840 123.715782,10.865481 132.522903,10.898335 
	C131.051270,25.106092 133.671646,25.088825 117.439812,25.005766 
	C116.944321,25.003231 116.448807,25.005856 115.953323,25.002419 
	C106.504272,24.936863 105.551353,23.870834 106.687439,14.665874 
	C106.808762,13.682909 106.879524,12.693704 107.002556,11.266795 
z"/>
<path fill="#3D3B3D" opacity="1.000000" stroke="none" 
	d="
M181.002594,11.267693 
	C189.062546,10.838706 197.093201,10.854309 205.599487,10.878798 
	C206.025970,14.342966 205.980698,17.798311 205.926559,21.253517 
	C205.871078,24.794798 204.197510,26.948545 200.535995,26.872370 
	C193.974014,26.735844 187.416061,26.405027 180.456818,26.053764 
	C180.362549,21.205505 180.667923,16.458893 181.002594,11.267693 
z"/>
<path fill="#585558" opacity="1.000000" stroke="none" 
	d="
M293.858643,94.614090 
	C292.468781,95.874382 290.952026,97.514893 289.433197,97.516792 
	C267.210052,97.544708 244.986649,97.353981 222.355896,97.122581 
	C221.976440,93.001007 222.004395,88.972191 222.438293,84.385910 
	C230.639709,83.591644 238.441406,83.467316 246.226318,83.038612 
	C248.163605,82.931931 250.046753,81.841728 251.954773,81.203598 
	C251.954773,81.203598 252.021774,81.042374 252.495087,80.983765 
	C256.292450,80.910965 259.616516,80.896782 262.940552,80.882599 
	C262.940552,80.882599 262.983551,81.049347 263.183044,81.374420 
	C265.194336,82.171341 266.989044,82.962204 268.820770,83.059944 
	C276.861938,83.489059 284.913757,83.717766 292.961731,84.019127 
	C293.218079,87.423500 293.474396,90.827873 293.858643,94.614090 
z"/>
<path fill="#201B1E" opacity="1.000000" stroke="none" 
	d="
M262.955872,80.422607 
	C259.616516,80.896782 256.292450,80.910965 252.516541,80.899132 
	C251.965271,69.568588 251.865906,58.264069 251.687119,46.497963 
	C251.673431,39.663158 251.739151,33.289928 252.294510,26.443043 
	C255.893204,25.975677 259.002258,25.981968 262.111328,25.988260 
	C262.289368,32.727818 262.467407,39.467377 262.744629,46.601006 
	C262.886261,57.984257 262.928711,68.973434 262.955872,80.422607 
z"/>
<path fill="#535053" opacity="1.000000" stroke="none" 
	d="
M251.645813,81.000015 
	C250.046753,81.841728 248.163605,82.931931 246.226318,83.038612 
	C238.441406,83.467316 230.639709,83.591644 222.441528,83.923820 
	C222.045258,80.199646 222.083847,76.379814 222.049393,72.560646 
	C222.012665,68.490753 224.035843,66.295242 228.043732,66.192917 
	C233.019943,66.065857 238.004486,66.064911 242.980545,66.195358 
	C246.996063,66.300621 248.712280,68.549232 249.055893,72.572647 
	C249.293808,75.358521 250.540787,78.058228 251.645813,81.000015 
z"/>
<path fill="#3D3B3D" opacity="1.000000" stroke="none" 
	d="
M347.152130,26.017288 
	C344.022369,25.992027 340.899506,25.982080 337.305145,25.976650 
	C336.833679,25.981165 336.408203,26.015963 336.027161,25.702507 
	C333.457123,24.597305 331.310913,23.296335 329.071228,23.108301 
	C322.059540,22.519629 315.012604,22.350754 307.979340,22.019222 
	C307.656250,18.614073 307.333160,15.208922 307.011902,11.342657 
	C326.052521,10.862570 345.091339,10.843596 364.557220,10.846178 
	C365.144135,19.033216 365.502045,19.493620 372.249603,20.276299 
	C370.369232,21.012918 368.360748,21.816204 366.315582,21.924032 
	C361.901367,22.156765 357.467896,22.002251 353.043152,22.065233 
	C350.259369,22.104860 347.739594,22.637775 347.194031,26.028887 
	C347.194031,26.028887 347.158997,26.032604 347.152130,26.017288 
z"/>
<path fill="#423F42" opacity="1.000000" stroke="none" 
	d="
M347.481323,26.179098 
	C347.739594,22.637775 350.259369,22.104860 353.043152,22.065233 
	C357.467896,22.002251 361.901367,22.156765 366.315582,21.924032 
	C368.360748,21.816204 370.369232,21.012918 372.667480,20.282539 
	C377.604523,22.902864 376.755219,27.714161 375.842285,31.559551 
	C375.456299,33.185364 371.166901,34.240311 368.490845,34.859856 
	C366.128448,35.406799 363.537170,34.887318 361.056122,35.015743 
	C355.598297,35.298248 351.167633,34.056335 349.480316,28.045950 
	C349.289764,27.367062 348.357147,26.896482 347.481323,26.179098 
z"/>
<path fill="#535053" opacity="1.000000" stroke="none" 
	d="
M292.969360,83.567451 
	C284.913757,83.717766 276.861938,83.489059 268.820770,83.059944 
	C266.989044,82.962204 265.194336,82.171341 263.216553,81.453735 
	C264.021179,79.062996 264.991791,76.918022 266.452209,74.387299 
	C275.620392,74.335602 284.298737,74.669655 292.977112,75.003700 
	C292.977081,77.707726 292.977051,80.411751 292.969360,83.567451 
z"/>
<path fill="#514E51" opacity="1.000000" stroke="none" 
	d="
M292.970245,74.589142 
	C284.298737,74.669655 275.620392,74.335602 266.474060,74.001999 
	C266.263092,65.799171 267.020721,65.062386 275.325684,65.005157 
	C277.970123,64.986938 280.615051,64.980797 283.259369,65.008560 
	C291.037842,65.090210 292.319641,66.309349 292.970245,74.589142 
z"/>
<path fill="#3D3B3D" opacity="1.000000" stroke="none" 
	d="
M262.129883,25.998432 
	C259.002258,25.981968 255.893204,25.975677 252.313934,25.973526 
	C251.843750,25.977667 251.412064,26.007101 251.101578,25.687668 
	C248.917282,24.506945 247.087692,23.032066 245.161804,22.893204 
	C237.791962,22.361807 230.391129,22.259932 223.001892,21.997713 
	C223.006058,18.590374 223.010239,15.183034 223.022491,11.299681 
	C245.375961,10.843966 267.721344,10.864266 290.526428,10.897696 
	C290.988892,14.630946 290.991669,18.351067 290.526001,22.533485 
	C282.815491,23.005087 275.562408,22.796383 268.338196,23.160238 
	C266.246674,23.265581 264.237885,25.013445 262.191162,26.008316 
	C262.191162,26.008314 262.148407,26.008606 262.129883,25.998432 
z"/>
<path fill="#423F42" opacity="1.000000" stroke="none" 
	d="
M223.003143,22.429199 
	C230.391129,22.259932 237.791962,22.361807 245.161804,22.893204 
	C247.087692,23.032066 248.917282,24.506945 250.885437,25.697090 
	C248.786041,27.921700 246.754807,31.158314 244.366333,31.447828 
	C238.502991,32.158543 232.382401,32.110851 226.544662,31.208208 
	C222.378830,30.564074 223.195724,26.112177 223.003143,22.429199 
z"/>
<path fill="#423F42" opacity="1.000000" stroke="none" 
	d="
M262.478302,26.164993 
	C264.237885,25.013445 266.246674,23.265581 268.338196,23.160238 
	C275.562408,22.796383 282.815491,23.005087 290.525482,22.994171 
	C290.853943,32.050076 289.979645,32.930119 281.046295,32.997231 
	C280.055603,33.004673 279.057098,32.920124 278.075348,33.014557 
	C271.720642,33.625790 265.914917,33.025059 262.478302,26.164993 
z"/>
<path fill="#423F42" opacity="1.000000" stroke="none" 
	d="
M307.981445,22.471367 
	C315.012604,22.350754 322.059540,22.519629 329.071228,23.108301 
	C331.310913,23.296335 333.457123,24.597305 335.813995,25.713305 
	C335.328766,27.771433 334.675690,29.505306 333.602905,31.709782 
	C324.788879,32.120018 316.394562,32.059654 308.000275,31.999290 
	C307.994690,28.974031 307.989136,25.948772 307.981445,22.471367 
z"/>
<path fill="#454245" opacity="1.000000" stroke="none" 
	d="
M308.005615,32.420856 
	C316.394562,32.059654 324.788879,32.120018 333.590363,32.088745 
	C333.543823,39.819004 332.465759,40.888752 324.829193,40.985817 
	C322.012817,41.021614 319.194550,41.033875 316.378906,40.974419 
	C309.544861,40.830090 308.472656,39.766975 308.005615,32.420856 
z"/>
</svg>